<?xml version="1.0" encoding="UTF-8"?>
<svg id="Layer_2" data-name="Layer 2" xmlns="http://www.w3.org/2000/svg" viewBox="0 0 380.87 467.51">
  <defs>
    <style>
      .cls-1 {
        fill: #b1b1b1;
      }

      .cls-2 {
        fill: #13395c;
      }
    </style>
  </defs>
  <g id="Illustrations">
    <g>
      <path class="cls-2" d="M190.41,2.4c-.13.19-2.96,1.14-4.1,2.01-5.8,4.38-14.66,16.39-12.28,24.01,1.85,5.91,11.69-1.85,12.91,2.28.67,2.27-3.52,13.66-3.82,17.53-.59,7.54,2.34,14.23,10.43,8.97,7.94-5.17,14.56-16.07,21.11-22.96l1.49-.46c1.01.67,1.02,1.81.28,2.72-6.44,6.61-11.99,15.14-19.11,21.03-3.43,2.84-7.65,5.68-12.1,3.28-8.75-4.72-2.77-21.66-.64-28.99-21.01,6.86-13.24-15.23-5.15-24.49,1.4-1.6,8.5-8.58,10.55-7.13.51.42.7,1.8.42,2.2Z"/>
      <path class="cls-2" d="M334.14,223.29c-.88-2.09-4.51-7.32-4.67-8.55-.38-2.85.48-5.7.54-8.33,1.22-56.45,4.78-113.03,5.19-169.55.01-1.73-1.03-2.48-2.2-.8-.93,19.07-.96,38.19-1.53,57.24-.89,30.14-2.41,60.36-3.47,90.55-.34,9.86-.15,19.79-.47,29.65-8.95-6.41-13.71,4.69-15.91,11.75-2.53,8.14-3.63,16.97-6.2,25.13-1.04,1.77-3.45-.35-5.3.82v-11.02c0-12.08-11.67-28.12-21.88-33.94-17.68-10.07-39.2-5.86-54,7.25,2.29-3.61,2.9-12.36,5.88-14.92,1.95-1.68,9.96-4.21,12.72-4.91,8.4-2.13,27.32-2.55,32.73-8.89,3.28-3.84,2.6-11.29.6-15.63-4.9-10.65-26.99-24.84-37.11-28.01-15.56-4.89-33.15-6.48-49.33-5.61-.65.03-1.34-.43-1.96-.37-.83.08-1.21.99-1.97,1-.31,0-.22-1.02-.51-1.03-.59-.03-1.63.75-2.49.87-24.88,3.22-76.26,9.75-84.63,39.33-1.75,6.18-1.73,13.03,3.71,17.34,7.2,5.7,20.9.67,29.58.57,5.68-.07,11.29.78,16.86,1.71.38,4.32,2.06,8.59,3.45,12.71.32.96.31,2,1.47,2.45.02.16,0,.33,0,.49,0,.33,0,.65,0,.98-2.61-2.19-4.85-3.6-7.99-4.98-28.2-12.44-57.13,4.1-62.02,33.87l-3.17-4.9c-3.97-4.94-9.97-8.07-15.91-4.4-1.15-7.86-1.31-15.86-1.97-23.74-5.31-63.76-10.73-127.61-19.56-190.95,1.1-1.73,1.69-3.47-1.03-3-1.61.28-1.5,2.71-1.45,3.94.61,14.1,4.6,31.58,6.31,46.11,6.66,56.48,10.57,113.25,15.68,169.89-5.91,10.09-4.17,22.16-4.85,33.26-.54,8.85-2.13,17.95-2.46,26.92-.38,10.29.41,20.63.53,30.85.07,5.51-.04,10.96-.51,16.43l.97-.5c.29,2.75-1.41,4.72-.45,7.47.15.44.92.37.96.68.1.78-.6,3.25-.53,4.85.82,19.7,1.64,40.56,4,60.15.54,4.52,2.3,20.85,4.82,23.58.56.61,2.02,1.43,2.82,1.59,2.6.53,13.5.05,15.57-1.34,2.87-1.93-.41-8.9-1.13-11.64-4.82-18.49-7.91-35.03-9.9-54.24-.87-8.37-1.3-16.82-1.96-25.21l4.98,7.5c19.47,27.64,54.59,54.03,88.51,59.37,55.05,8.66,106.71-5.57,145.44-46.04.47-.49,3.15-4.51,3.9-3.68l-1.96,8.07c.26.85,1.31-2.33.87.37-2.12,12.99-7.5,25.51-10.93,38.04-4.3,15.7-10.38,26.91-16.11,41.67-1.54,3.97-2.62,8.03-4.17,11.99,1.76.94,3.29,2,5.27,2.55,2.15.6,10.55,2.17,12.14,1.15,1.53-.98,2.71-8.54,3.39-10.8,4.37-14.35,11.1-27.01,15.92-40.88,14.39-41.45,21.02-81.99,22.04-125.84.1-4.23-.57-8.18-.53-12.28.05-5.16,1.27-10.96,1.51-16.12.51-11.16-1.82-27.66-6.15-37.96ZM249.09,215.09c30.81-3.46,45.97,29.12,33,54.55-14.13,27.72-54.01,29.02-63.71-2.57-6.57-21.39,7.42-49.37,30.71-51.99ZM206.61,307.51c0-.68-.14-1.93,0-2.45l-1.47-5.38c3.73-.42,7.54-.54,11.26-.98,4.81-.57,10.97-2.24,15.18-.98.55.17.94.3,1.47.49.14.05.34-.05.49,0,.66.23,1.31.77,1.96.98.41.13.79.44.98.49.59.16,1.69.33,2.45.49.29.06.68-.06.98,0,3.66.67,6.01.99,9.79.98.33,0,.65.01.98,0,.81-.03,1.65.07,2.45,0,.16-.01.33.02.49,0,1.85-.19,5.45-.97,7.34-1.47.45-.12.96-.34,1.47-.49,1.88-.54,3.79-1.96,5.87-1.95-1.12,2.22-4,2.81-5.87,3.91-.51.3-.96.69-1.47.98-1.44.81-2.59,1.27-3.92,1.96-.33.17-.65.32-.98.49-1.09.55-2.18,1.37-3.43,1.96-.52.24-1.07.31-1.47.49-.98.45-1.94,1.04-2.94,1.47-.51.22-1.04.31-1.47.49-1.34.56-2.58.96-3.92,1.47-1.34.51-2.55.99-3.92,1.47-.49.17-.98.32-1.47.49-.73.24-1.48.67-2.45.98-.49.16-.98.34-1.47.49-.83.25-1.71.28-2.45.49-.49.14-.96.35-1.47.49-1.14.31-2.27.69-3.43.98-.15.04-.34-.04-.49,0-1.07.26-2.24.71-3.43.98-.16.03-.33-.03-.49,0-1.34.3-2.34.27-3.43.49-.6.12-1.22.35-1.96.49-.51.1-1.12.35-1.96.49-.31.05-.67-.05-.98,0-.99.17-1.93.33-2.94.49-.16.02-.33-.03-.49,0-.94.15-2.46,1.11-3.66.99-.42.02-.29-.68-.25-.99.24-2.09.96-4.25.98-6.37.01-1.59-.47-3.12-.49-4.9ZM200.82,293.95c3.63,8.9,6.13,19.92,1.96,29.08-2.64,5.79-7.75,8.73-12.33,2.84-3.66-4.7-2.86-11.38-4.14-16.92-1.81-7.85-6.23-.08-9.34,2.46-2.51,2.04-8.64,6.03-10.63,1.36-3.02-7.09,7.46-19.05,12.12-23.87.64-3.87-2.73-.33-3.92.98-1.32,1.45-5.66,8.14-6.61,8.57-2.53,1.15-10.28-.1-13.21-.73l5.88-4.15c5.54-5.08,10.46-10.98,12.85-18.24,10.17-5.97,23.99-8.4,35-3.44,3.48,9.68,9.81,17.57,18.23,23.38l-21.28,2.47c-1.56.21-4.05-10-6.13-7.85-.72.74,1.21,3.22,1.56,4.07ZM164.01,312.4c-.01.16.02.33,0,.49.89,1.1,1.22,2.04,2.45,2.94.19.14.36.43.49.49,2.01.85,3.87.57,5.88,0,.37-.11,1.21-.36,1.47-.49,1.19-.61,2.66-2.24,3.92-2.94.06-.09,1.12-1.09,1.47-1.47,1.3-1.4,3.3-2.27,3.92-3.91.83-.16.36.55.48.98.37,1.27.3,1.86.49,2.94.51,2.93,1.1,5.86,1.47,8.81-1.83.46-3.89-.39-5.38-.49-.49-.03-.98.04-1.47,0-2.11-.16-4.26-.25-6.36-.49-.16-.02-.33.02-.49,0-.97-.12-1.73-.39-2.45-.49-.31-.04-.67.05-.98,0-3.23-.47-6.2-1.26-9.3-1.96-.65-.15-1.12-.41-1.47-.49-.76-.18-1.46-.23-2.45-.49-.46-.12-.81-.44-.98-.49-.8-.21-1.68-.13-2.94-.49-1.02-.29-1.96-.67-2.94-.98-.15-.05-.34.05-.49,0-.96-.3-1.73-.74-2.45-.98-.43-.14-.75-.41-.98-.49-.48-.17-1.1-.17-1.96-.49-.14-.05-.35.05-.49,0-2.06-.76-3.58-1.68-5.39-2.45-.36-.15-.86-.22-1.47-.49-.8-.35-1.33-.69-1.96-.98-.76-.35-1.84-.43-2.78-.89-3.06-1.52-6.07-3.41-8.97-5.23,3.56.03,6.61,1.07,10.28,1.23.65.03,1.31.01,1.96,0,.49,0,.98.03,1.47,0,2.18-.11,4.7-.55,6.85-.98.3-.06.69.06.98,0,.74-.17,1.93-.72,2.94-.98,4.36-1.11,4.6-1.17,9.3-.98,1.75.07,3.22.38,4.9.49.65.04,1.31-.03,1.96,0,.65.03,1.31-.04,1.96,0,.71.04,2.3-.44,1.95.72-.77,2.55-2.16,3.21-2.44,6.63-.12,1.45.1,2.95,0,4.41ZM151.28,199.29c-.25-.82-.34-1.62-.49-2.45-.37-2.02-.17-1.29,0-2.94.08-.8-.05-1.64,0-2.45h-1.96c-.02.31.08.78,0,.98-.31.8-.48.45-1.1.37-4.21-.5-8.37-1.53-12.61-1.84-.32-.02-.65.02-.98,0-.65-.04-1.31.01-1.96,0-.49-.01-.98,0-1.47,0-.65,0-1.31-.02-1.96,0-.49.02-.98-.03-1.47,0-1.06.06-1.82.43-2.45.49-.32.03-.66-.03-.98,0-.64.07-1.32-.08-1.96,0-.16.02-.33-.02-.49,0-.77.1-1.88.35-2.94.49-.16.02-.75.39-1.47.49-.66.09-1.3.41-1.96.49-.32.04-.66-.04-.98,0-2.61.3-3.22.48-5.88,0-.45-.08-.74-.42-.98-.49-1.41-.41-1.34-.14-2.94-.98-.18-.1-.32-.38-.49-.49-1.3-.85-1.9-.71-2.94-2.45-2.81-4.74-1.41-10.95.49-15.67.91-2.26,1.57-3.38,2.94-5.39.2-.29.29-.71.49-.98.89-1.18,1.63-1.58,2.45-2.45.34-.36.63-.64.98-.98,1.09-1.05,1.65-1.28,2.45-1.96.28-.24.4-.65,1.47-1.47.66-.51,1.27-.99,1.96-1.47.5-.35.95-.65,1.47-.98.83-.53,1.45-.67,1.96-.98.42-.25.74-.57,1.47-.98.76-.42,1.32-.64,1.96-.98.33-.17.65-.32.98-.49.74-.38,1.5-1.02,2.45-1.47.76-.36,1.58-.31,1.96-.49.35-.16.81-.69,1.47-.98.14-.06.35.06.49,0,.97-.42,1.94-1.06,2.94-1.47.14-.06.35.06.49,0,1.14-.46,2.26-1.03,3.43-1.47.14-.05.35.05.49,0,.56-.2,1.21-.72,1.96-.98.15-.05.34.05.49,0,.53-.18,1.2-.73,1.96-.98,4.81-1.56,12.74-4,17.63-4.41.16-.01.33,0,.49,0,.16,0,.33-.01.49,0,1.72-.93,4.41-.69,6.36-.98.29-.04.69-.45.98-.49,3.07-.44,6.22-.64,9.3-.98.48-.05.99.05,1.47,0,.63-.06,1.45-.4,2.45-.49.32-.03.66.03.98,0,1.81-.16,3.56-.37,5.39-.49.32-.02.65.02.98,0,3.28-.2,6.49-.43,9.79-.49.16,0,.33,0,.49,0,.98-.01,1.96,0,2.94,0,.16,0,.33,0,.49,0,.98,0,1.96-.02,2.94,0,.16,0,.33,0,.49,0,2.14.06,3.9.35,5.88.49.32.02.66-.03.98,0,1.91.15,3.45.25,5.39.49.16.02.33-.02.49,0,2.55.33,4.63,1.06,6.85,1.47.3.06.68-.06.98,0,.98.19,1.82.24,2.94.49.16.03.33-.04.49,0,3.63.83,6.32,1.74,9.79,2.94.15.05.34-.05.49,0,3.35,1.19,5.72,2.42,8.81,3.92.34.16.65.32.98.49,1.04.52,1.83.86,2.94,1.47.19.1.33.4.49.49.9.51,1.77.75,2.94,1.47.19.12.32.38.49.49,2.28,1.44,3.64,2.25,5.88,3.92.18.14.31.35.49.49.95.73,1.51,1.17,2.45,1.96.24.21.74.28.98.49,1.21,1.07,1.87,1.82,2.94,2.94.16.17.34.32.49.49.99,1.1,1.54,1.72,2.45,2.94.85,1.14.68,1.47.98,1.96.41.67,1.65.36,1.96,3.43,1.18-.25,1.05.55,1.35,1.32,1.45,3.83,2.15,9.43-1.35,12.39-.72.61-1.35.64-1.96.98-.47.26-.77.68-1.47.98-.8.34-1.37.3-1.96.49-.52.17-.9.33-1.47.49-2.14.59-3.51.6-5.39.98-.17.03-.53.4-.98.49-.82.16-1.63.34-2.45.49-.44.08-1.02-.08-1.47,0-.8.15-1.63.33-2.45.49-.3.06-.68-.06-.98,0-.66.13-1.3.36-1.96.49-.44.09-1.03-.09-1.47,0-.57.11-1.25.35-1.96.49-.16.03-.33-.03-.49,0-.95.2-2.31.72-3.43.98-.15.04-.34-.04-.49,0-.65.16-1.31.31-1.96.49-.15.04-.34-.04-.49,0-.86.24-1.99.68-2.94.98-.48.15-1,.32-1.47.49-.71.25-1.53.32-1.96.49-.15.06-.3.41-.49.49-1.06.44-2.34.71-2.94.98-.25.12-1.15,1.51-1.95,1.47.51-2.02.44-3.84.48-5.88h-1.96c-.13,2.79-.5,5.11-.98,7.83-.62,3.58-1.29,5.94-2.45,9.3-.52,1.5-.75,2.39-1.47,3.92-.52,1.12-1.18,3.67-2.45,3.43-.14,1.32-.31,1.42-.98,2.45-.69,1.07-1.46,1.35-1.96,1.96-.38.46-.67,1.16-1.47,1.96-1.06,1.06-1.62,1.25-2.45,1.96-.3.26-.51.61-.98.98-.84.66-1.45,1.29-2.45,1.96-.37.25-.73.33-.98.49-.85.54-1.34.64-1.96.98-.35.19-.61.56-1.47.98-1.08.53-1.59.61-2.45.98-.29.12-.58.33-.98.49-.58.23-1.17.73-1.96.98-.26.08-.7-.08-.98,0-.94.27-1.77.75-2.94.98-.3.06-.67-.05-.98,0-.82.14-1.55.4-2.45.49-.32.03-.66-.02-.98,0-1.47.1-2.28.03-3.43,0-.8-.02-1.66.07-2.45,0-.32-.03-.66.04-.98,0-.9-.1-1.62-.34-2.45-.49-.45-.08-.79-.44-.98-.49-1.01-.24-1.75.45-2.94-.49-.17-.14-.44-.24-.49-.49-1.26.2-2.04-.6-2.94-.98-.29-.12-.42-.46-.49-.49-.78-.35-1.25-.32-2.45-.98-.3-.17-.61-.26-.98-.49-.75-.46-1.29-.92-1.96-1.47-1.12-.92-.81-.75-1.47-1.47-.89-.96-1.6-1.98-2.45-2.94-.3-.34-.37-.84-.49-.98-.7-.8-1.58-1.36-2.45-2.45-.5-.63-.75-1.18-.98-1.47-.59-.74-1.62-1.26-2.45-2.45-.77-1.11-.98-2.11-1.47-2.94-.75-1.27-1.27-1.99-1.96-3.43-.63-1.32-.94-2.15-1.47-3.43-.81-1.93-1.84-3.88-2.45-5.88ZM127.19,216.58c31.95-1.84,50.62,40.54,30.44,64.72-17.13,20.53-47.54,11.15-57.69-11.32-10.07-22.3.72-51.88,27.25-53.4ZM62.43,237.49c4.64-10.96,14.64-4.86,18.36,3.17,3.09,6.68,1.5,14.21,3.42,21.31l-6.37.98c-.26-2.16.36-5.05,0-7.1-.89-5.03-10.49-9.28-13.71-4.41-1.26,1.9-.81,4.32-1.75,6.09-.53,1-2.34,2.19-2.9,3.46.23-7.58-.1-16.3,2.95-23.49ZM75.15,262.44c-.24-.39-.91-.33-1.12-.6-.32-.41-.28-1.52-.86-2.31-2.18-2.94-4.34-3.96-8.06-3.44-1.3-8,9.92-4.93,10.75.27.16,1,.32,6.02-.7,6.08ZM70.5,375.57c.12,1.1-.12,2.33,0,3.43.11,1.02.36,2.3.49,3.43.13,1.11.35,2.28.49,3.43.14,1.14.34,2.28.49,3.43.1.78-.11,1.67,0,2.45.16,1.2.74,2.85.98,4.41.14.9-.15,2.05,0,2.94.13.79.78,1.87.98,2.94.11.59-.11,1.38,0,1.96.19.94.73,2.3.98,3.43.22,1,.29,2.07.49,2.94.16.69.7,1.78.98,2.94.16.65.34,1.29.49,1.96.25,1.08.87,2.26.98,3.43.05.5.09,1.53,0,1.96,1.03.9,1.13,2.22,1.47,3.43.2.73.25,1.62.49,2.45.27.96.7,1.89.98,2.94.18.65.32,1.31.49,1.96.37,1.44,1.15,2.83.98,4.41-1.45.23-2.96.3-4.41.49-.16.02-.33-.02-.49,0-2.24.26-4.05.51-6.36.49-.48,0-.99.04-1.47,0-1.45-.12-1.77.14-2.94-.98-.37-.36-.33-.7-.49-.98-.74-1.27-.58-1.18-.98-2.45-.36-1.15-.29-1.55-.49-2.45-.37-1.72-.69-3.13-.98-4.9-.08-.46.07-1.01,0-1.47-.17-1.08-.8-2.66-.98-3.92-.15-1.06.14-2.36,0-3.43-.14-1.05-.35-2.26-.49-3.43-.06-.46-.4-1.14-.49-1.96-.18-1.62-.33-3.28-.49-4.9-.08-.8.07-1.64,0-2.45-.08-.92-.39-2.11-.49-3.43-.1-1.34-.4-2.82-.49-4.41-.09-1.46.08-2.95,0-4.41-.05-.97.05-1.96,0-2.94-.09-1.72-.41-3.4-.49-4.9-.09-1.62.08-3.28,0-4.9-.05-.97.05-1.96,0-2.94-.06-1.27-.42-2.49-.49-3.92-.06-1.3.06-2.62,0-3.92-.05-.97.05-1.96,0-2.94-.05-1.1-.42-2.85-.49-4.41-.06-1.3.06-2.62,0-3.92-.05-1.21-.42-2.83-.49-4.41-.05-1.3.05-2.62,0-3.92-.05-1.14.05-2.29,0-3.43-.03-.81.03-1.63,0-2.45-.06-1.45-.42-3.53-.49-5.39-.04-1.14.04-2.29,0-3.43-.06-1.75-.44-3.37-.49-4.9-.03-.81.02-1.63,0-2.45-.05-1.63.05-3.27,0-4.9-.02-.59-.47-1.36-.49-1.96-.05-1.95.03-3.92,0-5.88-.05-3.9-.09-7.86,0-11.75.05-1.94.42-3.87.49-5.39.07-1.46-.09-2.95,0-4.41.12-2.02-.39-3.51.49-5.39.04-1.14-.06-2.29,0-3.43.11-2.24.29-4.62.49-6.86.14-1.65.26-3.26.49-4.9.51-3.65,1.48-8.39,3.92-11.26.56-.66,1.54-1.7,2.35-1.89.69-.16,1.02.42,1.08.42.64-.08,1.42-.48,1.96-.49.96-.02.86.16,1.47.49.77.42,3.23,2.53,2.45,3.42-.12.13-2.85.58-3.43.98-2.08,4.89-4.26,5.58-4.9,12.24-.18,1.85.05,3.97,0,5.88-.02.83-.49,1.78-.49,2.94,0,1.59.45,3.13.49,4.9.02.98-.04,1.96,0,2.94.07,1.58.46,3.06.49,4.41.02,1.01-.17,1.99-.49,2.94.9,1.13.48,3.36.49,4.9,0,1.47-.03,2.94,0,4.41.03,1.3-.06,2.62,0,3.92.06,1.31.43,2.4.49,3.43.07,1.29-.1,2.63,0,3.92.08,1.03.39,2.19.49,3.43.11,1.33.37,2.59.49,3.92.09.93-.12,1.72,0,2.94.04.46.39,1.43.49,2.45.13,1.31.36,2.59.49,3.92.14,1.48.35,2.95.49,4.41.08.8-.08,1.65,0,2.45.11,1.2.36,2.56.49,3.92.06.61.39,1.48.49,2.45.15,1.48.34,2.94.49,4.41.1.95-.1,1.98,0,2.94.15,1.47.33,2.93.49,4.41.13,1.26-.13,2.66,0,3.92.08.76.37,1.84.49,2.94.11,1,.38,1.94.49,2.94.16,1.47.33,2.94.49,4.41ZM200.24,413.27c.43-1.11,2.94-.21,3.91-.48-.43,1.11-2.94.21-3.91.48ZM249.92,398.58c-1.05.26-.63.07-.49-.48,5.12-19.3,4.25-51.68-.94-71.03-.43-1.59-2.65-8.37-3.48-9.26-1.75-1.88-1.57,1.66-1.7,1.94.98.75,1.12,1.87,1.47,2.94.12.37-.12,1.09,0,1.47.27.87,1.08,1.92,1.47,3.43.14.54-.13,1.41,0,1.96.25,1.03.68,2.03.98,3.43.25,1.15.3,1.97.49,2.94.19.96.78,2.24.98,3.43.1.6-.09,1.35,0,1.96.2,1.31.79,2.87.98,4.41.11.93-.1,1.99,0,2.94.13,1.27.38,2.46.49,3.92.06.81-.05,1.64,0,2.45.08,1.38.43,3.1.49,4.9.04,1.3,0,2.62,0,3.92.01,1.46.03,2.94,0,4.41-.02,1.3.05,2.62,0,3.92-.08,2.01-.35,3.89-.49,5.88-.13,1.81-.3,3.59-.49,5.39-.36,3.39-1.07,13.26-2.54,15.83-.93,1.62-4.18,1.74-5.79,2.29-.49.17-.97.33-1.47.49-.98.32-1.94.66-2.94.98-.49.16-.97.33-1.47.49-1.08.34-1.84.31-2.45.49-.2.06-.53.36-.98.49-1.18.34-2.68,1.14-3.92,1.47-.28.08-.7-.07-.98,0-1.14.3-2.27.69-3.43.98-.15.04-.34-.04-.49,0-1.16.28-2.05.29-2.94.49-.32.07-.68.42-.98.49-1,.21-1.98.3-2.94.49-.41.08-.9.38-1.47.49-.97.18-1.96.32-2.94.49-.31.05-.67-.05-.98,0-.99.16-1.93.34-2.94.49-.16.02-.33-.02-.49,0-1.07.15-2.24.35-3.43.49-.35.04-.89.43-1.47.49-.8.09-1.65-.08-2.45,0-.16.02-.33-.01-.49,0-.9.08-2.09.39-3.43.49-.32.02-.66-.02-.98,0-.81.05-1.64-.04-2.45,0-.49.02-.98-.02-1.47,0-2.04.08-4.07.47-6.36.49-.49,0-.98,0-1.47,0-3.29,0-6.06-.21-9.3-.49-.48-.04-.99.05-1.47,0-.64-.07-1.31-.4-1.96-.49-.47-.06-1.01.07-1.47,0-.8-.12-1.63-.34-2.45-.49-.16-.03-.33.03-.49,0-1.21-.22-2.4-.74-3.43-.98-.47-.11-.82-.45-.98-.49-1.55-.37-3.03-.48-4.9-.98-.59-.16-1.05-.37-1.47-.49-.57-.16-1.02-.36-1.47-.49-.52-.15-.99-.34-1.47-.49-.55-.17-1.17-.24-1.96-.49-.51-.16-.98-.33-1.47-.49-1.99-.66-3.89-1.23-5.88-1.96-.18-.07-.34-.43-.49-.49-.49-.18-1.21-.19-1.96-.49-.14-.06-.35.06-.49,0-.97-.39-1.82-1.2-2.45-1.47-.36-.15-.87-.23-1.47-.49-.78-.34-1.54-.56-2.45-.98-.13-.06-.35.06-.49,0-1-.46-1.57-.83-2.45-1.47-.1-.07-.63.14-.87-.11-.25-.26-.03-.69-.11-.87-.51-1.26-.78-2.59-.98-3.92-.14-.9.12-2.02,0-2.94-.12-.92-.36-1.82-.49-2.94-.11-.94-.38-1.86-.49-2.94-.14-1.44-.39-3.07-.49-4.41-.1-1.29.08-2.62,0-3.92-.08-1.39-.44-2.82-.49-3.92-.03-.81.02-1.63,0-2.45-.04-1.46,0-2.94,0-4.41-.01-1.63-.02-3.27,0-4.9.02-1.79-.08-3.6,0-5.39.05-1.22.38-2.56.49-3.92.16-2.02-.42-3.48.49-5.39-.21-2,.3-3.92.49-5.88.24-2.45.11-3.96.98-6.37-.1-2.18.46-4.29.98-6.37.24-.97.42-1.98.73-2.94.37-1.14,2.73-2.73-.24-2.45-2.35,4.53-2.84,5.8-3.76,11.17-2.21,12.86-2.72,28.44-2.13,41.49.34,7.42,1.84,14.85,2.23,22.26-11.75-6.57-23.05-14.18-32.82-23.49-10.2-9.72-20.74-24.24-25.06-37.61-.19-.58-1.02-.52-1.11-.94-1.14-5.12-.8-11.79-1.96-17.05l-.93-28.1c9.71-2.52,19.46-4.61,29.51-5.32,3.37,3.81,7,7.37,11.21,10.28,8.77,6.05,19.54,12.71,29.24,17.03.73.33,1.64.64,2.45.98.14.06.35-.06.49,0,.94.39,2.1,1.15,2.94,1.47.14.05.35-.05.49,0,.72.27,1.44.8,1.96.98.25.09.72-.09.98,0,.82.28,1.62.71,2.45.98.15.05.34-.05.49,0,.91.29,1.73.77,2.45.98.27.08.7-.08.98,0,.82.23,1.8.81,2.45.98.28.07.69-.07.98,0,.93.23,2.12.79,2.94.98.15.04.33-.04.49,0,.66.15,1.33.36,1.96.49.3.06.68-.06.98,0,1.81.37,4.32,1.22,5.88,1.47.6.1,1.35-.09,1.96,0,.76.12,1.47.42,1.96.49.32.04.66-.04.98,0,.94.12,1.91.43,2.45.49.32.04.66-.03.98,0,.8.09,1.65-.08,2.45,0,.48.05.99-.04,1.47,0,.63.06,1.33.44,1.96.49.48.04.99-.05,1.47,0,.8.08,1.65-.1,2.45,0,.31.04.77-.08.98,0,.72.28,1.44,2.61,1.96,3.43.3.47.34,1.26.49,1.47.82,1.16,3.6,3.08,4.9,3.92.15-.02.34,0,.49,0,.59.03,1.4.52,1.96.49.1,0,1.75-.42,1.96-.49.6-.21,1.83-1.06,2.45-1.47.69-.45,1.26-1.04,1.96-1.47.35-.67.55-.91.98-1.47.61-.95,1.84-4.8,2.44-5.15.95-.56,2.4-.09,3.44-.24.87-.12,1.66-.38,2.45-.49.31-.04.67.05.98,0,1-.15,1.95-.32,2.94-.49.31-.05.67.05.98,0,.78-.14,1.63-.34,2.45-.49.49-.09,1.22-.34,1.96-.49.82-.16,1.63-.31,2.45-.49.16-.03.33.04.49,0,1.01-.23,2.31-.7,3.43-.98.64-.16,1.32-.32,1.96-.49.82-.21,1.72-.29,2.45-.49.48-.13.97-.34,1.47-.49.91-.27,1.98-.67,2.94-.98.49-.16.98-.33,1.47-.49.96-.32,1.99-.64,2.94-.98.14-.05.35.05.49,0,1.04-.38,2.32-1.03,3.43-1.47,19.2-7.66,37.07-19.41,49.8-35.79,11.51-1.18,23.21.22,34.39,3.01-.16,5.27.29,10.62.02,15.89-.8,15.31-3.34,23.28-10.51,36.5-11.72,21.59-43.58,60.42-68.08,66.58ZM313.09,362.84v-.49c.32.16.32.33,0,.49ZM336.84,281.06c0,.82,0,1.63,0,2.45,0,1.95,0,3.92,0,5.88,0,1.13-.48,2.12-.49,2.94-.02,1.57.52,3.33.49,4.9-.03,1.38-.44,3.17-.49,4.9-.05,1.52.05,3.04,0,4.41-.05,1.46.07,2.95,0,4.41-.07,1.61-.42,3.23-.49,4.41-.1,1.61.13,3.29,0,4.9-.17,1.98-.79,4.07-.98,5.88-.11,1.02.11,2.13,0,3.17-1.37,12.07-3.5,24.11-5.87,36-.09.93-.35,1.62-.49,2.45-.46,2.73-1.34,5.65-1.96,8.32-.97,4.16-2.29,8.21-3.43,12.24-.14.5-.45.85-.49.98-.04.15.04.34,0,.49-.18.63-.47.93-.49.98-.04.15.04.34,0,.49-1.14,3.88-2.16,7.85-3.43,11.75-5.1,15.72-11.88,30.22-17.14,45.54-1.1,3.22-2.03,6.51-2.94,9.79-.36,1.31-1.28,6.68-1.94,7.12-1.78,1.17-3.8-.54-4.92-.75-.45-.08-1.03.09-1.47,0-.78-.15-1.68-.32-2.45-.49-.68-.15-1.06-.38-1.47-.49-.68-.18-1.17.33-1.96-.49-.99-1.04-.29-3.06,0-4.41,1.51-7.13,7.28-18.11,10.42-25.1.33-.73.07-1.6,1.33-1.34.65-1.73,1.23-4.33,1.96-6.37,2.68-7.52,5.1-16.59,8.32-23.5l2.45-10.28c.97-2.89,1.43-5.94,2.45-8.81.43-3.14,1.25-6.23,1.96-9.3.7-3.04,1.31-6.97,2.45-9.79.53-3.87,1.9-7.53,2.94-11.26,1.37-4.95,2.51-9.93,4.41-14.69.25-3.23,1.69-6.21,2.45-9.3.83-3.36,1.13-7.67,2.45-10.77-.18-1.67.22-3.28.49-4.9.43-2.61.7-4.72.98-7.35.18-1.64.36-3.24.49-4.9.14-1.79.38-3.64.49-5.39.07-1.13-.06-2.29,0-3.43.1-1.78-.13-3.61,0-5.39.09-1.3.1-2.14.49-3.43-.93-1.31-.44-3.67-.49-5.39-.03-1.14.05-2.29,0-3.43-.05-1.25-.39-2.91-.49-4.41-.07-.97.07-1.97,0-2.94-.26-3.66-1.39-7.77-1.47-11.26-.01-.44-.08-1.1,0-1.47-.63-1.19-.7-2.62-.98-3.92-.17-.81-.31-1.65-.49-2.45-.26-1.15-2.05-6.31-1.47-6.86.12-.11,2.01.11,3.14-.54,1.11-.63,1.52-2.39,2.99-2.88.49-.02.14.7.24.98.45,1.22.28,1.63.49,2.45.28,1.12.7,2.08.98,3.43.17.82.34,1.62.49,2.45.24,1.3.29,2.63.49,3.92.15.98.35,1.91.49,2.94.16,1.19.38,2.13.49,3.43.03.32-.06.69,0,.98.23.06.45.26.49.49.08.44-.04.99,0,1.47.12,1.38.39,2.63.49,3.92.09,1.13-.07,2.3,0,3.43.09,1.35.44,2.57.49,3.92.04,1.14-.03,2.29,0,3.43.05,1.95-.02,3.92,0,5.88ZM324.96,222.87c6.88-1.25,8.31,17.03,1.35,17.03-5.73,0-7.76-15.87-1.35-17.03ZM337.81,258.54l-2.19-12.74c-2.04-5.59-1.87-13.16-3.54-18.5-2.8-8.95-12.07-7.72-12.89,1.59-.65,7.35,2.41,8.11,4.44,13.71.48,1.31,2.77,10.56,2.42,11.04l-18.6-2.45c2.78-9.02,3.67-18.77,6.84-27.68,5.82-16.4,13.98-10.11,18.63,2.46,3.73,10.07,5.13,21.87,4.88,32.57Z"/>
      <path class="cls-1" d="M.97,39.65h-.97s0-1.47,0-1.47c.71.16,1.12.79.97,1.47Z"/>
      <path class="cls-1" d="M231.58,316.81l-40.15,94.51c-2.04.08-4.07.47-6.36.49l10.37-24.15c8.43-19.65,16.91-39.36,25.14-59.09,1.09-2.61,3.07-5.73,3.93-8.31.31-.94.69-1.71-.76-1.49,1.01-.23,2.31-.7,3.43-.98l-39.65,92.81,1.21.73,40.39-94.03c.82-.21,1.72-.29,2.45-.49Z"/>
      <path class="cls-1" d="M223.25,318.77l-39.66,93.04c-3.29,0-6.06-.21-9.3-.49l38.19-90.59c1-.15,1.95-.32,2.94-.49l-38.43,91.08,39.41-91.08c.78-.14,1.63-.34,2.45-.49-.52,1.79-1.01,3.65-1.72,5.38-10.21,24.65-22.01,48.89-32.31,73.46-1.38,3.29-3.7,8.79-4.6,12.05-.25.92.23.72.92.68l39.66-92.06c.82-.16,1.63-.31,2.45-.49Z"/>
      <path class="cls-1" d="M196.33,137.59l-1.47,95c-.82.14-1.55.4-2.45.49l.25-95-1.23,95c-1.47.1-2.28.03-3.43,0,.62.83.89-.06.98-.73,1.55-12.36.29-27,.47-39.69.02-1.16.51-2.23.53-3.39.25-17.06.07-34.14.47-51.19l-1.47.29-.97,94.71c-.8-.02-1.66.07-2.45,0l.98-95c3.28-.2,6.49-.43,9.79-.49Z"/>
      <path class="cls-1" d="M209.54,138.08l.24,6.86c.97.02.74-5.93.73-6.86,1.91.15,3.45.25,5.39.49.04,1.55-.07,3.11,0,4.66.03.66-.41,2.04.73,1.71.46-.13.46-5.53-.24-6.37,2.55.33,4.63,1.06,6.85,1.47-.92,1.65-.69,4.59,0,6.37-1.05-.22-2.66-.87-3.43-.98,1.48.27.94-.75.98-1.69.04-1.13.06-2.34,0-3.47-.05-1.01-.28-.89-1.23-.72-.56.1-.1,4.99-.25,5.88-1.69-.22-4.17-.45-5.88-.49.54-1.52.56-3.06.49-4.66-.02-.59.36-2.13-.73-1.71-.82.32-.8,5.33-.74,6.37-1.16.06-2.47-.13-3.42.74-1.29,1.18.39,1.46.48,1.71.23.63.06,5.02.02,6.14-.49,13.59-.87,27.5-1.02,41.09-.12,10.86.13,21.73.02,32.58-.85.54-1.34.64-1.96.98l.49-89.37-.98-.72-.98,91.08c-1.08.54-1.59.62-2.45.98l.98-92.55c2.14.06,3.9.35,5.88.49Z"/>
      <path class="cls-1" d="M175.27,139.06l-.98,90.59c-.78-.35-1.25-.32-2.45-.98l1.47-89.12c-1.36-.2-.92.23-.98,1.21-1.71,27.35.5,55.63-.96,82.78-.08,1.55-.75,3.04-.51,4.63-.75-.46-1.29-.92-1.96-1.47l.98-86.67c-.6-.8-.89,0-.98.72-.29,2.24.13,5.03.02,7.37-.35,7.25-.88,14.75-1.02,22-.35,18.37.56,36.82-.47,55.11-.89-.96-1.6-1.98-2.45-2.94l.98-82.27c3.07-.44,6.22-.64,9.3-.98Z"/>
      <path class="cls-1" d="M202.69,410.83c-.8.09-1.65-.08-2.45,0,.5-2.59,1.8-5.24,2.85-7.68,4.58-10.65,9.38-20.51,13.31-31.5,4.13-8.85,7.81-17.42,11.26-26.44,3.18-5.82,5.48-11.87,7.83-18.12,1.9-3.73,3.48-7.42,5.13-11.27.22-.51,1.26-1.64.25-1.95,1.04-.38,2.32-1.03,3.43-1.47l-41.62,98.43Z"/>
      <path class="cls-1" d="M240.39,313.87c-1.76,4.35-3.24,8.83-4.9,13.22-3.09,6.07-5.36,11.65-7.83,18.12-4.78,8.76-7.95,17.19-11.26,26.44-5.67,12.16-11.2,24.55-16.58,37.03-.27.63-1.06,1.68-.06,2.14-.9.08-2.09.4-3.43.49l41.13-96.47c.96-.32,1.99-.64,2.94-.98Z"/>
      <path class="cls-1" d="M235.98,315.34l-40.64,95.98c-.81.05-1.64-.04-2.45,0l40.15-95c.91-.27,1.98-.67,2.94-.98Z"/>
      <path class="cls-1" d="M246.26,327.58l-35.25,81.78c-.99.16-1.93.34-2.94.49,1.98-5.6,4.26-11.09,6.36-16.65,10.85-22.62,19.75-46.31,30.35-69.04.27.87,1.08,1.92,1.47,3.43Z"/>
      <path class="cls-1" d="M244.8,322.69c-.9.31-1.01,1.1-1.35,1.83-10.37,22.46-20.3,45.67-29.01,68.68-2.14,4.46-4.74,8.96-6.6,13.72-.3.77-1.25,2.29-.26,2.93-1.07.15-2.24.35-3.43.49l38.31-89.75c.04-.44.8-.72.85-.84.98.75,1.12,1.87,1.47,2.94Z"/>
      <path class="cls-1" d="M199.75,137.59l-.98,94.02c-.94.27-1.77.75-2.94.98l.98-95c.98-.01,1.96,0,2.94,0Z"/>
      <path class="cls-1" d="M170.87,321.22l-34.27,79.33c-.78-.34-1.54-.56-2.45-.98l34.76-78.84c.76.11,1.47.42,1.96.49Z"/>
      <path class="cls-1" d="M203.18,137.59l-1.47,93.04c-.58.23-1.17.73-1.96.98l.49-94.02c.98,0,1.96-.02,2.94,0Z"/>
      <path class="cls-1" d="M181.15,322.2c-.97,3.43-2.5,6.77-3.92,10.04-8.96,20.73-20.54,43.68-27.42,64.88-1.26,2.31-3.13,4.64-3.42,7.34,1.34.27.84-.34,1.19-.99,1.29-2.42,1.49-4.04,2.24-6.35,8.04-14.69,13.71-30.53,20.33-46.01,4.12-9.64,9.18-18.9,12.47-28.91.8.08,1.65-.1,2.45,0l-35.74,83.25c-1.99-.66-3.89-1.23-5.88-1.96,1.26.26,1.01-.6,1.33-1.34,6.85-15.56,13.72-31.24,19.72-47.14,1.41-2.54,1.5-3.47,2.45-5.88.09-.22.32-.5.49-.98s.32-.99.49-1.47c.09-.25.34-.57.49-.98.08-.21.33-.54.49-.98,3.62-7.55,7.8-14.95,10.28-23.01.63.06,1.33.44,1.96.49Z"/>
      <path class="cls-1" d="M177.72,321.71c-2.94,6.98-5.95,13.94-8.6,21.05-.26.69-.07,1.57-.21,1.97-.15.32-.33.65-.49.98s-.33.65-.49.98c-.33.67-.36,1.21-.49,1.47-.16.33-.33.63-.49.98-1.08,2.36-1.55,3.5-2.45,5.88-1.34,2.42-2.79,4.86-4,7.51-6.13,13.34-11.15,27.26-17.54,40.48-.49-.18-1.21-.19-1.96-.49,8.72-23.25,20.62-45.15,28.89-68.55.7-1.24.58-1.17.98-2.45.06-.2.35-.56.49-.98,1.32-2.88,3.31-5.66,3.92-8.81.8.09,1.65-.08,2.45,0Z"/>
      <path class="cls-1" d="M174.29,321.71c-.27,2.42-1.88,4.64-2.71,6.86-.28.74-.09,1.56-.23,1.95-.15.32-.33.65-.49.98-.52,1.09-.58,1.33-.98,2.45-3.47,6.12-6.34,12.49-9.17,18.98-6.34,14.5-14.87,32.1-19.82,46.78-.32.96-.53,1.78-.38,2.8-.97-.39-1.82-1.2-2.45-1.47l33.78-79.82c.94.12,1.91.43,2.45.49Z"/>
      <path class="cls-1" d="M188,325.62c-1.45-.3-.86.73-1.11,1.56-.6,1.96-1.29,3.8-1.83,5.79-.78,1.29-.58,1.23-.98,2.45-4.13,5.29-10.17,21.43-13.31,28.56-5.08,11.55-10.27,23.15-15.17,34.77-1.06,2.51-2.02,5.08-2.85,7.68-.55-.17-1.17-.24-1.96-.49l35.25-83.73c.72.28,1.44,2.61,1.96,3.43Z"/>
      <path class="cls-1" d="M193.39,331.01c-2.16.32-2.39,4.01-3.19,5.87-4.21,9.74-8.61,19.42-13.05,29.06l-17.78,42.45,34.51-77.37c.59.03,1.4.51,1.96.49l-33.78,77.37c-1.55-.37-3.03-.48-4.9-.98l33.29-78.84-34.76,78.35c-.57-.16-1.02-.36-1.47-.49-.19-1.02.22-1.74.56-2.62,8.74-23.08,21.6-45.58,29.31-68.87,1.2-1.54.57-.95.98-2.45.07-.12.64-.32.91-.78.96-1.59.75-4.07,2.51-5.1.82,1.16,3.6,3.08,4.9,3.92Z"/>
      <path class="cls-1" d="M179.19,138.57l-1.47,92.55c-1.26.2-2.04-.6-2.94-.98,1.48.27.94-.75.98-1.69.96-24.34.14-49.63.61-73.95.1-5.08.69-10.29.37-15.43.63-.07,1.45-.4,2.45-.49Z"/>
      <path class="cls-1" d="M185.55,138.08l-.98,95c-.9-.1-1.62-.34-2.45-.49l.98-94.02c-.6-.8-.89,0-.98.72-.58,4.57.14,10.86.02,15.7-.03,1.16-.51,2.23-.53,3.39-.47,24.55.06,49.17-.47,73.72-1.01-.24-1.75.45-2.94-.49,1.48.27.94-.75.98-1.69,1.15-29.08-1.05-59.33.47-88.18.06-1.09.42-2.09.51-3.16,1.81-.16,3.56-.37,5.39-.49Z"/>
      <path class="cls-1" d="M247.24,332.97l-32.31,75.9c-.97.18-1.96.32-2.94.49l34.27-79.82c.25,1.03.68,2.03.98,3.43Z"/>
      <path class="cls-1" d="M211.5,320.73l-38.68,90.59c-.64-.07-1.31-.4-1.96-.49l38.19-89.61c.87-.12,1.66-.38,2.45-.49Z"/>
      <path class="cls-1" d="M169.4,410.83c-.8-.12-1.63-.34-2.45-.49,11.07-25.56,22-51.17,33.3-76.63.74-1.68,1.12-4.04,1.95-5.64.35-.67.55-.91.98-1.47,1.12-1.46,2.97-2.65,3.68-4.89-.32,1.4-.63,2.9-1.13,4.25-10.3,27.58-25.25,54.69-35.77,82.24-.34.89-.74,1.6-.56,2.62Z"/>
      <path class="cls-1" d="M166.95,320.73l-33.29,78.84c-1-.46-1.57-.83-2.45-1.47l33.78-77.86c-.85-.9-2.35,2.73-2.53,3.1-4.74,9.5-8.41,20.18-12.64,29.96-6.36,14.66-12.87,29.37-19.58,43.83-.51-1.26-.78-2.59-.98-3.92l31.82-73.94c1.81.37,4.32,1.22,5.88,1.47Z"/>
      <path class="cls-1" d="M329.01,365.29c-.09.93-.35,1.62-.49,2.45l-34.27,78.35c-.51.11-2.03,1.08-2.45,1.47l36.73-86.67c1.17.39.05,2.66.02,3.63-.01.37.47.7.47.77Z"/>
      <path class="cls-1" d="M166.46,410.34c-1.21-.22-2.4-.74-3.43-.98l34.76-78.35c.6-.21,1.83-1.06,2.45-1.47-9.03,20.96-17.79,42.06-26.84,63.01-2.07,4.78-5.53,10.75-7.06,15.49-.29.9-.56,1.43.12,2.29Z"/>
      <path class="cls-1" d="M248.71,339.34c-1.29-.29-.93.68-1.24,1.43-8.88,21.6-19.21,42.69-27.58,64.51-.34.89-.74,1.6-.56,2.62-1,.21-1.98.3-2.94.49l31.33-72.47c.19.96.78,2.24.98,3.43Z"/>
      <path class="cls-1" d="M215.91,147.38l-.49,74.43c-1.06,1.06-1.62,1.25-2.45,1.96l.49-76.88c.9.02,1.69.43,2.45.49Z"/>
      <path class="cls-1" d="M164.99,140.53l-.49,80.8c-.7-.8-1.58-1.36-2.45-2.45l.98-77.86c-.6-.8-.89,0-.98.72-.37,2.94.14,6.73.02,9.82-.67,17.21-.58,34.65-1.02,51.87-.12,4.65.13,9.33.02,13.98-.59-.74-1.62-1.26-2.45-2.45l1.48-73.2c.03-.47-1.02-.21-1.48-.25,1.72-.93,4.41-.69,6.36-.98Z"/>
      <path class="cls-1" d="M160.1,319.26l-30.84,71c-.12-.92-.36-1.82-.49-2.94l29.38-68.55c.66.15,1.33.36,1.96.49Z"/>
      <path class="cls-1" d="M212.48,146.89l-.49,77.86c-.84.66-1.45,1.29-2.45,1.96l.98-79.33c.64-.09,1.37-.46,1.96-.49Z"/>
      <path class="cls-1" d="M306.48,402.5c4.33-9.29,8.72-18.68,12.81-28.07,3.86-8.85,7.33-17.92,11.18-26.77.84-.12.52,1.16.48,1.7-.38,4.88-1.86,6.17-3.51,10.21-8.8,21.6-18.11,44.02-27.9,65.16-.34.72-.26,1.52-1.39,1.28,2.68-7.52,5.1-16.59,8.32-23.5Z"/>
      <path class="cls-1" d="M157.65,318.77l-29.38,65.62c-.14-1.44-.39-3.07-.49-4.41l26.93-62.19c.93.23,2.12.79,2.94.98Z"/>
      <path class="cls-1" d="M326.56,376.06c-.97,4.16-2.29,8.21-3.43,12.24l-.48-.49v1.47c-.05.15.04.34,0,.49l-.49.98c-.04.15.04.34,0,.49l-24.97,55.33c-.05-.06-1.33-.47-1.47-.49l30.84-70.02Z"/>
      <path class="cls-1" d="M151.77,170.4l.98-10.53c-1.24-3.01,0-6.01.04-8.81.04-2.6-2.32-7.88,2.4-7.59l-1.47,61.7c-.81-1.93-1.84-3.88-2.45-5.88l1-9.04c.35-5.48-.33-11.12-.51-16.42-.04-1.14.05-2.29,0-3.43Z"/>
      <path class="cls-1" d="M249.69,348.64c.13,1.27.38,2.46.49,3.92l-23.01,53.37c-1.14.3-2.27.69-3.43.98l25.95-58.27Z"/>
      <path class="cls-1" d="M249.69,345.7l-26.44,61.21c-1.16.28-2.05.29-2.94.49l28.4-66.11c.2,1.31.79,2.87.98,4.41Z"/>
      <path class="cls-1" d="M219.83,147.87c-1.25,4.55-.42,9.28-.47,13.98-.19,17.76-1.2,35.52-1.01,53.36,0,.83-.31,2.18.5,2.69-.69,1.07-1.46,1.35-1.96,1.96l.49-72.47c1.08.13,1.68.36,2.45.49Z"/>
      <path class="cls-1" d="M157.16,212.02c-.75-1.27-1.27-1.99-1.96-3.43.56-.82.48-1.74.51-2.67.32-9.22.38-18.74.49-27.92.12-10.04-1.28-24.47-.05-33.83.18-1.36.8-1.68,1.5-2.67.16-.01.33,0,.49,0l-.98,70.51Z"/>
      <path class="cls-1" d="M222.76,148.36l-.49,63.66c-.52,1.12-1.18,3.67-2.45,3.43.27-2.52-.13-5.49-.02-8.1.64-15.57.55-31.71,1.02-47.46.12-4-.13-8.02-.02-12.02.66.12,1.3.34,1.96.49Z"/>
      <path class="cls-1" d="M114.07,192.92c-2.61.3-3.22.48-5.88,0v-29.87c1.09-1.05,1.65-1.28,2.45-1.96l-.51,28.17c.38.87-.17,3.98,1.49,3.65l.49-33.3c.66-.51,1.27-.99,1.96-1.47v34.77Z"/>
      <path class="cls-1" d="M153.73,317.79l-25.95,58.27c-.08-1.39-.44-2.82-.49-3.92l23.99-55.33c.82.23,1.8.81,2.45.98Z"/>
      <path class="cls-1" d="M226.19,149.34v49.46c-.62,3.58-1.29,5.94-2.45,9.3l.49-59.25c.65.18,1.25.28,1.96.49Z"/>
      <path class="cls-1" d="M150.3,316.81l-23.01,52.89c-.04-1.46,0-2.94,0-4.41l19.81-45.56c.25-1.29,1.71-2.59.75-3.9.91.29,1.73.77,2.45.98Z"/>
      <path class="cls-1" d="M250.67,359.9c-1.07.71-1.52,2.41-2.04,3.59-5.65,12.78-11.53,25.83-16.44,38.9-.2.54-1,1.75-.12,2.08-1.18.34-2.68,1.14-3.92,1.47l22.03-50.93c.08,1.38.43,3.1.49,4.9Z"/>
      <path class="cls-1" d="M318.72,402.99c-5.1,15.72-11.88,30.22-17.14,45.54l-.73-.98c-.87,1.29-1.08,3.26-1.73,4.54-.28.55-.94.31-.97.36-.14-1.05.2-2.46,0-3.43,3.92-8.29,6.89-17.05,10.53-25.46,2.47-5.71,5.17-11.53,7.72-17.25.35-.78,1.27-3.46,2.31-3.32Z"/>
      <path class="cls-1" d="M308.93,392.22c.97-2.89,1.43-5.94,2.45-8.81,4.66-13.16,12.3-27.59,17.86-40.65,1.36-3.18,2.36-6.58,3.68-9.78.87-.11.47,1.1.42,1.65-.81,8.55-8.83,22.8-12.42,31.17-3.1,7.23-5.81,14.67-8.98,21.87-.59,1.33-1.49,4.38-3.02,4.57Z"/>
      <path class="cls-1" d="M335.86,320.24c-.17,1.98-.79,4.07-.98,5.88l-21.54,47.99c.7-3.04,1.31-6.97,2.45-9.79,5.3-13.19,11.92-28.41,18.04-41.46.35-.74,1-2.85,2.04-2.62Z"/>
      <path class="cls-1" d="M147.37,315.83c-6.21,14.41-12.02,29.07-18.68,43.28-.34.72-.26,1.52-1.39,1.28.02-1.79-.08-3.6,0-5.39,1.13.25,1.05-.56,1.39-1.28,5.36-11.43,11.1-24.54,15.64-36.3.32-.84.6-1.67.6-2.58.82.28,1.62.71,2.45.98Z"/>
      <path class="cls-1" d="M140.02,145.91c2.96.64.98,4.34.98,6.12v39.42h1.47c.51-.48-.74-11.14.49-12.73.59,1.76,2.39,3.56,4.41,3.43-.42,1.53.36,6.53.49,8.59.06.94-.52,1.96.98,1.69-.31.8-.48.45-1.1.37-4.21-.5-8.37-1.53-12.61-1.84.1-2.36-.14-4.76-.02-7.12.03-.64.51-1.27.51-1.45v-29.38c0-1.09,1.43-3.91,0-5.14.56-.2,1.21-.72,1.96-.98,1.08,1.94,1.06,3.97,1,6.15-.3,10.39-1.11,20.92-1.51,31.29-.03.86-.13,6.56.27,6.63.94.17,1.18.29,1.22-.73.44-10.96.37-21.85.47-32.84.03-2.89.52-6.02.27-9.07-.06-.79-.13-1.73-1.23-1.44.53-.18,1.2-.73,1.96-.98ZM145.41,182.15h-.98v9.79h.98v-9.79Z"/>
      <path class="cls-1" d="M134.15,190.96c-.65-.04-1.31.01-1.96,0-.12-11.81.03-23.62.31-35.42.01-.6-.37-1.32-.34-2.04.03-1.05,1.52-4.45-.45-4.17,1.14-.46,2.26-1.03,3.43-1.47l-.98,43.09Z"/>
      <path class="cls-1" d="M230.11,150.81l-.49,21.55c-.54,1.77-.16,3.21.49,4.9-1.48-.27-.95.75-.98,1.69-.13,4,.08,8.02,0,12.02h-1.96c.48-10.45.77-23.36.51-34.05-.05-2.2-.59-5.36-1-7.57,1.35.42,2.34,1.08,3.43,1.47Z"/>
      <path class="cls-1" d="M249.69,301.14c-1.01,2.58-2.63,5.03-2.94,7.83-1.34.56-2.58.96-3.92,1.47l2.93-7.34-2.18,3.93-.75,3.41c-1.34.51-2.55.99-3.92,1.47.69-3.15,3.5-6.75,4.31-9.64.2-.72.37-1.32-.63-1.12l-5.15,11.26c-.73.24-1.48.67-2.45.98l4.9-13.22c3.66.67,6.01.99,9.79.98Z"/>
      <path class="cls-1" d="M336.35,310.93c-.07,1.61-.42,3.23-.49,4.41-5.67,11.94-10.39,24.35-15.75,36.43-.32.73-.27,1.52-1.39,1.28,1.37-4.95,2.51-9.93,4.41-14.69,3.45-8.66,8.03-17.51,11.89-26.08.33-.73.07-1.6,1.33-1.34Z"/>
      <path class="cls-1" d="M250.67,363.82c.01,1.46.03,2.94,0,4.41l-15.18,35.26c-1.08.34-1.84.31-2.45.49l17.63-40.15Z"/>
      <path class="cls-1" d="M130.72,190.96c-.65,0-1.31-.02-1.96,0,.09-5.95-.12-11.93-.02-17.89.11-6.81.74-13.65.51-20.57-.03-.94.5-1.97-.98-1.69.97-.42,1.94-1.06,2.94-1.47l-.49,41.62Z"/>
      <path class="cls-1" d="M120.93,154.24l.49,37.22c-.77.1-1.88.35-2.94.49l.49-36.73c.76-.42,1.32-.64,1.96-.98Z"/>
      <path class="cls-1" d="M127.29,190.96c-1.06.06-1.82.43-2.45.49l1.47-39.66c.35-.16.81-.69,1.47-.98l-.49,40.15Z"/>
      <path class="cls-1" d="M143.94,314.85l-16.16,36.24c.16-2.02-.42-3.48.49-5.39,4.94-10.37,9.47-21.1,13.71-31.83.72.27,1.44.8,1.96.98Z"/>
      <path class="cls-1" d="M247.24,158.64c-.75.68-.89,1.74-.98,2.7-.63,7.2.17,15.64.02,23.03-.04,2.03-1.36,4.2.47,6.1-.95.2-2.31.72-3.43.98l1.47-33.79c.61.3,1.34.38,2.45.98Z"/>
      <path class="cls-1" d="M250.67,372.14c-.08,2.01-.35,3.89-.49,5.88l-10.28,23.99c-.98.32-1.94.66-2.94.98l13.71-30.85Z"/>
      <path class="cls-1" d="M243.82,156.69c-1.48-.27-.94.75-.98,1.69-.43,10.99.32,22.08,0,33.08-.65.16-1.31.31-1.96.49v-36.24c1.27-.14,1.97.49,2.94.98Z"/>
      <path class="cls-1" d="M123.87,191.45c-.64.07-1.32-.08-1.96,0v-37.71c.74-.38,1.5-1.02,2.45-1.47l-.49,39.17Z"/>
      <path class="cls-1" d="M240.88,155.22c-1.43-.03-1.56-.38-1.48,1.23.52,11.15-.36,22.58.01,33.81.03.94-.5,1.97.98,1.69-.86.24-1.99.68-2.94.98-.3-3.47.63-7.46-.49-10.77.85-3.64,1.18-5.59,0-9.3,1.58-6.06,1.2-12.93.49-19.1.79.36,3.11.76,3.43,1.47Z"/>
      <path class="cls-1" d="M117.5,156.2l-.49,36.24c-.66.09-1.3.41-1.96.49l.49-35.75c.83-.53,1.45-.68,1.96-.98Z"/>
      <path class="cls-1" d="M260.46,167.46c-.72,3.15-1.09,6.89-.47,10.02l-.02,11.04c-.82.16-1.63.34-2.45.49-.22-7.4.3-14.88,0-22.28-.03-.66.41-2.04-.73-1.71l-.74,24c-.8.15-1.63.33-2.45.49l.49-26.93c2.33,1.58,4.23,3.07,6.36,4.9Z"/>
      <path class="cls-1" d="M333.9,247.28c.24,1.3.29,2.63.49,3.92-2.15,3.15-3.13,7.19-4.4,10.77l3.51-6.54,1.38-1.29c.16,1.19.38,2.13.49,3.43-2.15,2.17-3.19,5.54-4.17,8.34-.27.78.1,1.74-1.22,1.45-.26-3.66-1.39-7.77-1.47-11.26,1.26.26,1-.61,1.33-1.34.92-2.04,1.72-4.18,2.67-6.2.34-.72.26-1.52,1.39-1.28Z"/>
      <path class="cls-1" d="M249.69,160.11l-.49,29.87c-.57.11-1.25.35-1.96.49l.49-31.83c.76.42,1.36,1.12,1.96,1.47Z"/>
      <path class="cls-1" d="M249.69,383.41c-.36,3.39-1.07,13.26-2.54,15.83-.93,1.62-4.18,1.74-5.79,2.29,1.89-5.21,3.98-10.47,6.28-15.51.39-.85.81-2.82,2.04-2.61Z"/>
      <path class="cls-1" d="M141.49,313.87l-12.73,25.95c.24-2.45.11-3.96.98-6.37,2.16-5.95,5.93-12.33,8.26-18.43.34-.89.74-1.6.56-2.62.94.39,2.1,1.15,2.94,1.47Z"/>
      <path class="cls-1" d="M72.95,399.08c.13.79.78,1.87.98,2.94-1.23.89-1.15,2.23-1.47,3.43-1.39,1.67-2.88,5.1-3.85,7.17-1.66,3.57-2.55,7.81-4.97,10.95-.17-1.08-.81-2.66-.98-3.92l10.28-20.57Z"/>
      <path class="cls-1" d="M74.91,407.4c-1.72,3.39-3.84,6.98-4.41,10.77-1.28.03-1.93.06-2.94.98.74-4.2,3.34-7.81,4.66-11.77.26-.77.11-1.45.24-1.94.37-.45,1.14-.86,1.47-1.47.19.94.73,2.3.98,3.43Z"/>
      <path class="cls-1" d="M72.95,396.14c-1.35-.29-.92.7-1.21,1.46-2.06,5.42-4.95,11.8-7.45,17.06-.39.83-.34,1.64-1.62,1.56-.14-1.05-.35-2.26-.49-3.43l9.79-21.06c.16,1.2.74,2.85.98,4.41Z"/>
      <path class="cls-1" d="M107.22,192.43c-1.41-.41-1.34-.14-2.94-.98,1.64-6.92,1.06-15.06.99-22.29,0-.83.31-2.18-.5-2.69.89-1.18,1.63-1.58,2.45-2.45v28.4Z"/>
      <path class="cls-1" d="M253.61,162.56l-.98,26.93c-.66.13-1.3.36-1.96.49l.49-28.89c.84.52,1.48.82,2.45,1.47Z"/>
      <path class="cls-1" d="M71.48,385.86c.14,1.14.34,2.28.49,3.43l-10.28,21.55c-.18-1.62-.33-3.28-.49-4.9,1.13.24,1.06-.55,1.39-1.28,2.65-5.74,5.01-11.67,7.56-17.46.32-.73.07-1.6,1.33-1.34Z"/>
      <path class="cls-1" d="M70.01,371.17c.16,1.47.33,2.94.49,4.41-1.29-.29-.93.68-1.24,1.43-2.39,5.81-5.02,11.66-7.65,17.37-.33.72-.26,1.52-1.39,1.28-.09-1.46.08-2.95,0-4.41l9.79-20.08Z"/>
      <path class="cls-1" d="M70.5,379c.11,1.02.36,2.3.49,3.43l-9.79,21.06c-.08-.92-.39-2.11-.49-3.43l9.79-21.06Z"/>
      <path class="cls-1" d="M336.35,302.12c-.05,1.52.05,3.04,0,4.41l-10.77,22.53c.83-3.36,1.13-7.67,2.45-10.77,2.03-4.77,4.87-9.93,7.09-14.72.33-.71-.11-1.74,1.23-1.44Z"/>
      <path class="cls-1" d="M68.05,258.05c-2.64,7.18-5.16,14.47-8.09,21.53-.37.89-1.01,3.58-2.19,3.44.11-2.24.29-4.62.49-6.86,1.83-1.89,2.93-5.04,4-7.5,1.41-3.23,2.91-6.73,3.83-10.12.64-.08,1.42-.48,1.96-.49Z"/>
      <path class="cls-1" d="M216.4,298.69c.11,1.05.04,1.89-.28,2.9-1.56,4.93-5.68,10.82-6.96,15.58-.24.91-.53,1.87.87,1.6-.94.15-2.46,1.11-3.66.99-.42.02-.29-.68-.25-.99l8.81-19.35-1.88-.17c-1.15,4.08-3.05,7.85-4.69,11.74-.29.7-.1,1.55-1.26,1.41.01-1.59-.47-3.12-.49-4.9,1.39.3.89-.75,1.2-1.47.68-1.53,2.71-4.75,2.72-6.12,0-.46-1.13-.36-1.5-.03-.16,1.49-2.18,4.23-2.43,5.16l-1.47-5.38c3.73-.42,7.54-.54,11.26-.98Z"/>
      <path class="cls-1" d="M69.03,365.29c.08.76.37,1.84.49,2.94-1.07,1.39-2.02,3.28-2.69,4.9-1.86,4.54-3.72,9.17-5.3,13.82-.27.79-.09,1.6-1.32,1.35-.09-1.72-.41-3.4-.49-4.9l2.38-3.74c2.09-4.19,3.56-8.92,5.53-13.1.34-.72.25-1.52,1.39-1.28Z"/>
      <path class="cls-1" d="M66.58,336.4c.14,1.48.35,2.95.49,4.41-1.17-.2-1.66,2.22-2.04,3.1-1.58,3.65-3.2,7.75-4.9,11.28-.34.72-.23,1.54-1.38,1.29-.05-1.21-.42-2.83-.49-4.41,1.18.19,1.66-2.21,2.04-3.1,1.64-3.75,3.15-7.59,4.89-11.29.34-.72.26-1.52,1.39-1.28Z"/>
      <path class="cls-1" d="M233.05,298.2l-2.38,3.74c-1.27,3.93-3.61,7.81-5.07,11.58-.28.71-.84,1.82.11,2.31-1.07.26-2.24.71-3.43.98,1.5-5,4.39-9.53,5.39-14.69,1.31-1.74,2.43-2.83,3.92-4.41.55.17.94.3,1.47.49Z"/>
      <path class="cls-1" d="M227.66,302.12c-2.91,3.86-4.66,8.81-6.47,13.36-.37.93-.95,1.5.59,1.33-1.34.3-2.34.27-3.43.49l6.9-16.36,2.89-1.27c-.11.82-.33,1.63-.49,2.45Z"/>
      <path class="cls-1" d="M67.07,343.25c.11,1.2.36,2.56.49,3.92l-8.32,17.63c-.05-1.1-.42-2.85-.49-4.41,1.35.29.92-.7,1.21-1.46,1.84-4.76,3.73-9.67,5.78-14.34.32-.74.07-1.6,1.33-1.34Z"/>
      <path class="cls-1" d="M103.79,190.96c-1.3-.85-1.9-.71-2.94-2.45,1.48.27.94-.75.98-1.69.15-3.73.05-7.55,0-11.29,0-.83.31-2.18-.5-2.69.91-2.26,1.57-3.38,2.94-5.39l-.49,23.5Z"/>
      <path class="cls-1" d="M270.25,165.01l-.49,21.06c-.8.34-1.37.3-1.96.49.36-1.82-.49-11.52,0-12.24.04-.06,1.06.35,1.03-.72-.03-1.18-.96-1.8-1.03-2.22-.45-2.71.32-6.45,0-9.3.99,1.1,1.54,1.72,2.45,2.94Z"/>
      <path class="cls-1" d="M336.84,297.22c-1.29-.29-.93.68-1.24,1.43-1.77,4.31-3.73,9.25-5.76,13.38-.34.7-.02,1.62-1.32,1.35.43-2.61.7-4.72.98-7.35,1.29.29.94-.67,1.24-1.43,1.66-4.13,2.91-8.71,5.61-12.28-.02,1.57.52,3.33.49,4.9Z"/>
      <path class="cls-1" d="M237.45,143.46c-1.47-.28-.96.75-.98,1.69-.03,1.18-.42,3.16.98,3.69l.49-5.39c3.35,1.19,5.72,2.42,8.81,3.92v8.32c-.86-.45-1.74-1.11-2.45-1.47.62-1.59.18-4.38.03-6.15-.07-.85.07-1.61-.76-2.18l-.24,7.83c-.65-.31-1.59-.59-2.45-.98v-7.83c-.62-.81-.89.05-.98.72-.26,2.05.19,4.51,0,6.62-1.23-.53-2.93-.47-3.92-1.72,1.02-.46,1.14-.43.98-1.71l-1.47,1.47c-.85.34-1.16-.37-1.47-.49,1.11-2.11.21-5.04.49-7.35h-1.46s0,6.86,0,6.86c-.73-.3-1.64-.87-1.96-.98-.15-.96.31-6.76-.25-6.86-.94-.17-1.17-.29-1.23.72-.11,2.03.08,4.1,0,6.14-.66-.22-1.31-.78-1.96-.98v-6.86c3.63.83,6.32,1.74,9.79,2.94Z"/>
      <path class="cls-1" d="M68.54,356.96c.15,1.47.33,2.93.49,4.41-.8.33-1.07,1.07-1.41,1.77-2.19,4.55-3.95,9.3-6.28,13.8-.41.79-.29,1.66-1.62,1.57-.05-.97.05-1.96,0-2.94l8.81-18.61Z"/>
      <path class="cls-1" d="M214.44,318.28c.81-3.33,2.41-6.95,3.83-10.12.6-1.33,3.51-8.25,4.31-8.42.28-.06,1.67.41,1.62.65l-7.8,17.4c-.51.1-1.12.35-1.96.49Z"/>
      <path class="cls-1" d="M235.49,299.18c-1.59,5.07-4.25,9.67-6.26,14.55-.35.84-1.28,1.24.39,1.12-1.14.31-2.27.69-3.43.98l7.34-17.63c.66.23,1.31.77,1.96.98Z"/>
      <path class="cls-1" d="M210.52,318.77c.42-2.38,7.15-18.84,8.15-19.12.57-.16,1.99-.25,1.63.74l-7.49,16.51.64,1.38c-.99.17-1.93.33-2.94.49Z"/>
      <path class="cls-1" d="M64.13,304.08c-1.32-.29-.94.67-1.22,1.45-1.64,4.65-3.36,9.63-6.13,13.73-.05-1.95.03-3.92,0-5.88,1.12.24,1.07-.55,1.39-1.28,1.59-3.59,4.29-9.42,5.46-12.92.9,1.13.48,3.36.49,4.9Z"/>
      <path class="cls-1" d="M65.11,323.18c.11,1.33.37,2.59.49,3.92-1.2-.25-1.51,1.47-1.88,2.28-1.93,4.25-3.05,8.87-5.46,12.9-.06-1.45-.42-3.53-.49-5.39,1.35.29.92-.7,1.21-1.46,1.43-3.68,3.19-7.3,4.8-10.91.33-.73.07-1.6,1.33-1.34Z"/>
      <path class="cls-1" d="M63.64,291.84c.07,1.58.46,3.06.49,4.41-1.19-.26-1.01.6-1.38,1.29-1.57,2.94-2.97,6.31-4.01,9.48-.68.08-.93-1.9-.94-2.27-.02-.91.22-2.22.46-3.11.81-.28.38-.86.49-1.47.9-1.99,2.6-4.58,3.66-6.89.33-.72-.1-1.73,1.23-1.44Z"/>
      <path class="cls-1" d="M63.16,284c0,1.59.45,3.13.49,4.9-1.25-.26-1.01.6-1.33,1.34-1.51,3.47-2.88,6.19-3.57,9.92-.33.73-.3.75-.49,1.47-.34.12-1.03-.08-1.47,0,.05-1.94.42-3.87.49-5.39,1.64-2.29,2.05-5.24,2.94-7.83.22-.38.35-.74.49-.98.17-.49.32-.98.49-1.47.08-.24.34-.56.49-.98.43-.57.61-1.15,1.47-.98Z"/>
      <path class="cls-1" d="M63.64,275.19c-.18,1.85.05,3.97,0,5.88-1.71-.27-1.56,2.78-1.96,3.92-.3.39-.32.66-.49.98-.36.67-.41,1.33-.49,1.47-.06.18-.33.5-.49.98-.07.12-.64.35-.9.79-.65,1.08-.73,2.92-2.03,2.64.12-2.02-.39-3.51.49-5.39,1.55-3.28,3.15-6.5,4.64-9.83.32-.72-.1-1.73,1.23-1.44Z"/>
      <path class="cls-1" d="M263.4,170.4v17.14s.97-7.59.97-7.59v-8.56c.94.92,2.32,1.62,2.94,2.94-.51,2.26-.82,5.27-.97,7.59-.11,1.7.06,3.44,0,5.14-2.14.59-3.51.6-5.39.98l.49-19.59c.81.72,1.29,1.31,1.96,1.96Z"/>
      <path class="cls-1" d="M64.62,315.83c.07,1.29-.1,2.63,0,3.92-2.15,3.96-3.67,8.27-5.53,12.37-.33.73-.06,1.6-1.33,1.34-.06-1.75-.44-3.37-.49-4.9,1.16.25,1.03-.58,1.38-1.29,1.66-3.31,2.82-6.9,4.58-10.16.37-.68.19-1.55,1.38-1.29Z"/>
      <path class="cls-1" d="M68.05,349.62c.15,1.48.34,2.94.49,4.41-1.37-.17-1.23-.14-1.71.96-2.19,5-3.97,10.4-6.2,15.39-.33.73-.27,1.52-1.39,1.28-.06-1.3.06-2.62,0-3.92l8.81-18.12Z"/>
      <path class="cls-1" d="M336.84,275.19c.05,1.95-.02,3.92,0,5.88-1.26-.26-1,.61-1.33,1.34-1.28,2.84-2.26,5.85-3.65,8.64-.35.71-.22,1.54-1.38,1.29.1-1.78-.13-3.61,0-5.39,1.17.2,1.67-2.23,2.04-3.1,1.03-2.39,1.79-5.11,2.94-7.37.36-.7.21-1.54,1.38-1.29Z"/>
      <path class="cls-1" d="M238.92,300.16l-5.39,13.71c-.83.25-1.71.28-2.45.49l5.39-14.69c.59.16,1.69.33,2.45.49Z"/>
      <path class="cls-1" d="M164.5,300.65l-6.36,15.67c-.76-.18-1.46-.23-2.45-.49l6.85-15.18c.65.03,1.31-.04,1.96,0Z"/>
      <path class="cls-1" d="M64.13,308.49c.03,1.3-.06,2.62,0,3.92-2.25,3.53-3.27,7.66-4.97,11.43-.37.81-.68,2.52-1.88,2.28-.05-1.63.05-3.27,0-4.9,2.43-3.39,3.7-7.69,5.46-11.45.34-.72.26-1.52,1.39-1.28Z"/>
      <path class="cls-1" d="M336.84,283.51c0,1.95,0,3.92,0,5.88-1.19-.26-1.01.61-1.38,1.29-1.63,3.02-2.59,6.17-4.09,9.18-.35.71-.22,1.54-1.38,1.29.14-1.79.38-3.64.49-5.39,2.48-3.24,3.42-7.25,5.04-10.9.32-.73.07-1.6,1.33-1.34Z"/>
      <path class="cls-1" d="M160.59,300.65c-1.08,5.05-4.03,9.83-5.88,14.69-.8-.21-1.68-.13-2.94-.49.74.93,1.92-2.34,2.04-2.61.59-1.24,5.23-11.13,4.81-11.59-.61-.67-1.51,1.05-1.74,1.44-.69,1.21-5.54,12.22-5.12,12.76-1.02-.29-1.96-.67-2.94-.98,1.13.24,1.06-.55,1.39-1.28,1.89-4.11,3.46-8.38,5.46-12.43,1.75.07,3.22.38,4.9.49Z"/>
      <path class="cls-1" d="M79.8,426.5c.27.96.7,1.89.98,2.94-1.21-.24-1.51,1.46-1.88,2.28-.65,1.41-1.41,3.02-1.55,4.58-2.24.26-4.05.51-6.36.49l.98-4.41c.94.11,1.98-.07,2.94,0-.5,1.21-.93,2.46-1.47,3.67,0,.44,1.15.34,1.41.18.39-.24,2.93-7.13,3.58-8.44.35-.71.22-1.54,1.38-1.29Z"/>
      <path class="cls-1" d="M271.23,166.97c.41.67,1.65.36,1.96,3.43.44,4.33-.32,9.3,0,13.71-.72.61-1.35.64-1.96.98v-18.12Z"/>
      <path class="cls-1" d="M65.6,330.03c.04.46.39,1.43.49,2.45-1.35-.29-.92.7-1.21,1.46-1.65,4.34-3.06,8.83-5.24,12.92-.37.69-.19,1.55-1.38,1.29-.05-1.14.05-2.29,0-3.43,2.75-4.06,3.87-9.02,5.95-13.41.34-.72.25-1.52,1.39-1.28Z"/>
      <path class="cls-1" d="M150.79,191.45h-1.96c.24-3.08.23-7.32-.49-10.28.73-1.31,1.56-2.71,2.45-3.92.23,5.23.35,8.94,0,14.2Z"/>
      <path class="cls-1" d="M233.05,182.64c-.81.51-.49,1.86-.5,2.69-.03,2.75-.64,6.92.99,9.07-1.06.44-2.34.71-2.94.98v-17.14c.38.88,1.88,3.88,2.45,4.41Z"/>
      <path class="cls-1" d="M138.06,312.4c-2.42,4.24-4.01,8.91-6.02,13.35-.33.73-.07,1.6-1.33,1.34.24-.97.42-1.98.73-2.94.37-1.14,2.73-2.73-.24-2.45,1.7-3.28,2.9-6.91,4.41-10.28.73.33,1.64.64,2.45.98Z"/>
      <path class="cls-1" d="M145.9,312.89c2.46-2.48,3.4-9.29,5.36-11.54.52-.6,2.1-1.04,2.48-.7.53.48-5.2,11.5-5.38,13.22-.96-.3-1.73-.74-2.45-.98Z"/>
      <path class="cls-1" d="M336.35,267.84c.09,1.35.44,2.57.49,3.92-1.34-.3-.9.72-1.23,1.44-1.39,2.99-3.74,7.31-4.64,10.32-.93-1.31-.44-3.67-.49-5.39,1.26.26,1-.61,1.33-1.34,1.13-2.51,2.11-5.09,3.22-7.6.32-.73.07-1.6,1.33-1.34Z"/>
      <path class="cls-1" d="M335.86,260.5c.12,1.38.39,2.63.49,3.92-1.34-.3-.9.72-1.23,1.44-1.14,2.47-2.26,4.94-3.41,7.41-.33.71.11,1.74-1.23,1.44-.05-1.25-.39-2.91-.49-4.41,1.16.25,1.03-.58,1.38-1.29,1.17-2.35,1.99-4.86,3.1-7.23.34-.72.26-1.52,1.39-1.28Z"/>
      <path class="cls-1" d="M184.58,311.42c.51,2.93,1.1,5.86,1.47,8.81-1.83.46-3.89-.39-5.38-.49.53-2.32,1.63-4.8,2.59-6.98.32-.73.07-1.6,1.33-1.34Z"/>
      <path class="cls-1" d="M296.2,432.37c-3.18,8.46-7.05,16.66-10.51,25.02-.31.75.05,1.71-1.24,1.43,1.51-7.13,7.28-18.11,10.42-25.1.33-.73.07-1.6,1.33-1.34Z"/>
      <path class="cls-1" d="M331.94,238.95c-1.71,2.37-2.43,5.23-3.66,7.87-.33.71.11,1.74-1.23,1.44-.26-1.15-2.05-6.31-1.47-6.86.12-.11,2.01.11,3.14-.54s1.52-2.39,2.99-2.88c.49-.02.14.7.24.98Z"/>
      <path class="cls-1" d="M184.09,308.49c-1.94,3.43-3.68,7.48-4.9,11.26-2.11-.16-4.26-.25-6.36-.49l1.47-3.43c1.19-.61,2.66-2.24,3.92-2.94-.43.68-2.26,4.93-2.42,5.66-.19.91.39.97.96.47.67-.59,2.31-4.46,2.76-5.57.17-.43.85-1.81.17-2.03,1.3-1.4,3.3-2.27,3.92-3.91.83-.16.36.55.48.98Z"/>
      <path class="cls-1" d="M267.32,161.58c-1.11,2.62-.2,6.01-.49,8.81-1.1-1-1.97-2.03-2.94-2.94,1.11-2.62.2-6.01.49-8.81,1.21,1.07,1.87,1.82,2.94,2.94Z"/>
      <path class="cls-1" d="M146.39,301.14c-1.16,2.83-2.93,5.78-3.87,8.65-.26.79-.78,1.27-.05,2.12-2.06-.76-3.58-1.68-5.39-2.45l1.96-6.36c-.59.07-1.1-.34-1.47.33-.61,1.09-1.14,4.18-1.95,5.55-.8-.35-1.33-.69-1.96-.98l1.96-4.9c2.18-.11,4.7-.55,6.85-.98l-3.2,6.84.5,1.48,3.68-8.33c.74-.17,1.93-.72,2.94-.98Z"/>
      <path class="cls-1" d="M142.96,311.91c1.94-2.49,2.72-7.7,4.47-9.97.45-.59,1.39-1.29,1.89-.8s-3.55,9.92-4.4,11.26c-.48-.17-1.1-.17-1.96-.49Z"/>
      <path class="cls-1" d="M333.41,244.83c-1.12-.24-1.07.55-1.39,1.28-.75,1.7-3.2,7.13-3.51,8.52-.63-1.19-.7-2.62-.98-3.92,1.34.3.9-.72,1.23-1.44,1.22-2.62,2.42-5.26,3.66-7.87.28,1.12.7,2.08.98,3.43Z"/>
      <path class="cls-1" d="M260.46,155.71c-.75,2.24-.86,5.32-.98,7.83-.26-.2-.96-.61-1.47-.98v-8.81c-.63-.83-.89.06-.98.73-.29,2.32-.46,4.76-.49,7.1-.68-.47-1.45-1.13-1.96-1.47v-8.32c2.28,1.44,3.64,2.25,5.88,3.92Z"/>
      <path class="cls-1" d="M235.98,183.62c-.56,2.6.41,6.96,0,9.79-.71.25-1.53.32-1.96.49v-10.77c.65.3,1.2.57,1.96.49Z"/>
      <path class="cls-1" d="M164.01,308c-.12,1.45.1,2.95,0,4.41l-2.45,4.65c1.98.5,2.33-2.9,2.45-4.16.89,1.1,1.22,2.04,2.45,2.94-3.32.78-.47,3.93.49.49,2.01.85,3.87.57,5.88,0l-.49,2.94c-.97-.12-1.73-.39-2.45-.49l.49-1.46h-1.71c-.64.07-.03,1.18.24,1.46-3.23-.47-6.2-1.26-9.3-1.96.6-2.24,1.56-4.43,2.53-6.54.37-.81.67-2.52,1.88-2.28Z"/>
      <path class="cls-1" d="M263.4,158.16v8.81c-.71-.65-1.67-1.31-2.45-1.96,1.21-2.7.23-6.04,0-8.81.95.73,1.51,1.17,2.45,1.96Z"/>
      <path class="cls-1" d="M254.1,151.3c-1.68,2.16-.76,5.28-.98,7.83-.62-.39-1.92-.87-2.94-1.47,1.48.27.94-.75.98-1.69.08-2.04-.06-4.1,0-6.14.9.51,1.77.75,2.94,1.47Z"/>
      <path class="cls-1" d="M76.37,413.28c-1.41,1.37-2.2,3.98-2.94,5.88-.16-.13-1.38-.96-1.47-.98.26-2.63,1.51-5.98,3.43-7.83.16.69.7,1.78.98,2.94Z"/>
      <path class="cls-1" d="M253.12,301.14c-.19,1.15-.41,2.25-.49,3.43-.38.58-1.64,1.09-1.47,2.45-.98.45-1.94,1.04-2.94,1.47l2.45-7.35c.81-.03,1.65.07,2.45,0Z"/>
      <path class="cls-1" d="M260.95,299.67l-.38,2.15.38.29c-1.44.81-2.59,1.27-3.92,1.96.35-.27,1.66-5.05,0-3.43-.14.14-1.73,3.54-.99,3.92-1.09.55-2.18,1.37-3.43,1.96.03-.65-.04-1.31,0-1.96.58-.87,2.24-2.47.98-3.43,1.85-.19,5.45-.97,7.34-1.47Z"/>
      <path class="cls-1" d="M250.67,149.34c-1.48-.27-.95.75-.98,1.69-.07,2.04.05,4.1,0,6.14-.53-.31-1.31-.62-1.96-.98v-8.32c1.04.52,1.83.86,2.94,1.47Z"/>
      <path class="cls-1" d="M62.67,260.01c.59,1.02,1.61-1.66,1.46.24l-5.38,11.03c.51-3.65,1.48-8.39,3.92-11.26Z"/>
      <path class="cls-1" d="M296.2,457.35c-.13.33.05,1.23-.23,1.95-.72,1.92-1.86,3.99-2.71,5.88.57-.07,1.45.2,1.89-.07.25-.15,1.57-4.42,2.11-5.5.35-.7.22-1.54,1.38-1.29-.36,1.31-1.28,6.68-1.94,7.12-1.78,1.17-3.8-.54-4.92-.75l.98-4.9c1.37-.31,2.26-1.79,3.43-2.45Z"/>
      <path class="cls-1" d="M289.35,458.82c-1.55,1.05-1.95,3.33-2.94,4.9-.68-.18-1.17.34-1.96-.49,1.57-2.22,1.69-5.58,3.92-7.35.02.19.82,2.66.98,2.94Z"/>
      <path class="cls-1" d="M227.17,140.53c-.27.04-.92-.08-.98,0-.29.39.21,5.28,0,6.37-.62-.17-1.34-.35-1.96-.49v-6.37c.98.19,1.82.24,2.94.49Z"/>
      <path class="cls-1" d="M76.86,415.24c.25,1.08.87,2.26.98,3.43-1.54-.2-1.98,2.67-1.96,3.92-.9-.79-1.18-2.08-1.96-2.94,1.65-1.04,1.08-4.58,2.94-4.41Z"/>
      <path class="cls-1" d="M70.99,432.37l-1.47,4.41c-1.45-.12-1.77.14-2.94-.98,1.38-1.03,2.34-3.23,2.45-4.89-1.96-.15-1.08,3.35-2.94,3.91-.74-1.27-.58-1.18-.98-2.45l1.96-3.43c.13.22,3.67,3.35,3.92,3.43Z"/>
      <path class="cls-1" d="M66.09,423.56c0,1.04.22,2.43.49,3.43l-1.96,2.94c-.37-1.72-.69-3.13-.98-4.9h.65c.62-.59.7-1.61,1.8-1.47Z"/>
      <path class="cls-1" d="M81.27,431.4c.37,1.44,1.15,2.83.98,4.41-1.45.23-2.96.3-4.41.49,2.05-.78,1.31-4.67,3.43-4.9Z"/>
      <path class="cls-1" d="M292.29,459.8c-1,1.47-2.17,3-1.96,4.9-.78-.15-1.68-.32-2.45-.49l1.96-4.9c.77.47,1.57.55,2.45.49Z"/>
      <path class="cls-1" d="M79.31,424.05c-1.67-.4-.71,2.16-2.45,1.96-.05-.72-.89-2.17-.98-2.94.58.71,1.9-2.2,1.96-2.45,1.03.9,1.13,2.22,1.47,3.43Z"/>
      <path class="cls-1" d="M262.42,299.18c1.88-.54,3.79-1.96,5.88-1.95-1.12,2.22-4,2.81-5.88,3.91v-1.96Z"/>
      <path class="cls-1" d="M69.52,258.54c.77.42,3.23,2.53,2.45,3.42-.12.13-2.85.58-3.43.98.31-.72.57-3.39.98-4.41Z"/>
      <path class="cls-1" d="M134.15,303.1c-.17.5-.87,2.84-.99,2.94-.79.61-2.13-1.67-.97-2.94.65.03,1.31.01,1.96,0Z"/>
      <path class="cls-1" d="M150.79,196.84c-.37-2.02-.17-1.29,0-2.94.79.46.8,2.44,0,2.94Z"/>
      <path class="cls-1" d="M204.16,412.79c-.43,1.11-2.94.21-3.91.48.43-1.11,2.94-.21,3.91-.48Z"/>
      <path class="cls-1" d="M335.86,259.03c-.23-.07-.44-.26-.49-.49.23.06.45.26.49.49Z"/>
      <path class="cls-2" d="M302.57,300.65c.7.84,11.37-10.03,12.48-9.79.76.16,1.05,1.83.5,2.45l-12.47,10.54c-1.01,1.24-1.29,4.59-.75,6.1l9.86-8.74c1.35-.74,2.47-1.16,2.13.66-.4,2.13-10.54,9.59-12.62,11.62-.7,2.26-1.05,16.11-2.05,16.81-1.16.81-2.14-.27-2.02-1.48l1.5-12.25-3.17,2.21c-.85,2.48-1.41,19.91-2.21,20.56-.18.14-1.16.02-1.49-.22-1.36-.99,1.01-15.33,1-17.9-.84.49-5.35,5.19-5.87,2.68-.37-1.79,5.53-4.89,6.13-6.11.67-1.36.03-3.84.24-5.39l-9.61,8.26c-.85.88-2.9.62-2.62-.66s10.44-9.07,12.1-10.67c.63-1.09.58-6.37,1.12-6.72,1.75-1.13,2.37,2.38,1.95,3.42.43.5,3.42-2.47,3.42-2.69v-9.79c0-.92,2.45-.92,2.45,0v7.1ZM300.12,307.02c-3.74,1.29-4.35,4.73-3.91,8.32,3.9-2.01,3.35-4.43,3.91-8.32Z"/>
      <path class="cls-2" d="M267.73,326.04c-1.2.76-4.55-.2-2.9-2.07.34-.39,2.55-.85,2.97-.57.78.52.3,2.4-.08,2.63Z"/>
      <path class="cls-2" d="M308.44,334.93c.61.8-.81,3.43-2.45,2.45-.71-1.58,1.48-3.71,2.45-2.45Z"/>
      <path class="cls-2" d="M277.36,307.51c2.25-.63,2.25,3.07,0,2.44-.98-.28-.98-2.16,0-2.44Z"/>
      <path class="cls-2" d="M114.38,237.03c.97-.28,5.83,1.5,7.43,1.78,5.81,1.02,12.56,1.52,18.46,1.12,2.26-.15,9.08-1.86,10.52-1.22,2.61,1.17,1.21,6.37.84,8.66-1.87,11.42-8.24,30.22-22.98,27.71-7.28-1.24-11.76-10.34-12.96-16.91s-.63-12.73-1.25-18.89c-.05-.46-1.73-1.76-.04-2.24ZM150.31,240.91c-11.3,1.44-22.64,1.64-33.78-.98.52,9.25-.44,20.31,5.63,27.9,3.92-6.74,15.85-7.91,18.6.5,6.52-7.28,8.49-17.96,9.55-27.42Z"/>
      <path class="cls-2" d="M140.02,282.54c1.15,1.66-2.74,2.68-3.72,2.88-7.68,1.64-15.65-.98-21.89-5.43-1.36-.97-7.11-5.41-6.7-7,.69-2.66,3.21,1.34,3.65,1.73,6.65,5.95,13.74,9.73,23.03,8.78,1.18-.12,5.12-1.72,5.63-.97Z"/>
      <path class="cls-2" d="M129.25,229.65c-.08.48.13,1.8-.01,1.94-.13.13-3.16.46-3.61.45-2.15-.05-10.11-2.07-11.74-3.33-.62-.47-.23-1.34-.3-2,5.2,1.17,10.15,3.48,15.67,2.94Z"/>
      <path class="cls-2" d="M269.27,235.53c-1.12,10.57-1.03,35.67-15.46,37.66-15.09,2.08-21.1-16.9-22.66-28.67-.5-3.78-1.98-8.26,3.13-8.04,6.84.29,12.61,1.95,20.08,1.51,5.06-.29,9.94-1.69,14.91-2.47ZM266.83,238.46c-11.16,1.91-22.63,2.23-33.78,0,.11,9.64,2.62,20.16,8.57,27.9,2.7-8.14,15.61-7.47,18.37,0,6.9-7.07,5.45-18.73,6.85-27.91Z"/>
      <path class="cls-2" d="M273.44,270.78l1.22.74c.44,1.67-6.56,7.01-8.16,7.98-4.86,2.96-11.33,4.88-17.07,4.51-1.33-.09-6.63-.95-7.03-2.27-.9-2.98,3.4-.41,4.65-.24,10.57,1.48,19.38-3.35,26.4-10.73Z"/>
      <path class="cls-2" d="M270.74,228.18c.15.16.01,1.55-.23,1.96-1.74,2.94-18.35,3.98-18.89,1.67-.8-3.46,2.44-1.34,3.74-1.22,1.82.16,4.53.22,6.32.04,1.59-.16,8.7-2.81,9.06-2.44Z"/>
      <path class="cls-2" d="M212.48,144.93c.32-.02.66,0,.98,0,1.7.04,4.18.26,5.88.49.16.02.33-.02.49,0,.77.11,2.38.76,3.43.98.3.06.69-.07.98,0,.62.14,1.34.32,1.96.49.37.1.96.34,1.47.49.64.2,1.3.76,1.96.98.37.12,1.11-.13,1.47,0,.32.11,1.23.68,1.96.98.29.12.58.34.98.49.31.12.62.83,1.47.49l1.47-1.47c.17,1.28.04,1.24-.98,1.71.99,1.25,2.69,1.18,3.92,1.72.31.13.64.34.98.49.86.39,1.8.66,2.45.98.32.15.66.33.98.49.71.35,1.59,1.02,2.45,1.47.32.17.67.32.98.49.65.35,1.43.67,1.96.98.17.1.3.38.49.49,1.02.6,2.32,1.08,2.94,1.47.46.3.99.66,1.47.98.51.34,1.28.99,1.96,1.47.5.35,1.11.72,1.47.98.51.37,1.21.78,1.47.98.34.27.85.96,1.47,1.47.78.65,1.74,1.31,2.45,1.96.17.15.32.33.49.49.97.91,1.84,1.94,2.94,2.94.28.25.43.86.98.98.07.42,1,1.04,1.03,2.22.03,1.07-.99.66-1.03.72h-.49c-.62-1.32-2-2.02-2.94-2.94-.33-.33-.64-.65-.98-.98-.67-.64-1.15-1.24-1.96-1.96-.3-.26-.56-.62-.98-.98-2.14-1.83-4.03-3.31-6.36-4.9-.11-.08-.38.08-.49,0-.97-.64-1.61-.95-2.45-1.47-.45-.28-.8-.59-1.47-.98-.6-.35-1.2-1.05-1.96-1.47-.12-.07-.36.07-.49,0-1.1-.6-1.84-.67-2.45-.98-.09-.04-.41-.69-.98-.98-.97-.49-1.67-1.11-2.94-.98v-.49c-.32-.71-2.63-1.11-3.43-1.47-.52-.23-1.03-.31-1.47-.49-.31-.13-.82-.7-1.47-.98-.52-.22-1.02-.31-1.47-.49-1.01-.4-1.92-.29-2.45-.49-.14-.05-.31-.42-.49-.49-1.09-.39-2.07-1.05-3.43-1.47-.15-.05-.34.05-.49,0-.71-.21-1.31-.31-1.96-.49-.47-.13-.91-.36-1.47-.49-.65-.15-1.3-.37-1.96-.49-.3-.06-.67.05-.98,0-.77-.13-1.37-.36-2.45-.49-.48-.06-.99.04-1.47,0-.75-.06-1.54-.47-2.45-.49-.32,0-.66-.02-.98,0-.59.03-1.32.4-1.96.49-.31.04-.66-.03-.98,0-.09-.25-1.77-.53-.48-1.71.95-.87,2.26-.69,3.42-.74Z"/>
      <path class="cls-2" d="M295.71,446.09c.14.02,1.42.43,1.47.49.09.1.94,2.28.98,2.45.2.97-.14,2.38,0,3.43-.62,1.34-1.37,3.42-1.96,4.9-1.17.66-2.05,2.14-3.43,2.45-.14.03-.32-.01-.49,0-.88.06-1.68-.02-2.45-.49-.08-.05-.45-.41-.49-.49-.16-.28-.96-2.75-.98-2.94-.19-2.22,1.8-6.8,3.43-8.32.42-.39,1.94-1.36,2.45-1.47.32-.07,1.12-.05,1.47,0ZM294.24,448.53c-2.57,1.15-3.69,4.54-3.43,7.35.46,4.87,5-.75,5.35-3.72.17-1.5-.02-2.7-.45-4.11-.77-.29-1.08.31-1.47.49Z"/>
      <path class="cls-2" d="M147.86,166.97c.47.02,1.06-.08,1.47,0,.2.04,1.16,1.23,1.96.98.04.89.46,1.76.49,2.45.05,1.14-.04,2.29,0,3.43-.18.65-.29,1.32-.49,1.96-.01.03-.41.08-.49.49-.05.27-.01.68,0,.98-.89,1.21-1.72,2.61-2.45,3.92-.31.55-.96.91-.98.98-2.02.13-3.81-1.67-4.41-3.43-.63-1.87-.79-7.08,0-8.81.09-.19,2.09-2.22,2.45-2.45.2-.13.4-.47.49-.49.4-.11,1.44-.03,1.96,0Z"/>
      <path class="cls-1" d="M149.32,166.97l-.02-22.2,2.46-.82c.39,8.01-.87,15.99-.49,23.99-.8.25-1.76-.94-1.96-.98Z"/>
      <path class="cls-1" d="M142.96,169.91l.09-23.9,1.86-.58c.27,6.8-.71,13.53-.49,20.34.03.94-.5,1.97.98,1.69-.36.23-2.36,2.26-2.45,2.45Z"/>
      <path class="cls-1" d="M145.9,166.97v-20.81c.1-1.15.73-1.22,1.71-1.23,1.16-.01.67.31.74,1.21.55,6.89-1.07,13.92-.49,20.83-.52-.03-1.56-.11-1.96,0Z"/>
      <path class="cls-2" d="M327.05,227.69c-.25.23-2.52-.9-2.93,2.74-.09.79.66,4.37.98,4.61.18.13,4.06-1.69,2.2,1.47-2.23,3.78-6.91-3.91-4.37-8.78,1.95-3.74,5.36-1.2,4.13-.04Z"/>
      <path class="cls-2" d="M233.05,169.42c.31,0,.72-.06.98,0,.11.02,1.89.9,1.96.98.09.1.87,2.1.98,2.45,1.18,3.72.85,5.66,0,9.3-.15.66-.95,1.34-.98,1.47-.76.08-1.31-.19-1.96-.49-.2-.09-.94-.45-.98-.49-.57-.53-2.07-3.53-2.45-4.41-.14-.33-.36-.64-.49-.98-.65-1.68-1.03-3.13-.49-4.9.15-.48,1.15-2.21,1.47-2.45.54-.42,1.29-.48,1.96-.49Z"/>
      <path class="cls-2" d="M70.5,418.17c.43-.01,1.12-.08,1.47,0,.09.02,1.31.85,1.47.98s.34.33.49.49c.78.86,1.06,2.15,1.96,2.94,0,.16-.02.33,0,.49.09.77.93,2.22.98,2.94.18,2.37-1.12,4.3-1.96,6.37-.96-.07-2,.11-2.94,0-.32-.04-.74.07-.98,0-.25-.08-3.78-3.2-3.92-3.43-.05-.09-.37-1.52-.49-1.96-.27-1-.48-2.39-.49-3.43-.01-1.65.18-3.23,1.47-4.41,1.01-.92,1.65-.95,2.94-.98ZM69.52,421.11c-1.45.85-1.62,2.36-1.47,3.92.12,1.23.6,1.26.98,1.96.4.74.04.68.98,1.47,1.13.95,2.05,1.57,3.43.49.87-.68,1.56-2.84,1.47-3.92-.2-2.4-2.94-5.35-5.39-3.92Z"/>
      <path class="cls-1" d="M150.79,176.27c.08-.41.48-.46.49-.49l-.49.49Z"/>
      <path class="cls-1" d="M233.05,151.79c.46,5.93-.92,11.78,0,17.63-.66,0-1.42.07-1.96.49-1.16-1.79,0-3.92,0-5.14v-8.81c0-.15-.44-.55-.46-1.02-.05-1.14.78-2.35-.03-3.64.53.19,1.44.09,2.45.49Z"/>
      <path class="cls-1" d="M235.98,153.26c.57,4.8.56,9.61.5,14.45-.01.83.31,2.18-.5,2.69-.07-.08-1.85-.96-1.96-.98l.49-17.14c.65.28,1.16.85,1.47.98Z"/>
      <path class="cls-1" d="M294.24,448.53c.39-.17.69-.78,1.47-.49.44,1.41.63,2.62.45,4.11-.35,2.97-4.89,8.59-5.35,3.72,1.71-1.87,3.11-4.86,3.43-7.35Z"/>
      <path class="cls-1" d="M74.91,425.03c-1.27-.34-2.61,3.06-1.47,3.92-1.38,1.08-2.3.46-3.43-.49,1.06-.58,3.33-6.35,2.94-6.85-.72-.91-1.07.66-1.23.95-.71,1.32-1.02,4.34-2.69,4.43-.38-.7-.86-.73-.98-1.96,1.06-.52,2.36-3.14,1.47-3.92,2.44-1.44,5.18,1.52,5.39,3.92Z"/>
      <path class="cls-1" d="M380.84,39.65h-.97s0-1.47,0-1.47c.71.16,1.12.79.97,1.47Z"/>
    </g>
  </g>
</svg>