<?xml version="1.0" encoding="UTF-8"?>
<svg id="Layer_2" data-name="Layer 2" xmlns="http://www.w3.org/2000/svg" viewBox="0 0 535.97 319.56">
  <defs>
    <style>
      .cls-1 {
        fill: #1c3e61;
      }
    </style>
  </defs>
  <g id="Illustrations">
    <g>
      <path class="cls-1" d="M419.37,150.64c-.31.53-.09,1.19-.14,1.76,13.51-1.47,26.52-9.6,37.55-17.31,3.1-2.17,7.69-6.81,10.49-8.31,6.99-3.74,3.48,5.46,3.49,7.76.06,8.66,9.46,8.64,14.93,10.65,7.3,2.68-4.11,10.33-4.2,15.79-.13,7.57,10.32,6.6,3.26,14.01s-26.57,11.32-36.35,11.93c-10.91.68-21.59-1.28-32.29-2.87-27.77,32.77-64.29,58.22-101.79,78.83-2.48,1.36-17.78,8.4-18.3,9.29-.61,1.03-.15,2.98-.58,4.43-.58,1.95-3.99,5.47-4.04,7.79-.1,4.21,9.01,10.38,2.67,15.29-1.78,1.38-7.27,2.22-8.22,3.38-2.47,3.03,2.93,13.67-4.29,16.14-8.43,2.89-17.23-12.24-24.89-14.56-3.58-1.09-8.78,1.4-12.75,1.95-16.98,2.37-36.52-4.17-52.77.52-3.88,1.12-7.88,3.36-11.71,4.59-24.77,7.93-52.52,4.27-77.34-1.7-4.1-.99-16.71-5.66-19.35-5.71-.69-.01-6.18,3.32-7.73,3.93-7.52,2.97-19.12,5.77-27.18,5.26-9.67-.62-32.17-11.2-38.65-18.4-7.21-8.01-10.57-19.41-8.69-30.04,2.81-15.81,10.41-9.33,21.53-8.52,12.26.89,23.62-1.45,34.98-5.82,4.4-1.69,10.45-5.67,14.85-6.46,2.56-.46,5.76.18,7.74-.41.59-.17,5.67-4.98,7.14-6.03,18.12-12.84,40.67-19.95,62.92-17.96,39.71-29.58,78.28-56.15,123.25-77.38,22.09-10.43,52.16-24.53,75.94-28.76,25.28-4.5,33.02.59,51.54-20.57s36.43-49.62,56.42-70.23c21.46-22.12,51.67-36.62,71.37-3,22.95,39.17-9.2,71.47-40.83,89.97-22.15,12.95-41.57,23.08-62.9,38.04-.88.62-4.82,2.26-5.09,2.73ZM508.89,8.18c.05-.41-.83-1.25-.94-1.25h-21.94c-.3,0-1.93.77-1.57,1.25h24.45ZM515.16,12.57c.05-.41-.83-1.25-.94-1.25h-36.36c-.11,0-.99.85-.94,1.25h38.24ZM519.54,16.96l-1.05-1.77c-15.37-.18-30.8-.18-46.18,0l-1.05,1.77h48.27ZM523.31,21.35c-1.62-2.89-7.73-1.23-10.93-1.23-13.36,0-31.77-1.49-44.58-.04-.94.11-1.94.13-2.17,1.28h57.68ZM525.82,24.48c-14.52-.19-29.08.24-43.6.02-5.67-.08-12.43-1.47-18.19-.69-1.31.18-2.29.53-2.79,1.91l64.2.64.37-1.89ZM527.07,28.24h-68.65c-.12,0-1.55,1.42-1.57,1.88h70.22v-1.88ZM528.95,33.26h-75.23v1.25h75.23v-1.25ZM449.95,38.9h79.62l-.93-1.26c-25.9.55-51.76-1.1-77.64-.52l-1.05,1.77ZM530.2,41.41h-83.38c-.1,0-.14,1.43-.63,1.88h84.01v-1.88ZM530.83,45.8h-86.83c-.41,0-1.2,1.34-.94,1.88h87.77v-1.88ZM530.2,50.19h-89.34c-.11,0-.99.85-.94,1.25h90.28v-1.25ZM529.57,54.58h-91.85c-.41,0-1.2,1.34-.94,1.88h91.85c.41,0,1.2-1.34.94-1.88ZM528.32,58.97h-94.35c-.07,0-1.46,1.17-.62,1.26,31.71-.23,63.36.17,94.98.62v-1.88ZM527.07,63.36h-96.55v1.25h96.55v-1.25ZM525.18,67.75l-95.64-.04-2.79,1.28c8.05.07,16.11-.06,24.16-.02,17.06.08,34.32.59,51.41.69,6,.04,15.15-1.43,20.71-.71,1.36.17,1.13,3.44,2.14-1.2ZM523.3,71.51c-21.29-.45-42.45.62-63.66.65-8.28.01-16.69-.43-25.02-.68-3.34-.1-9.98-1.03-11.62,1.9,15.81.86,31.46-.11,47.36-.02,9.11.05,18.36.8,27.59.69,7.27-.09,15.27-1.62,22.58-.71,1.47.18.58,1.21,1.21,1.32.17.03,1.93-2.82,1.56-3.14ZM519.45,78.35l1.34-3.07c-1.46,1.12-4.53,1.24-6.55,1.28-19.02.38-38.69-.05-57.68-.05-10.59,0-25.1-1.13-35.16,0-.94.11-1.93.13-2.17,1.27l100.21.57ZM459.98,82.16c-.24-1.14-1.23-1.17-2.17-1.27-7.28-.82-18.76-.64-26.32-.63-5.18,0-10.24.39-15.39.66l.93,1.25h42.96ZM516.41,80.92h-50.78l10.32,1.28c10.39.39,20.39.48,30.72-.05,2.81-.15,6.13.37,8.81.03.92-.12,1.95-.49.93-1.26ZM513.27,84.68c-9.92.57-19.85.68-29.81.65s-19.15-.06-28.79,0c-12.43.08-28.97-1.38-40.8-.05-.94.11-1.93.13-2.17,1.27l16.01.04c23,.05,46.52.18,69.57-.08,3.22-.04,11.88,1.29,14.09.35.58-.25,1.62-1.51,1.89-2.17ZM508.26,89.7c-32.86.39-65.74-1.34-98.59-.46-.79.33-2.02.09-1.72,1.39.08.35,6.44,1,7.22,1,1.79,0,3.34-.7,4.99-.71,27.37-.13,57.76,1.8,84.69.05.9-.06,3.29-.07,3.42-1.28ZM503.24,93.46l-97.8.93c2.15.18,4.43.87,6.56.97,29.27,1.48,60.02-.92,89.39-.31l1.85-1.59ZM496.97,97.85l-94.65.93c2.44,2.09,6.05.28,9.08.27,23.51-.02,47.46.18,70.81.01,4.77-.03,11.56,2.34,14.76-1.22ZM490.08,102.24h-89.97c-.11,0-1.97,1.61-1.25,1.88,21.82.29,43.48-.7,65.23-.66,6.97.01,14.76,1.34,21.94.69,1.51-.14,3.38-.22,4.04-1.91ZM431.15,137.35h-16.61c-.23,0-3.26-2.42-3.45-3.14h24.76c.11,0,.99-.85.94-1.25h-26.02c-.94,0-3.77-1.97-4.08-3.14h35.42c.11,0,.99-.85.94-1.25h-37.93c-.33,0-2.03-2.72-1.56-3.13,6.58-.06,13.18.06,19.77.02,7.76-.04,16.02.51,23.83,0,.9-.06,3.29-.07,3.42-1.28-12.2-.55-24.45.36-36.7.02-1.64-.05-3.21-.63-4.98-.7s-4.56.81-5.79.52c-1.43-.33-3.68-2.35-1.66-2.9,6.26.23,12.6-.44,18.83-.48,10.77-.06,24.59,1.63,35.02.4,1.3-.15,2.93-.47,3.43-1.89-11.26,1.03-22.82.71-34.19.65-2.13-.01-4.38-.68-6.9-.68-2.84,0-16.98,1.84-18.19.07-.48-.7-.24-1.74-.28-2.55l50.36-.39c4.77-.04,10.14.98,15,.23.56-.09,1.88-.27,1.72-1.1h-68.34v-3.14s75.23,0,75.23,0l-6.55-1.27c-20.49,1.37-41.15-.58-61.47.02-2.61.08-5.23-.04-7.83,0l.7-3.05,81.14-.05,2.79-1.28-83.67.66-.65-1.92c-10.93,13.09-28.11,10.64-43.16,12.64-23.53,3.13-46.47,13.33-67.92,22.99-46.45,20.92-91.3,48.41-131.19,80.1-1.34,1.06-2.13,3.02-3.36,3.59-1.01.47-12.36-.96-15.21-.84-15.56.64-36.87,9.01-49.14,18.58-.72.56-4.64,3.75-4.79,4.03-.7,1.28.95,3.31,1.04,5.32.34,8.44-7.97,14.3-8.8,19.48-1.4,8.75,10.99,10.4,11.31,20.03l-.69,9.71c28.07,7.85,61,15.81,89.79,7.35,5.04-1.48,10.08-4.21,15.05-5.64,17.42-5.04,38.44,2.51,57.04-1.26,1.81-.37,5.96-2.27,7.08-2.28,1.53,0,8.4,3.94,9.93,5.08,3.02,2.25,12.08,13.12,16.14,10.28,1.58-1.11-.13-6.22-.06-8.16.27-7.74,5.72-7.96,11.29-10.73-1.05-3.78-4.88-7.2-4.88-11.25,0-5.95,10.56-13.12-2.15-11.44-19.83,2.62-30.42,14.01-51.83,1.36-2-1.19-9.35-5.53-7.3-8.45,1.54-2.2,7.15,3.44,9.18,4.68,20.82,12.71,31.99-.44,51.12-2.06,2.17-.18,5.64.65,6.68.43,3.97-.85,18.72-9.4,23.21-11.92,36.49-20.41,72.2-45.6,98.67-78.19,17.19,4.45,35.67,5.4,52.86.25,2.37-.71,14.83-5.43,14.37-8.06-.1-.58-3.3-3.82-3.91-6.16-1.15-4.42-.53-6.95,1.58-10.73,1.07-1.91,3.11-3.3,3.01-5.45-8.33-.85-17.21-6.12-15.68-15.68-10.29,7.73-21.32,15.32-33.23,20.37-5.2,2.2-14.64,6.98-18.81,1.28-4.95-6.78,6.24-10.2,10.04-13.19-1.94-.52-3.91-.97-5.8-1.73-.67-.27-1.87-.18-1.72-1.08,2.28.02,4.27-.67,6.59-.68s5.81,1.94,7.2-.58ZM78.81,249.58c-1.23-2.75-3.96-1.97-6.26-1.24l6.26,1.24ZM79.44,252.1c-5.42.26-11.35-3.17-16.31.31,4.76.09,10.75,1.74,15.37,1.59,1.6-.05.85-.73.94-1.9ZM78.14,258.33c.46-1.43,1.06-2.17-.89-2.48-4.68-.75-12.81-1.16-17.59-1.27-1.91-.04-5.45,1.33-2.47,1.89,6.68,1.24,14.16.79,20.95,1.87ZM76.3,260.25c-11.29.21-22.55-3.33-33.85-1.25l8.46,1.24c6.03.49,12.16.62,18.17,1.26,2.72.29,7.69,2.98,7.21-1.26ZM73.79,264.64l-67.09-5.65c-.72,2.18,1.49,2.23,3.53,2.43,11.66,1.12,23.52.91,35.04,3.2,4.11-.88,25.87,3.07,27.78,1.78.09-.06.48-1.37.74-1.77ZM71.28,268.4l-66.46-5.02v1.88c21.88,1.44,43.74,3.47,65.55,5.5l.91-2.35ZM70.66,272.79l-66.45-4.7c-.34,2.44,6.32,1.41,7.83,1.56,18.34,1.84,38.1,4.58,56.45,4.99.67.02,1.36.16,1.87.63l.3-2.49ZM72.54,279.06c1.82-1.59-5.33-2.44-5.96-2.5-11.35-.94-23.1-.95-34.46-1.9-3.61-.3-26.68-3.57-27.9-2.5.04,2.96,3.89,1.61,5.95,1.89,15.65,2.12,31.26,2.87,47.05,3.73,2.21.12,14.54,1.97,15.33,1.28ZM76.93,282.83l-72.09-6.28c-.46,1.48,1.12,1.69,2.24,1.82,16.6,1.86,33.46,2.44,50.1,3.83,5.09.42,10.56,1.63,15.65,1.9.7.04,5.71.34,4.1-1.27ZM81.31,289.09c-.58-2.65-7.2-2.83-9.72-3.13-8.93-1.06-18.04-1.1-26.95-1.89-12.82-1.14-25.66-3.25-38.56-3.13-.19,1.2.49,1.69,1.57,1.88,8.89,1.54,19.76,1.27,28.83,1.89l44.83,4.38ZM28.03,286.59l-20.06-1.25c-.18.94.21,1.42,1.06,1.75,1.71.65,18.34,2.07,19,1.38v-1.88ZM82.57,291.6c-13.87-.53-27.56-2.65-41.39-3.49-1.05-.06-1.65-.65-2.49.67-.29,1.6,1.23.79,2.21.9,8.38.95,16.63,1.92,25.06,2.41,4.65.27,10.34.88,15.03.79,1.29-.02,1.84.39,1.58-1.28ZM80.06,295.37l-68.95-5.65c.55,4.07,7.03,2.19,10.33,2.52,17,1.67,34.35,3.99,51.43,5,2.06.12,7.29.89,7.2-1.87ZM74.42,299.13l-58.93-4.39c.4,1.24,1.75,1.59,2.87,1.83,8.11,1.73,19.01,1.22,27.54,1.93,6.65.55,14.14,2.25,20.7,2.5,2.45.09,6.28.47,7.83-1.87ZM60,302.27l-36.36-2.51,5.6,2.22c8.23.87,16.52,1.47,24.82,1.56l5.93-1.27ZM66.89,306.03c-6.14.56-12.33.97-18.5,1.24-.76.03-2.33-.47-2.18.62l12.84.63,7.84-2.49Z"/>
      <path class="cls-1" d="M121.44,247.7c9.35.89,9.46,10.55-.29,11.31-1.87.15-10.84-.57-11.68-1.69-.54-.72-.5-3.13.47-3.37,2.56-.65,12.12,2.07,14,.02.87-.95-.23-1.07-.8-1.39-2.38-1.34-8.21-.69-8.64-3.31-.69-4.2,8.2-5.11,6.93-10.33-4.9-.23-9.69,3.42-13.19,6.56-1.36,1.22-3.07,5.64-5.65,3.83-2.83-1.99,4.1-8.11,5.73-9.39,10.83-8.53,24.83-6.37,13.11,7.78Z"/>
      <path class="cls-1" d="M98.32,282.12c-1.16-.73.95-5.4.25-8.09-1.34-5.11-6.75-4.42-7.58-5.58-2.06-2.86,1.85-3.55,4.29-3.04,5.43,1.14,9.29,9.12,7.69,14.31-.55,1.78-3.04,3.41-4.65,2.4Z"/>
    </g>
  </g>
</svg>