<?xml version="1.0" encoding="UTF-8"?>
<svg id="Layer_2" data-name="Layer 2" xmlns="http://www.w3.org/2000/svg" viewBox="0 0 549.73 505.63">
  <defs>
    <style>
      .cls-1 {
        fill: #adbcc9;
      }

      .cls-2 {
        fill: #bfebe8;
      }

      .cls-3 {
        fill: #e7f3fd;
      }

      .cls-4 {
        fill: #14395c;
      }

      .cls-5 {
        fill: #fefefe;
      }

      .cls-6 {
        fill: #da325b;
      }
    </style>
  </defs>
  <g id="Illustrations">
    <g>
      <path class="cls-1" d="M489.7,24.26c.88.01,1.76-.01,2.64,0,.12,0,1.03.69,2.23.71,9.59.15,19.26,0,28.82-.41,2.76,1.69.69,10.39.63,13.22-.07,3.54.76,16.06.03,18.2-.2.59-3.81,2.85.66,2.64l-.63,106.08c-.12,20.36-.64,41-.72,61.39-.15,38.11.2,76.22.01,114.33-.98,5.23-10.52,2.38-14.16,2.3-7.69-.17-15.53-.54-23.12-.66-5.89-.1-11.71.01-17.53.69,2.07-2.35,5.77-6.25,7.54-8.65,1.9-2.58,2.88-5.76-.96-2.94-2.38,1.75-7.44,7.68-9.88,10.27h-9.25c-3.15-2.97-6.4-5.66-8.93-9.25l-1.64,1c-.37,1.42,5.23,6.81,6.61,8.25l-118.26-.66c.31-.61,1.98-6.53,1.98-6.94v-13.88c0-6.05-3.97-10.55-6.64-15.16l2.65-43.54c7.47-3.13,14.96-6.35,22.48-9.38,1.11-.45,2.98-.14,3.31-.31v74.01s146.67,1.98,146.67,1.98c1.31-36.8.32-73.81.63-110.72.12-14.91,2.5-35.1.72-49.56-.09-.71.03-1.52-.65-1.99-20.98-.64-42.12-.15-63.16-.26-16.97-.09-33.85-.66-50.82-.72-10.77-.04-21.57.14-32.3.08l-.79.58-.29,34.4c-6.78-1.39-13.65-2.56-20.41-4.03l.59-13.15c-1.37.68-7.59.01-7.96.28-.98.71-1.37,9.25-1.29,10.96-.39.39-7.26-1.86-7.26.33v9.91c0,1.3,5.7,1.46,5.91,1.68s.12,5.27.06,6.28c-.74,12.5-2.43,25-2.76,37.54-.42,1.77-3.18.67-3.8,1.16-.57.45-1.92,13.95-1.4,14.46.33.33,3.94-.52,3.98.34l-2.65,36.33c-.47,2.53-6.41,1.45-9.41,2.49-5.68,1.96-3.55,4.76-11.32,1.07-6.73-3.2-13.38-10.9-17.04-17.32-8.12-14.25-6.37-22.93-8.66-38.26-2.68-18.02-12.97-48.64-32.19-54.7-.2-.06-.46.06-.66,0,.25-3.5-2.98-4.77-5.76-5.8-4.42-1.63-10.71-2.62-15.38-2.13l.66-162.56c72.13.09,144.22-1.32,216.4-.69,17.38.15,35.03.47,52.49.69ZM504.8,47.49l-263.52-.76v103.09s261.9.73,261.9.73l1.61-103.06Z"/>
      <path class="cls-4" d="M241.95,194.74c19.22,6.06,29.51,36.68,32.19,54.7,2.28,15.33.53,24.01,8.66,38.26,3.66,6.42,10.31,14.12,17.04,17.32,7.77,3.69,5.64.89,11.32-1.07,3-1.03,8.94.04,9.41-2.49l2.65-36.33c-.04-.85-3.65,0-3.98-.34-.51-.52.83-14.01,1.4-14.46.62-.49,3.38.6,3.8-1.16.33-12.54,2.02-25.04,2.76-37.54.06-1.01.16-6.05-.06-6.28s-5.91-.38-5.91-1.68v-9.91c0-2.19,6.88.06,7.26-.33-.07-1.71.32-10.25,1.29-10.96.37-.27,6.59.4,7.96-.28l-.59,13.15c6.77,1.47,13.63,2.64,20.41,4.03,26.53,5.44,53.35,10.3,79.63,16.49.36,1.06,1.04,3.41-.61,3.42-26.07,10.59-52.44,20.48-78.54,30.99-.68.27-.42,1.27-.48,1.3-.33.17-2.2-.14-3.31.31-7.52,3.03-15.02,6.25-22.48,9.38l-2.65,43.54c2.67,4.62,6.64,9.12,6.64,15.16v13.88c0,.41-1.67,6.33-1.98,6.94-1.27,2.5-3.73,3.32-5.95,4.63-.31.19-1.02-.09-1.63.66-1.65,2.03-.8,7.55-1.02,10.24-1.34,16.39-2.9,32.84-3.96,49.24-.2,3.16.18,6.4,0,9.57-.42,7.01-1.41,14.11-2,21.12.3,2.3,3.24,2.54,4.69,3.96,4,3.92-.39,7.39-.04,7.64l171.45-1.32,3.02,1.08c-1.26,2.94-.12,7.1-.74,9.68-.1.4-1.94.87-1.32,2.43-1.75-.68-3.15-.03-4.61.03-65.31,2.32-133.16.36-198.86.66-.44,0-.88,0-1.32,0-1.98,0-3.97,0-5.95,0-14.73.07-29.68.58-44.26.66-.22,0-.44,0-.66,0-30.38.16-60.79-.04-91.17,0-.66,0-1.32,0-1.98,0-16.97.02-34.1.39-50.87.66-2.97.05-5.06-.22-7.93-.66-.69-.11-1.66.26-1.98-.66.02-3.18.31-6.42-.57-9.53,1.67-2.46,4.21-.87,6.15-1.02,19.25-1.43,39.08.3,58.07-.72,4.01-.22,15.21-8.12,17.51-11.62,3.11-4.75,3.84-11.5,4.06-17.08.1-2.47.47-8.13-.61-9.95-1.29-2.17-11.59-5.43-14.58-6.89-19.69-9.66-35.72-23.14-40.76-45.46-5.83-25.81,8.4-44.47,34.5-30.54-.57-4.37-.62-8.9.32-13.2,2.17-9.93,14.91-20.81,22.45-27.43,6.23-5.47,13.09-10.2,19.16-15.85-8.65-.22-18.16,2.04-26.69.27-9.24-1.93-9.17-8.18-2.32-13.42,4.26-3.26,9.76-4.01,14.27-6.87,8.74-5.53,7.47-19.13,21.22-15.54,5.82,1.52,8.64,8.24,12.02,9.78,1.87.85,5.1.12,7.43.5,5.1.84,10.38,6.34,11.01,11.46.27,2.14-.19,1.64-1.94,1.6.2-2.75-3.94-8.56-6.36-9.83-3.94-2.07-6.95,0-10.2-1.04-3.68-1.17-6.06-8.03-12.37-10.09-10.76-3.51-10.82,7.48-15.86,12.37s-18.9,7.38-21.61,13.22c-2.27,4.89,4.74,5.71,7.9,5.96,13.05,1.02,41.87-1.2,53.04-7.8,1.11-.65,3.5-4.91,3.47-.15-5.66,6.32-20.13,8.43-28.32,8.68-1.07,1.93-2.76,15.31-3.44,15.73-.2.13-1.86.11-1.93.04-.5-.49,1.18-10.1,1.96-11.57-3.88,1.81-7.5,4.89-10.87,7.62-8.26,6.7-25.97,21.22-29.08,31.05-3.47,10.98,2.25,31.4,5.8,42.43.96,2.97,7.98,20.16,7.69,21.25-.26.98-2.02,1.46-2.59,1.07s-3.8-11.63-4.57-13.62c-1.18-3.03-3.31,2.8-4.33,3.74-.84.78-2.45.98-2.84,1.46-.48.6-.52,2.58-1.2,3.76-.85,1.47-3.03,2.52-3.75,4.18-2.86,6.58,8.95,11.57,13.9,12.85,32.54,8.42,32.79-34.77,33.2-55.67.05-2.52-.82-5.9-.65-8.46.13-1.88.54-5.14,2.6-3.35-.17,13.63.66,27.32-1.43,40.81-2.07,13.4-7.87,28.31-23.03,30.16,2.41,13.15,5.84,33.81-2.64,45.26-3.09,4.16-7.31,5.84-11.06,8.73-.55.43-1.21,0-.83,1.51l37.35-.63c1.97-.15,6.65-3.44,6.15-5.48-.45-1.84-3.77-3.84-3.8-6.09-.03-2.06,2.88-6.2,3.59-8.92.83-3.19,1.06-6.86,1-10.16-.24-.98-9.06-2.86-10.57-4.1-.92-.75-.75-1.2-.68-2.28,16.12,5.92,32.51,8.03,48.58.69,4.75-2.17,8.73-5.89,13.51-7.95.78,3.99-8.51,6.58-8.58,8.87-.08,2.75,3.9,11.77,4.43,16.08.22,1.78-.07,8.13.27,8.65.12.19,3.79,1.22,4.37,1.25,7.79.39,19.43-4.17,28.25-5.12,4.91-.53,6.88,1.7,10.5-2.71,4.84-5.89,3.22-6.81-3.54-8.24-5.91-1.24-17.91.06-20.85-6.24-1.68-3.61-.72-7.65-.23-11.47,1.28-10.14,4.52-20.02,5.84-30.16l-8.31,14.48c-1.41,1.62-3.98,6.98-5.89,7.33-1.02.19-1.14-.02-1.01-1,.24-1.8,5.17-7.81,6.49-10.04,11.29-18.99,15.49-40.61,13.26-62.56-.28-2.79-3.89-18.23-3.21-18.91.24-.24,1.95.04,2.37.6,2.95,9.42,4.57,19.8,8.74,28.93,1.01,2.21,4.94,9.72,7.05,10.13,4.72.9,10.26-1.13,14.87-2-1.79-3.21-1.96-6.48-2.99-9.89-1.09-3.61-3.58-5.11-2-9.97.45-1.4,2.12-2.12,2.36-3.63.07-.46-.63-8.07-.76-8.47-.24-.73-7.57-3.77-9.11-4.76-8.84-5.7-15.87-16.15-19.22-26.04l-1.32,11.23c-1.07.12-2.25.08-2.59-1.09-.38-1.33,1.18-10.16,1.26-12.46.86-25.55-6.08-62.46-28.18-78.19-1.93-1.38-4.32-.64-3.53-4.07ZM434.2,217.22l-110.98-21.81c.97,1.78-.57,5.44.28,6.65.67.95,15.16,3.4,17.52,3.95-.54,14.72-2.09,29.46-3.36,44.15-.55.89-14.32,2-15.05,2.79-.31.34-1.02,8.85-.71,9.2l112.31-44.92ZM338.97,208.06l-3.2-.76-2.64,40.3c.45.49,3.53-1.11,3.3-2.31l2.54-37.24ZM320.45,305.25c-2.56,0-7.82.65-10.02,1.93-5.85,3.4-1.6,7.73-2.53,11.98-.45,2.06-3.07,3.33-3.16,6.17-.07,2.23,2.24,4.74,2.96,6.86s.24,4.67,1.62,6.97c4.89,8.14,20.55,7.45,23.24-2.56,2.67-9.96,1.95-31.32-12.11-31.33ZM129.64,326.24c-.64.16-.97.53-1.32.66-.32.12-.92-.09-1.32,0-2.27.54-.95,1.02-1.32,1.32-.2.16-.81.2-1.32.66-1.16,1.06-1.03,1.66-1.32,1.98-.12.13-1.03.02-1.98,1.32-.75,1.02-.85,1.72-1.32,2.64-.23.46-.46.77-.66,1.32-2.65,7.29-2.5,13.55-.66,21.15.33,1.37-.05,3.72,1.98,3.3.1,2.2-.05,3.03.66,5.29.3.95,1.14,1.54,1.32,1.98.26.64.12,1.58.66,2.64.63,1.25.88,2.7,2.64,2.64.24,2.91.55,1.9,1.32,3.3.59,1.08.75,1.17,1.32,1.98.21.3.27.84.66,1.32.8,1,1.24,1.24,1.98,1.98.22.22.44.44.66.66.38.39.56,1.15,1.32,1.32.04.25.47,1.05.66,1.32.62.89,1.52.91,1.98,1.32.42.38.67.81,1.32,1.32.48.38,1.08.48,1.32.66.33.25.65.84,1.32,1.32.42.3.7.71,1.32.66v.66c.05.89,3.81,2.12,4.62,2.64.24.16.59.87,1.32,1.32.51.31.93.44,1.32.66.45.25.88.43,1.32.66.39.2.73.69,1.32.66.03.24-.06.51,0,.66.46,1.07,1.62.45,1.98.66.22.13.4.51.66.66,1.7,1,5.68,3.59,7.27,3.96.34.08.9,0,1.32,0h1.32c.03.22-.02.44,0,.66.3,1.02,1.5.47,1.98.66,2.78,1.1,4.44,3.14,7.26,3.96l-2.61-14.11c-.15-.78-.87-.35-1.35-.43-.21-.03-.45.03-.66,0-.62-.1-1.36.09-1.98,0-.15-.02-.71-.54-1.32-.66-.4-.08-.92.09-1.32,0s-.93.09-1.32,0c-.21-.05-.45.05-.66,0-1.55-.39-5.65-1.95-7.27-2.64-.2-.09-.41-.54-.66-.66-.4-.19-.94-.45-1.32-.66-.43-.24-.89-.42-1.32-.66-.39-.21-.71-.71-1.32-.66-.04-.24-.48-1.05-.66-1.32-.32-.47-1.27-.58-1.32-.66-.36-.62-.99-1.94-1.32-2.64-.37-.81-.16-2.08-1.32-2.64,0-.88,0-1.76,0-2.64.86-.32.63-1.26.66-1.98.45-.43.87-.9,1.32-1.32.52-.49.81-.69,1.32-1.32,1.89-2.32,1.16-2.39,1.98-3.96.2-.39.54-1.15.66-1.32.05-.08,1.18-1.2,1.32-1.32s1.14.25,1.98-.66c1.14-1.23.59-2.44.66-3.96h.66c6.07.55,1.7-6.37.66-9.91-.18-.6-.58-1.05-.66-1.32-.58-1.95-.81-4.01-1.32-5.95-.34-1.31-1.16-2.64-1.32-3.3-.51-2.14-.27-4.75-1.32-6.61-.01-.91.22-3.55-.09-3.91-.27-.32-1.55.11-1.89-.05-.07-.03-.15-1-.66-1.32-1.07-.67-1.66-.49-1.98-.66-.22-.12-.42-.55-.66-.66-2.18-.96-2.8-.79-4.62-1.32-.2-.06-.45-.61-.66-.66-.38-.09-.91.08-1.32,0-.21-.04-.68-.57-1.32-.66-.42-.06-.89.05-1.32,0s-.89.02-1.32,0-.88,0-1.32,0-.89-.04-1.32,0-.89-.05-1.32,0c-.22.03-.45-.03-.66,0-.74.11-1.13.62-1.32.66ZM270.36,404.21c-.48,3.79-2.08,10.95,1.34,13.53,4.65,3.5,24.07,1.63,25.63,6.76,1.26,4.15-2.87,6-3.18,9.44,5.44-.1,10.89-.13,16.17,1.33,1.77-9.94,1.58-20.31,2.32-30.41,1.41-19.23,3.16-38.49,4.58-57.73-.14-.41-6.13-2.99-6.94-3.05-2.1-.13-8.27,2.27-11.27,2.55-6.83.64-12.6-.5-17.76-5.2-.58,5.31-.99,10.71-1.83,16.01-2.44,15.41-7.13,31.54-9.07,46.76ZM200.99,448.48h54.83c-1.56-2.82-.39-4.69.66-7.27-12.63.93-8.95-5.67-10.08-14.04-.61-4.5-3.13-9.27-4.13-13.73-11.62,5.89-24.57,7.2-37.31,4.63-.62,3.71-.63,7.6-1.64,11.25-.61,2.18-2.87,5.38-2.98,6.98-.24,3.56,5.14,4.42,2.95,9.52-.42.98-2.04,1.49-2.3,2.65Z"/>
      <path class="cls-3" d="M491.68,459.72c.26,1.51-.5,2.02-1.3,3-2.95,3.66-9.44,8.84-13.3,11.81-39.4,30.37-97.4,40.83-143.64,20.87-16.73-7.22-31.58-19.13-40.63-35.02,65.7-.3,133.55,1.65,198.86-.66Z"/>
      <path class="cls-3" d="M285.56,460.38v7.93c-41.32,51.85-128.07,42.47-176.34,5.56-4.37-3.34-9.9-7.44-12.61-12.17,16.77-.27,33.9-.64,50.87-.66.09.99,1.89.99,1.98,0,30.38-.04,60.79.16,91.17,0l.33.65.33-.65c14.59-.08,29.53-.59,44.26-.66Z"/>
      <path class="cls-6" d="M25.26,320.29c-2.55.44-12.98,3.2-13.26-.34-.23-2.97,10.11-11.37,12.28-14.19.51-.66,1.28-.84.98-1.98-1.48-1.33-17.05,5.98-17.17-.32-.06-3.23,10.63-13.24,12.53-16.54-6.4,1.61-12.56,4.26-18.43,7.27-1.46.07-2.6-.29-2.05-1.98.33-1.01,17.4-7.77,19.66-8.1,10.42-1.53-1.11,8.96-3.11,11.43s-3.77,4.96-5.31,7.57c.97.73,11.77-2.3,13.87-2.64,9.6-1.52,3.34,4.36,0,7.93s-7.15,6.56-9.91,10.57c3.4.27,6.63-.75,9.91-1.31,2.77-.48,14.96-4.49,11.26,1.69-1.15,1.92-9,9.22-11.26,11.53-1.42,1.44-3.64,2.67-4.62,4.62,1.83.59,3.36-.42,4.62-.65,4.28-.8,8.47-2.58,12.27-3.26.64-.11,2.19-.33,2.27.29.2,1.36-.06,1.54-1.12,2.18-3.4,2.04-9.78,2.07-13.41,4.09-14.84.84-4.95-6.39,0-11.23,2.66-2.6,5.75-4.84,7.93-7.92-2.74-.16-5.3.86-7.93,1.31Z"/>
      <path class="cls-6" d="M524.72,58.62c-4.47.21-.87-2.05-.66-2.64,25.58-3.08,31.37-36.42,9.2-49.18-16.33-9.39-37.23-1.38-40.91,17.46-.88-.01-1.76.01-2.64,0,3.62-22.77,30.9-31.74,48.57-17.2,20.35,16.74,12.22,47.42-13.56,51.56Z"/>
      <path class="cls-6" d="M173.21,70.55c1.76,1.21,10.75,36.1,13.15,40.74l-.98,1.47c-4.8-1.68-39.98-9.44-41.2-11.19-.73-1.05,3.32-5.51,4.28-6.61,7.09-8.08,15.59-15.44,22.44-23.81.49-.53,1.81-.94,2.31-.6ZM183.15,109.5l-11.24-35.01-24.43,25.44,35.67,9.57Z"/>
      <path class="cls-4" d="M220.15,186.81c4.67-.49,10.96.5,15.38,2.13,2.78,1.03,6.01,2.3,5.76,5.8-5.12-1.45-8.19-4.68-14.88-5.28-.86-.08-10.18-.37-8.91,1.3,1.69.05,6.6,2.53,3.98,4.32-.51.35-8.83.83-10.72,1.17-1.33.24-8,1.83-8.42,2.49-2.17,3.36,6.49,2.66,8.25,2.63,2.45-.03,5.26-2.09,6.21,1.54-3.1,3.16-7.74,3.83-11.54,6.34-8.54,5.65-9.49,14.2-9.57,23.8-4.42.48-2.4-5.75-1.98-8.59,1.17-7.87,3.67-13.51,10.57-17.84l5.28-2.64c-10.86,1.71-15.34-6.08-3.3-9.59,3.63-1.06,6.79-1.18,10.57-1-.05-1.14-1.26-.36-1.71-1.92-1.08-3.71,2.03-4.37,5.02-4.68Z"/>
      <path class="cls-2" d="M327.84,345.4l.04,57.84c-1.23,3.07-3.8,2.3-6.65,2.29,1.06-16.4,2.62-32.85,3.96-49.24.22-2.69-.63-8.21,1.02-10.24.61-.75,1.31-.47,1.63-.66Z"/>
      <path class="cls-6" d="M465.26,341.44c2.44-2.59,7.5-8.52,9.88-10.27,3.84-2.82,2.86.36.96,2.94-1.77,2.4-5.47,6.3-7.54,8.65-.95,1.08-5.48,4.18-5.24,5.53,2.26,3.13,16.05,15.52,16.48,17.92.18.98-.03,1.18-1.01,1.01-2.74-.49-14.5-14.88-17.83-17.19l-12.52,13.91-2.35.3c-1.21-.98-.63-1.1,0-2,1.55-2.21,13.21-12.91,13.21-13.87-2.08-2.54-5.06-4.64-7.26-6.94-1.37-1.44-6.98-6.83-6.61-8.25l1.64-1c2.53,3.59,5.78,6.28,8.93,9.25,1.13,1.06,3.38,4.65,4.95,4.65,2.1,0,3.35-3.65,4.29-4.65Z"/>
      <path class="cls-2" d="M25.26,320.29c2.63-.46,5.19-1.48,7.93-1.31-2.18,3.08-5.27,5.32-7.93,7.92v-6.61Z"/>
      <path class="cls-2" d="M291.5,460.38c-1.46,2.33-2.97,5.32-4.61,7.47-.45.59-1.29.41-1.33.46v-7.93c1.98,0,3.97,0,5.95,0Z"/>
      <path class="cls-1" d="M88.68,461.04l-.36.63c-2.83.23-1.62-1.13-1.62-1.29.32.92,1.3.55,1.98.66Z"/>
      <path class="cls-5" d="M241.29,194.74c.21.06.46-.06.66,0-.79,3.44,1.6,2.69,3.53,4.07,22.09,15.73,29.03,52.64,28.18,78.19-.08,2.3-1.64,11.14-1.26,12.46.33,1.17,1.52,1.21,2.59,1.09l1.32-11.23c3.35,9.89,10.38,20.35,19.22,26.04,1.54.99,8.87,4.03,9.11,4.76.13.4.83,8.01.76,8.47-.24,1.51-1.91,2.23-2.36,3.63-1.57,4.86.91,6.36,2,9.97,1.03,3.41,1.2,6.68,2.99,9.89-4.61.86-10.15,2.9-14.87,2-2.11-.4-6.04-7.92-7.05-10.13-4.16-9.12-5.79-19.51-8.74-28.93-.42-.56-2.13-.84-2.37-.6-.67.68,2.93,16.13,3.21,18.91,2.23,21.96-1.97,43.58-13.26,62.56-1.32,2.22-6.25,8.24-6.49,10.04-.13.98-.01,1.19,1.01,1,1.91-.35,4.47-5.72,5.89-7.33l8.31-14.48c-1.33,10.13-4.56,20.02-5.84,30.16-.48,3.82-1.45,7.86.23,11.47,2.94,6.3,14.94,4.99,20.85,6.24,6.75,1.42,8.37,2.34,3.54,8.24-3.62,4.41-5.6,2.19-10.5,2.71-8.82.95-20.46,5.51-28.25,5.12-.58-.03-4.25-1.06-4.37-1.25-.34-.52-.05-6.87-.27-8.65-.53-4.31-4.52-13.33-4.43-16.08.07-2.29,9.36-4.88,8.58-8.87-4.78,2.06-8.76,5.78-13.51,7.95-16.07,7.35-32.47,5.24-48.58-.69-.07,1.08-.24,1.53.68,2.28,1.51,1.24,10.34,3.12,10.57,4.1.06,3.3-.17,6.97-1,10.16-.71,2.72-3.62,6.86-3.59,8.92.04,2.25,3.35,4.26,3.8,6.09.5,2.04-4.18,5.33-6.15,5.48l-37.35.63c-.38-1.52.28-1.08.83-1.51,3.75-2.89,7.97-4.56,11.06-8.73,8.48-11.45,5.05-32.11,2.64-45.26,15.17-1.85,20.96-16.76,23.03-30.16,2.08-13.5,1.26-27.19,1.43-40.81-2.06-1.79-2.47,1.47-2.6,3.35-.18,2.56.7,5.93.65,8.46-.41,20.9-.66,64.09-33.2,55.67-4.95-1.28-16.76-6.27-13.9-12.85.72-1.66,2.89-2.71,3.75-4.18.68-1.17.72-3.16,1.2-3.76.39-.47,1.99-.68,2.84-1.46,1.02-.94,3.15-6.77,4.33-3.74.78,1.99,3.98,13.21,4.57,13.62s2.33-.09,2.59-1.07c.29-1.09-6.74-18.29-7.69-21.25-3.55-11.03-9.27-31.45-5.8-42.43,3.11-9.83,20.82-24.34,29.08-31.05,3.37-2.73,6.99-5.81,10.87-7.62-.79,1.47-2.46,11.09-1.96,11.57.07.07,1.72.08,1.93-.04.69-.42,2.37-13.8,3.44-15.73,8.19-.25,22.66-2.35,28.32-8.68.65-.72,1.89-1.39,1.98-2.64,1.75.04,2.2.54,1.94-1.6-.64-5.12-5.92-10.62-11.01-11.46-2.33-.38-5.55.35-7.43-.5-3.38-1.54-6.21-8.26-12.02-9.78-13.75-3.59-12.48,10-21.22,15.54-4.51,2.86-10.01,3.6-14.27,6.87-6.85,5.24-6.92,11.5,2.32,13.42,8.53,1.78,18.04-.49,26.69-.27-6.07,5.65-12.94,10.38-19.16,15.85-7.54,6.63-20.28,17.5-22.45,27.43l-103.39-.66c-.99-.25.33-1.44.33-1.66v-87.55h146.01c-.42,2.84-2.44,9.06,1.98,8.59.08-9.6,1.03-18.15,9.57-23.8,3.8-2.51,8.44-3.18,11.54-6.34-.95-3.64-3.76-1.58-6.21-1.54-1.76.02-10.42.72-8.25-2.63.42-.66,7.09-2.25,8.42-2.49,1.89-.34,10.21-.82,10.72-1.17,2.62-1.79-2.29-4.27-3.98-4.32-1.28-1.67,8.05-1.38,8.91-1.3,6.69.6,9.76,3.83,14.88,5.28ZM219.49,216.55c.27.27,3.71-.5,5.13-.23,4.01.77,6.05,4.45,8.74,5.86,1.67.88,2.85-.89.9-2.89-2.83-2.92-10.44-7.7-14.38-4.78-.56.42-.56,1.86-.39,2.04ZM229.4,235.05c1.06-18.12-15.26-15.42-14.53.67,3.63.48,6.13-.03,5.91-4.25-.11-2.13-3.37-6.08,1.75-6.33,5.98-.3,1.97,10.47,6.87,9.92ZM245.26,326.9c.67.68,5.39-1.66,5.84-3.1,1.07-3.52-3.54-4.88-3.11-7.05.46-2.34,8.08-2.45,2.84-10.28-.88-1.31-8.2-9.31-9.53-7.97-1.98,1.98,10.9,9.54,8.45,13.74-.29.5-3.89,2.12-4.39,3.91-.92,3.33,3.64,4.81,3.23,7.1-.05.26-5.04,1.91-3.32,3.65Z"/>
      <path class="cls-3" d="M504.8,47.49l-1.61,103.06-261.89-.73V46.72s263.51.76,263.51.76ZM350.9,98.18c-.59,1.04-12.53,6.4-14.5,7-9.95,3.04-26.19,4.35-30.21-8.05-2.3-7.1,2.26-7.28,6.07-12.13,2.08-2.64,10.67-16.59,3.36-16.53-5.85.04-11.3,13.48-12.16,18.3-.25,1.41.3,3.86-.21,4.75-.33.57-8.67,6.11-9.98,6.86-5.56,3.18-15.81,7.5-22.08,8.31-1.12.14-11.28-.45-9.41,2.14s16.93-1.75,19.99-2.79c7.21-2.47,15.05-6.59,20.65-11.73,1.48-.23.76.27.99.97,5.7,17.56,23.57,16.46,38.1,10.38,2.1-.88,8.84-5.21,9.92-5.3.87-.07,3.95,3.08,6.11,3.58,18.09,4.19,31.61-18.12,45.61-21.87,8.98-2.41-.66,11.76,3.7,14.84,5.09,3.6,15.76-6.4,19.99-3.8.6.37,1.87,3.69.78,4.84-1.01,1.07-6.01,2.98-8.28,4.94-3.6,3.11-11.25,14.58-1.96,13.95,3.66-.25,8.8-7.08,10.35-10.18,1.12-2.24,1.62-6.68,3.68-7.55,4.22-1.78,14.04-1.03,18.91-1.57,4.84-.54,9.65-1.74,14.28-3.23,1.15,8.51,18.23,5.15,22.71,1.89,1.55-1.13,2.03-1.75,1.75-3.86-2.51-.53-2.04,1.76-4.14,2.79-4.17,2.04-16.82,5-18.31-1.46,17.05-2.74,8.25-18.02-1.25-4.21-.56.81-.51,2.35-.89,2.73-2.73,2.75-20.9,3.14-25.28,3.46-1.45.11-8.4,1.83-8.92,1.3-.26-.26.19-4.52-3.49-6.1-4.92-2.12-14.24,5.91-17.9,4.73s5.17-16.25-3.38-16.4c-7.08-.12-24.45,16.13-32.27,19.87-5.93,2.84-14.74,5.59-19.59-.45,6.05-4.91,13.2-10.84,15.96-18.39,3.9-10.65-2.87-12.79-10.63-6.67-4.7,3.71-8.95,11.94-9.26,17.89-.09,1.85,1.38,6.44,1.21,6.74Z"/>
      <path class="cls-3" d="M357.57,199.37l.29-34.4.79-.58c10.73.07,21.54-.11,32.3-.08,16.97.06,33.85.63,50.82.72,21.04.11,42.18-.39,63.16.26.68.47.56,1.28.65,1.99,1.77,14.45-.6,34.65-.72,49.56-.3,36.9.68,73.92-.63,110.72l-146.67-1.98v-74.01c.06-.03-.2-1.03.48-1.3,26.1-10.51,52.47-20.4,78.54-30.99,1.65-.01.97-2.36.61-3.42-26.28-6.2-53.11-11.06-79.63-16.49ZM373.43,195.4h108.35l-.39-1.99h-108.29s.33,1.99.33,1.99ZM480.12,217.21c-10.62,1.24-23.48-.92-34.35,0-.46.49-1.15.81-.99,1.64.46,2.32,10.84.37,12.85.31,8.03-.22,16.12.22,24.14.02v-2.64c-.75-.25-1.37.63-1.65.66ZM482.43,246.94l-1.65-1.97c-28.22-.07-56.35,1.02-84.59,1.28l-2.29,1.68,88.53-.99ZM372.76,276.02l108.05-.63,2.28-1.67-109.94.31-.39,1.99ZM483.76,300.47l-110.66.65c-.57,0-.44,1.39-.33,1.65,1.02,2.39,12.97.37,15.49.31,31.81-.75,63.79,1.03,95.5-.64v-1.98Z"/>
      <path class="cls-5" d="M434.2,217.22l-112.31,44.92c-.31-.35.4-8.86.71-9.2.73-.79,14.5-1.9,15.05-2.79,1.27-14.69,2.82-29.43,3.36-44.15-2.36-.55-16.86-3-17.52-3.95-.85-1.21.69-4.87-.28-6.65l110.98,21.81ZM356.25,231.75c1.82.59,4.75-1.04,6.16-.6,2.26.71,3.95,12.76,8.42,6.2-2.26-3.58-12.41-27.93-14.36-28.62-.85-.3-1.95-.07-2.86-.11l-2.01,33.35c-.17,2.48,4.65,1.92,4.65.68v-10.9ZM385.89,210.69c-.68-1.1-22.55-1.68-25.68-2.06.88,1.19,1.74,4.75,3.08,5.19,1.58.52,7.66-1.03,8.88.49.71.88,5.18,14.4,5.24,15.8.09,2.09-4.95.82-5.97,2.64-.04.2,1.25,3.43,1.41,3.53.82.52,18.21-4.61,18.41-5.56.09-.44-.63-1.97-.98-2.29-2.46-2.2-6.28,1.77-8.29.38-.64-.44-4.16-12.32-4.49-14.04-.23-1.21-.14-.78.89-.89,2.01-.21,5.79,1.27,6.98.39.72-.53.93-2.94.53-3.6Z"/>
      <path class="cls-2" d="M312.64,404.87l-42.28-.66c1.94-15.22,6.63-31.35,9.07-46.76.84-5.29,1.25-10.69,1.83-16.01,5.16,4.7,10.93,5.85,17.76,5.2,3-.28,9.17-2.68,11.27-2.55.8.05,6.8,2.64,6.94,3.05-1.42,19.24-3.17,38.5-4.58,57.73Z"/>
      <path class="cls-5" d="M200.99,448.48c.26-1.16,1.88-1.67,2.3-2.65,2.19-5.11-3.19-5.96-2.95-9.52.11-1.59,2.37-4.79,2.98-6.98,1.02-3.65,1.02-7.53,1.64-11.25,12.74,2.57,25.7,1.26,37.31-4.63,1,4.46,3.53,9.22,4.13,13.73,1.12,8.37-2.55,14.97,10.08,14.04-1.05,2.57-2.21,4.44-.66,7.27h-54.83Z"/>
      <path class="cls-6" d="M227.42,258.84c-.09,1.25-1.34,1.92-1.98,2.64.03-4.76-2.36-.5-3.47.15-11.18,6.6-39.99,8.82-53.04,7.8-3.16-.25-10.16-1.07-7.9-5.96,2.71-5.84,16.36-8.12,21.61-13.22s5.1-15.88,15.86-12.37c6.31,2.06,8.69,8.92,12.37,10.09,3.25,1.03,6.26-1.03,10.2,1.04,2.41,1.27,6.56,7.08,6.36,9.83ZM201.49,250.37c-5.09.67-7.65,6.01-1.79,4.88,4.6-.89,6.75-5.53,1.79-4.88ZM223.45,254.22l-8.13,4.74c-.8.38-11.57,3.57-9.7,5.16,3.47.17,15.66-4.34,17.22-6.89.44-.72,1.03-2.56.62-3.01Z"/>
      <path class="cls-5" d="M320.45,305.25c14.06.01,14.78,21.37,12.11,31.33-2.69,10.01-18.35,10.7-23.24,2.56-1.38-2.3-.87-4.76-1.62-6.97s-3.03-4.63-2.96-6.86c.09-2.84,2.7-4.11,3.16-6.17.93-4.24-3.32-8.57,2.53-11.98,2.2-1.28,7.46-1.93,10.02-1.93Z"/>
      <path class="cls-5" d="M312.64,404.87c-.74,10.1-.55,20.46-2.32,30.41-5.28-1.46-10.74-1.44-16.17-1.33.31-3.44,4.44-5.3,3.18-9.44-1.56-5.13-20.98-3.26-25.63-6.76-3.42-2.58-1.82-9.74-1.34-13.53l42.28.66Z"/>
      <path class="cls-1" d="M146.16,328.22c-1.1.69-.66,2.51-.67,3.62-.06,4.51.01,9.05.01,13.56,0,9.02.07,18.07,0,27.09,0,1.1.04,2.21,0,3.3-.03.73.2,1.67-.66,1.98,0-.12-.71-1.02-.71-2.23-.02-15.04.67-30.73.05-45.68-.03-.81.5-2.45-.66-2.31v63.44c1.16.15.63-1.49.66-2.31.09-2.22-.08-4.45-.03-6.67.02-.86.69-1.51.69-1.6,1.16.57.95,1.84,1.32,2.64-1.49,2.98-.29,7.21-.66,10.57-.81-.53-4.58-1.75-4.62-2.64,0-.12.7-.91.7-2.24.07-20.62-.14-41.25-.04-61.86,1.83.53,2.44.36,4.62,1.32Z"/>
      <path class="cls-1" d="M338.97,208.06l-2.54,37.24c.23,1.2-2.85,2.8-3.3,2.31l2.64-40.3,3.2.76Z"/>
      <path class="cls-1" d="M140.87,326.24v64.1c-.62.05-.9-.36-1.32-.66v-63.44c.41.08.94-.09,1.32,0Z"/>
      <path class="cls-2" d="M139.55,326.24v63.44c-.67-.49-.99-1.07-1.32-1.32v-62.77c.64.09,1.11.62,1.32.66Z"/>
      <path class="cls-1" d="M138.23,325.58v62.77c-.24-.19-.84-.28-1.32-.66v-62.11c.43.05.9-.06,1.32,0Z"/>
      <path class="cls-3" d="M136.91,325.58v62.11c-.65-.51-.9-.94-1.32-1.32v-60.79c.44.02.89-.05,1.32,0Z"/>
      <path class="cls-1" d="M135.59,325.58v60.79c-.46-.41-1.36-.43-1.98-1.32,1.22-2.49.65-6.33.66-9.25.02-8.8,0-17.63,0-26.43v-23.79c.44,0,.88-.02,1.32,0Z"/>
      <path class="cls-1" d="M132.94,325.58v23.79c0,8.79-.17,17.64,0,26.43.05,2.38-.36,5.79,0,7.93-.76-.17-.94-.94-1.32-1.32v-56.83c.43-.05.89.04,1.32,0Z"/>
      <path class="cls-1" d="M130.96,325.58v56.17c-.74-.74-1.18-.98-1.98-1.98l.66-53.52c.19-.04.58-.55,1.32-.66Z"/>
      <path class="cls-1" d="M125.68,328.22c.89,14.57-1.19,30.53,0,44.93-1.76.06-2.01-1.39-2.64-2.64.45-.98,1.32-4.85,1.32-5.62v-23.13c0-2.19-.7-6.24-.66-8.59.02-1.43.88-2.81.66-4.29.51-.46,1.12-.5,1.32-.66Z"/>
      <path class="cls-1" d="M128.32,326.9v51.54c-.57-.81-.73-.9-1.32-1.98v-49.56c.4-.09,1,.12,1.32,0Z"/>
      <path class="cls-1" d="M161.35,392.98c-1.49,2.75-.3,6.77-.66,9.91-1.59-.38-5.57-2.97-7.27-3.96,1.46-2.24.32-5.87.66-8.59,1.61.69,5.71,2.25,7.27,2.64Z"/>
      <path class="cls-3" d="M129.64,326.24l-.66,53.52c-.39-.48-.45-1.02-.66-1.32v-51.54c.35-.13.68-.51,1.32-.66Z"/>
      <path class="cls-3" d="M127,326.9v49.56c-.77-1.41-1.08-.39-1.32-3.3-1.19-14.41.89-30.36,0-44.93.38-.3-.95-.78,1.32-1.32Z"/>
      <path class="cls-1" d="M148.8,329.54l-.66,43.61c-.51.63-.8.83-1.32,1.32v-45.59c.32.17.91-.01,1.98.66Z"/>
      <path class="cls-3" d="M149.46,330.86l.66,38.33c-.82,1.57-.09,1.65-1.98,3.96l.66-43.61c.51.32.59,1.29.66,1.32Z"/>
      <path class="cls-1" d="M149.46,330.86c.35.16,1.62-.27,1.89.05.31.36.07,3,.09,3.91.04,2.45-.63,5.54-.69,8.23-.18,8.26.19,16.55.03,24.81-.12.18-.46.93-.66,1.32l-.66-38.33Z"/>
      <path class="cls-2" d="M167.96,393.64c-1.04,2.46-.77,5.63-.66,8.27.04.89-.55,2.75.98,2.31.79-.23.11-9.08.34-10.58.47.08,1.2-.36,1.35.43l2.61,14.11c-2.82-.82-4.48-2.86-7.26-3.96,1.36-3.22.38-7.11.66-10.57.63.09,1.36-.1,1.98,0Z"/>
      <path class="cls-1" d="M123.03,330.86l-.66,37c-.18-.45-1.02-1.03-1.32-1.98v-33.7c.95-1.3,1.86-1.19,1.98-1.32Z"/>
      <path class="cls-3" d="M131.62,382.41c-.22-.22-.44-.44-.66-.66v-56.17c.21-.03.44.03.66,0v56.83Z"/>
      <path class="cls-3" d="M123.03,370.51c-.54-1.06-.4-2-.66-2.64l.66-37c.29-.33.16-.92,1.32-1.98.22,1.48-.64,2.87-.66,4.29-.03,2.35.66,6.4.66,8.59v23.13c0,.77-.87,4.64-1.32,5.62Z"/>
      <path class="cls-3" d="M121.05,365.89c-.71-2.26-.56-3.08-.66-5.29-.36-7.68-.03-15.6.24-23.28.04-1.08.91-1.91-.9-2.49.47-.93.57-1.62,1.32-2.64v33.7Z"/>
      <path class="cls-5" d="M144.84,377.78c0,.88,0,1.76,0,2.64,0,.09-.67.74-.69,1.6-.05,2.22.12,4.45.03,6.67-.03.81.5,2.46-.66,2.31v-63.44c1.16-.15.63,1.49.66,2.31.62,14.95-.06,30.64-.05,45.68,0,1.21.71,2.12.71,2.23Z"/>
      <path class="cls-5" d="M141.53,326.9c-.1,20.61.11,41.24.04,61.86,0,1.33-.71,2.12-.7,2.24v-64.76c.21.05.46.6.66.66Z"/>
      <path class="cls-3" d="M152.76,341.44l-.66,25.11c-.14.12-1.27,1.25-1.32,1.32.17-8.25-.21-16.55-.03-24.81.06-2.7.73-5.79.69-8.23,1.05,1.86.81,4.47,1.32,6.61Z"/>
      <path class="cls-1" d="M120.39,360.6c-2.04.41-1.65-1.93-1.98-3.3l.67-3.62v-17.52c.19-.55.42-.86.65-1.32,1.8.58.94,1.41.9,2.49-.27,7.69-.6,15.61-.24,23.28Z"/>
      <path class="cls-1" d="M154.09,344.74c-1.1.69-.66,2.51-.67,3.62-.06,4.62-.05,9.27,0,13.9.01,1.12-.42,2.94.67,3.62-.84.91-1.83.53-1.98.66l.66-25.11c.16.67.98,2,1.32,3.3Z"/>
      <path class="cls-2" d="M118.41,357.3c-1.84-7.59-1.99-13.85.66-21.15v17.52s-.66,3.62-.66,3.62Z"/>
      <path class="cls-2" d="M134.27,325.58v23.79h-1.32v-23.79c.43-.04.89,0,1.32,0Z"/>
      <path class="cls-3" d="M155.41,350.69c-1.34,3.23-.5,7.61-.66,11.23-.07,1.53.48,2.74-.66,3.96-1.09-.69-.66-2.51-.67-3.62-.05-4.62-.06-9.27,0-13.9.01-1.12-.42-2.94.67-3.62.51,1.94.75,4,1.32,5.95Z"/>
      <path class="cls-3" d="M146.82,328.88v16.52h-1.32c0-4.51-.07-9.04-.01-13.56.01-1.12-.42-2.94.67-3.62.24.11.44.54.66.66Z"/>
      <path class="cls-2" d="M156.07,352.01c1.04,3.54,5.41,10.46-.66,9.91.37-3.14-.83-7.16.66-9.91Z"/>
      <path class="cls-2" d="M147.48,385.71c-1.48,2.53-.3,6.33-.66,9.25-.74-.45-1.08-1.17-1.32-1.32.37-3.36-.83-7.59.66-10.57.33.71.96,2.02,1.32,2.64Z"/>
      <path class="cls-1" d="M165.98,393.64c-.28,3.46.7,7.35-.66,10.57-.49-.19-1.68.36-1.98-.66,1.99.37,1.28-1.01,1.32-2.28.09-2.76-.06-5.54,0-8.29.61.12,1.17.64,1.32.66Z"/>
      <path class="cls-3" d="M164.66,392.98c-.06,2.75.09,5.53,0,8.29-.04,1.27.67,2.65-1.32,2.28-.02-.22.03-.44,0-.66-.38-3.07.27-6.75,0-9.91.4.09.92-.08,1.32,0Z"/>
      <path class="cls-1" d="M148.8,386.37c-1.48,2.53-.3,6.33-.66,9.25-.39-.22-.82-.35-1.32-.66.36-2.92-.82-6.73.66-9.25.05.08,1.01.19,1.32.66Z"/>
      <path class="cls-1" d="M168.62,393.64c-.23,1.5.45,10.35-.34,10.58-1.54.44-.95-1.42-.98-2.31-.11-2.63-.38-5.81.66-8.27.21.03.45-.03.66,0Z"/>
      <path class="cls-2" d="M162.01,392.98v9.91c-.42,0-.98.08-1.32,0,.37-3.14-.83-7.16.66-9.91.21.05.45-.05.66,0Z"/>
      <path class="cls-1" d="M163.33,392.98c.27,3.16-.38,6.84,0,9.91h-1.32v-9.91c.39.09.92-.09,1.32,0Z"/>
      <path class="cls-3" d="M149.46,387.69c.41,2.54-.29,5.92,0,8.59-.44-.23-.87-.41-1.32-.66.36-2.92-.82-6.73.66-9.25.18.27.62,1.08.66,1.32Z"/>
      <path class="cls-1" d="M150.78,388.35c.23,2.75-.33,5.92,0,8.59-.59.03-.94-.46-1.32-.66-.29-2.67.41-6.05,0-8.59.61-.05.94.45,1.32.66Z"/>
      <path class="cls-2" d="M134.27,375.8c0,2.92.56,6.76-.66,9.25-.19-.27-.62-1.07-.66-1.32-.36-2.14.05-5.54,0-7.93h1.32Z"/>
      <path class="cls-3" d="M152.1,389.01c-.28,1.47.39,8.07,0,8.6-.08.11-.95-.06-1.32,0-.06-.15.03-.43,0-.66-.33-2.67.23-5.84,0-8.59.43.24.89.42,1.32.66Z"/>
      <path class="cls-1" d="M153.42,389.67l-.66,8.59c-.37-.21-1.52.41-1.98-.66.37-.06,1.24.11,1.32,0,.39-.53-.28-7.13,0-8.6.38.21.92.47,1.32.66Z"/>
      <path class="cls-1" d="M156.07,352.01c-1.49,2.75-.3,6.77-.66,9.91h-.66c.16-3.63-.68-8,.66-11.23.08.27.48.72.66,1.32Z"/>
      <path class="cls-3" d="M154.09,390.34c-.34,2.72.8,6.35-.66,8.59-.26-.15-.44-.53-.66-.66l.66-8.59c.25.12.46.57.66.66Z"/>
      <path class="cls-3" d="M146.82,372.49v1.98c-.45.43-.87.89-1.32,1.32.04-1.1,0-2.2,0-3.3h1.32Z"/>
      <path class="cls-1" d="M149.46,461.04c-.09.99-1.89.99-1.98,0,.66,0,1.32,0,1.98,0Z"/>
      <path class="cls-2" d="M204.3,206.64c-6.9,4.33-9.4,9.97-10.57,17.84H47.72v87.55c0,.22-1.32,1.41-.33,1.66l103.39.66c-.94,4.31-.89,8.83-.32,13.2-26.1-13.93-40.33,4.74-34.5,30.54,5.04,22.32,21.08,35.8,40.76,45.46l-131.48-.66v-64.76c3.63-2.02,10.01-2.06,13.42-4.09,1.06-.64,1.32-.82,1.12-2.18-.09-.63-1.63-.41-2.27-.29-3.8.68-7.98,2.46-12.27,3.26v-3.96c2.27-2.3,10.11-9.6,11.26-11.53,3.7-6.18-8.5-2.17-11.26-1.69v-9.25c3.34-3.57,9.6-9.45,0-7.93v-93.83s179.04,0,179.04,0Z"/>
      <path class="cls-2" d="M240.63,461.04c.22,0,.44,0,.66,0l-.33.65-.33-.65Z"/>
      <path class="cls-4" d="M229.4,235.05c-4.9.55-.89-10.21-6.87-9.92-5.12.25-1.86,4.21-1.75,6.33.22,4.21-2.28,4.73-5.91,4.25-.72-16.09,15.59-18.79,14.53-.67Z"/>
      <path class="cls-4" d="M245.26,326.9c-1.72-1.74,3.28-3.39,3.32-3.65.41-2.3-4.15-3.77-3.23-7.1.49-1.79,4.1-3.41,4.39-3.91,2.45-4.21-10.42-11.76-8.45-13.74,1.34-1.34,8.66,6.66,9.53,7.97,5.24,7.83-2.38,7.95-2.84,10.28-.43,2.17,4.18,3.53,3.11,7.05-.44,1.45-5.16,3.78-5.84,3.1Z"/>
      <path class="cls-4" d="M219.49,216.55c-.17-.17-.18-1.62.39-2.04,3.94-2.92,11.55,1.86,14.38,4.78,1.94,2,.76,3.77-.9,2.89-2.68-1.41-4.73-5.09-8.74-5.86-1.42-.27-4.86.5-5.13.23Z"/>
      <path class="cls-4" d="M350.9,98.18c.17-.3-1.3-4.89-1.21-6.74.3-5.95,4.56-14.18,9.26-17.89,7.76-6.13,14.52-3.98,10.63,6.67-2.76,7.55-9.91,13.48-15.96,18.39,4.85,6.04,13.67,3.28,19.59.45,7.82-3.74,25.19-20,32.27-19.87,8.55.15-.31,15.22,3.38,16.4s12.98-6.85,17.9-4.73c3.68,1.58,3.22,5.84,3.49,6.1.52.52,7.46-1.2,8.92-1.3,4.37-.33,22.55-.72,25.28-3.46.38-.38.33-1.92.89-2.73,9.5-13.81,18.3,1.47,1.25,4.21,1.49,6.46,14.14,3.51,18.31,1.46,2.11-1.03,1.63-3.32,4.14-2.79.28,2.11-.2,2.73-1.75,3.86-4.48,3.26-21.56,6.63-22.71-1.89-4.62,1.49-9.43,2.68-14.28,3.23-4.87.55-14.69-.21-18.91,1.57-2.06.87-2.56,5.31-3.68,7.55-1.56,3.1-6.69,9.93-10.35,10.18-9.28.63-1.63-10.84,1.96-13.95,2.27-1.96,7.27-3.87,8.28-4.94,1.09-1.15-.18-4.47-.78-4.84-4.23-2.6-14.9,7.4-19.99,3.8-4.36-3.08,5.28-17.25-3.7-14.84-14,3.75-27.52,26.07-45.61,21.87-2.16-.5-5.24-3.65-6.11-3.58-1.07.09-7.82,4.42-9.92,5.3-14.53,6.09-32.4,7.18-38.1-10.38-.23-.7.49-1.2-.99-.97-5.6,5.14-13.44,9.26-20.65,11.73-3.06,1.05-18.16,5.34-19.99,2.79s8.29-2,9.41-2.14c6.27-.81,16.52-5.13,22.08-8.31,1.31-.75,9.66-6.29,9.98-6.86.51-.89-.04-3.35.21-4.75.86-4.82,6.31-18.26,12.16-18.3,7.3-.06-1.29,13.89-3.36,16.53-3.81,4.85-8.37,5.03-6.07,12.13,4.02,12.4,20.26,11.09,30.21,8.05,1.98-.6,13.91-5.97,14.5-7ZM305.38,89.02c3.35-2.46,6.02-5.86,8.03-9.47.7-1.25,4.82-8.5,2.19-9.04-3.89-.8-11.1,14.81-10.22,18.5ZM352.29,96.29c.57.51,3.35-1.8,3.97-2.3,4.3-3.51,14.17-14.51,12.42-20.35-1.13-3.78-7.24.35-9.08,1.89-5.13,4.31-9.25,14.18-7.31,20.76ZM466.58,91.65c.62.51,8.36-2.86,7.92-4.94-2.02-3.21-8.56,4.41-7.92,4.94ZM427.6,100.25c-.89-.95-8.27,5.14-9.23,6.29-1.13,1.35-4.78,6.48-2.7,7.95,3.8,2.69,12.48-10.56,11.93-14.25Z"/>
      <polygon class="cls-4" points="372.76 276.02 373.15 274.03 483.09 273.72 480.81 275.39 372.76 276.02"/>
      <path class="cls-4" d="M483.76,300.47v1.98c-31.71,1.67-63.69-.12-95.5.64-2.52.06-14.47,2.08-15.49-.31-.11-.26-.24-1.66.33-1.65l110.66-.65Z"/>
      <polygon class="cls-4" points="373.43 195.4 373.1 193.42 481.38 193.41 481.77 195.4 373.43 195.4"/>
      <path class="cls-4" d="M482.43,246.94l-88.53.99,2.29-1.68c28.25-.27,56.38-1.36,84.59-1.28l1.65,1.97Z"/>
      <path class="cls-4" d="M480.12,217.21c.28-.03.91-.91,1.65-.66v2.64c-8.02.19-16.1-.24-24.14-.02-2.01.05-12.39,2.01-12.85-.31-.17-.83.53-1.15.99-1.64,10.88-.92,23.73,1.24,34.35,0Z"/>
      <path class="cls-4" d="M356.25,231.75v10.9c0,1.23-4.82,1.8-4.65-.68l2.01-33.35c.91.04,2.01-.19,2.86.11,1.95.69,12.1,25.04,14.36,28.62-4.47,6.56-6.16-5.49-8.42-6.2-1.41-.44-4.35,1.18-6.16.6ZM356.25,217.87v9.91l4.65-1.02c-1.03-2.48-1.97-5.03-3.16-7.44-.44-.89.43-1.82-1.49-1.45Z"/>
      <path class="cls-4" d="M385.89,210.69c.41.66.2,3.07-.53,3.6-1.2.87-4.97-.6-6.98-.39-1.03.11-1.12-.33-.89.89.33,1.72,3.85,13.6,4.49,14.04,2.02,1.39,5.84-2.58,8.29-.38.35.32,1.07,1.86.98,2.29-.2.95-17.59,6.07-18.41,5.56-.16-.1-1.44-3.33-1.41-3.53,1.02-1.82,6.06-.55,5.97-2.64-.06-1.41-4.53-14.92-5.24-15.8-1.23-1.52-7.31.02-8.88-.49-1.34-.44-2.21-4-3.08-5.19,3.12.38,25,.97,25.68,2.06Z"/>
      <path class="cls-4" d="M223.45,254.22c.42.45-.18,2.29-.62,3.01-1.56,2.56-13.75,7.06-17.22,6.89-1.88-1.59,8.9-4.79,9.7-5.16l8.13-4.74Z"/>
      <path class="cls-4" d="M201.49,250.37c4.96-.65,2.8,4-1.79,4.88-5.86,1.13-3.3-4.21,1.79-4.88Z"/>
      <path class="cls-5" d="M134.27,349.37c0,8.8.02,17.63,0,26.43h-1.32c-.17-8.79,0-17.64,0-26.43h1.32Z"/>
      <path class="cls-5" d="M146.82,345.4v27.09h-1.32c.07-9.02,0-18.07,0-27.09h1.32Z"/>
      <path class="cls-3" d="M352.29,96.29c-1.93-6.58,2.18-16.45,7.31-20.76,1.83-1.54,7.94-5.67,9.08-1.89,1.75,5.84-8.13,16.84-12.42,20.35-.61.5-3.4,2.82-3.97,2.3Z"/>
      <path class="cls-3" d="M427.6,100.25c.56,3.69-8.13,16.94-11.93,14.25-2.08-1.47,1.57-6.61,2.7-7.95.96-1.15,8.34-7.24,9.23-6.29Z"/>
      <path class="cls-3" d="M305.38,89.02c-.88-3.7,6.33-19.3,10.22-18.5,2.63.54-1.49,7.78-2.19,9.04-2.01,3.61-4.69,7.01-8.03,9.47Z"/>
      <path class="cls-3" d="M466.58,91.65c-.64-.53,5.9-8.15,7.92-4.94.43,2.08-7.3,5.45-7.92,4.94Z"/>
      <path class="cls-3" d="M356.25,217.87c1.92-.36,1.05.57,1.49,1.45,1.19,2.41,2.13,4.96,3.16,7.44l-4.65,1.02v-9.91Z"/>
    </g>
  </g>
</svg>