<?xml version="1.0" encoding="UTF-8"?>
<svg id="Layer_2" data-name="Layer 2" xmlns="http://www.w3.org/2000/svg" viewBox="0 0 282.26 233.05">
  <defs>
    <style>
      .cls-1 {
        fill: #e01c4a;
      }

      .cls-2 {
        fill: #ffd557;
      }

      .cls-3 {
        fill: #fff;
      }

      .cls-4 {
        fill: #4ecdc4;
      }

      .cls-5 {
        fill: #0f3559;
      }
    </style>
  </defs>
  <g id="Illustrations">
    <g>
      <path class="cls-5" d="M140.09,210.3v-2c.66,0,1.32,0,1.97-.02l.04,2c-.67.01-1.34.02-2.02.02ZM138.07,210.28c-.67-.01-1.35-.03-2.02-.06l.08-2c.66.03,1.31.05,1.97.06l-.04,2ZM144.12,210.22l-.09-2c.66-.03,1.32-.06,1.97-.11l.13,2c-.67.04-1.34.08-2.01.11ZM134.04,210.12c-.67-.04-1.34-.09-2.01-.15l.17-1.99c.65.06,1.31.1,1.97.15l-.13,2ZM148.14,209.96l-.17-1.99c.66-.06,1.31-.12,1.97-.19l.21,1.99c-.67.07-1.34.14-2.01.19ZM130.02,209.77c-.67-.07-1.34-.15-2-.23l.25-1.98c.65.08,1.31.16,1.96.23l-.21,1.99ZM152.15,209.53l-.26-1.98c.65-.08,1.31-.18,1.96-.27l.3,1.98c-.66.1-1.33.19-2,.28ZM126.02,209.26c-.67-.1-1.33-.21-1.99-.32l.34-1.97c.65.11,1.3.22,1.95.31l-.3,1.98ZM156.14,208.93l-.34-1.97c.65-.11,1.3-.23,1.94-.36l.38,1.96c-.66.13-1.32.25-1.98.37ZM122.04,208.58c-.66-.13-1.32-.26-1.98-.41l.42-1.95c.64.14,1.29.27,1.93.4l-.38,1.96ZM160.1,208.16l-.43-1.95c.64-.14,1.29-.29,1.92-.44l.47,1.94c-.65.16-1.31.31-1.97.45ZM118.1,207.72c-.65-.16-1.31-.32-1.96-.49l.51-1.93c.64.17,1.27.33,1.91.48l-.47,1.94ZM164.03,207.21l-.51-1.93c.64-.17,1.27-.34,1.9-.52l.55,1.92c-.65.19-1.29.36-1.95.54ZM114.19,206.69c-.65-.19-1.29-.38-1.93-.58l.59-1.91c.63.19,1.26.38,1.89.56l-.55,1.92ZM167.91,206.1l-.59-1.91c.63-.2,1.26-.4,1.88-.61l.63,1.9c-.64.21-1.28.42-1.92.62ZM110.33,205.5c-.64-.21-1.28-.43-1.91-.66l.68-1.88c.62.22,1.24.44,1.87.65l-.63,1.9ZM171.73,204.82l-.68-1.88c.62-.22,1.24-.45,1.85-.69l.72,1.87c-.63.24-1.26.47-1.89.7ZM106.52,204.13c-.63-.24-1.26-.49-1.88-.74l.75-1.85c.61.25,1.22.49,1.84.73l-.72,1.87ZM175.5,203.37l-.76-1.85c.61-.25,1.21-.5,1.81-.76l.8,1.83c-.61.27-1.23.53-1.85.78ZM102.77,202.6c-.62-.27-1.24-.54-1.85-.83l.84-1.82c.6.28,1.2.54,1.81.81l-.8,1.83ZM179.19,201.77l-.84-1.82c.6-.27,1.19-.56,1.78-.84l.87,1.8c-.6.29-1.21.58-1.82.86ZM99.1,200.91c-.61-.29-1.21-.6-1.81-.9l.91-1.78c.59.3,1.18.6,1.77.88l-.87,1.8ZM182.81,200.01l-.91-1.78c.58-.3,1.17-.61,1.74-.92l.95,1.76c-.59.32-1.18.63-1.78.94ZM95.5,199.07c-.59-.32-1.18-.65-1.77-.98l.99-1.74c.57.33,1.15.65,1.73.96l-.95,1.76ZM186.35,198.1l-.99-1.74c.57-.33,1.14-.66,1.7-.99l1.03,1.72c-.58.34-1.16.68-1.74,1.01ZM91.99,197.07c-.58-.35-1.15-.7-1.72-1.06l1.06-1.69c.56.35,1.12.69,1.69,1.03l-1.03,1.72ZM189.81,196.03l-1.06-1.69c.56-.35,1.11-.7,1.66-1.07l1.1,1.67c-.56.37-1.13.73-1.69,1.09ZM88.56,194.92c-.56-.37-1.12-.75-1.68-1.13l1.13-1.65c.54.37,1.09.74,1.64,1.1l-1.1,1.67ZM193.17,193.82l-1.13-1.65c.54-.37,1.08-.75,1.61-1.14l1.17,1.62c-.54.39-1.09.78-1.65,1.16ZM85.24,192.63c-.55-.39-1.09-.79-1.62-1.2l1.2-1.6c.53.4,1.06.79,1.59,1.17l-1.17,1.62ZM196.44,191.46l-1.2-1.6c.53-.4,1.05-.8,1.56-1.2l1.24,1.57c-.53.42-1.06.83-1.6,1.23ZM82.01,190.19c-.53-.42-1.05-.84-1.57-1.27l1.27-1.54c.51.42,1.02.83,1.54,1.24l-1.24,1.57ZM199.61,188.97l-1.27-1.54c.51-.42,1.01-.84,1.51-1.27l1.3,1.52c-.51.44-1.02.87-1.54,1.3ZM78.9,187.63c-.51-.44-1.02-.88-1.52-1.33l1.34-1.49c.49.44.98.88,1.48,1.3l-1.3,1.52ZM202.66,186.34l-1.34-1.49c.49-.44.97-.88,1.46-1.33l1.37,1.46c-.49.46-.99.91-1.49,1.36ZM75.9,184.93c-.49-.46-.98-.93-1.46-1.4l1.4-1.43c.47.46.95.92,1.43,1.37l-1.37,1.46ZM205.61,183.58l-1.4-1.43c.47-.46.94-.93,1.4-1.4l1.43,1.4c-.47.48-.95.96-1.43,1.43ZM73.01,182.11c-.47-.48-.94-.97-1.4-1.46l1.46-1.37c.45.48.91.96,1.37,1.43l-1.43,1.4ZM208.43,180.7l-1.46-1.37c.45-.48.9-.96,1.34-1.45l1.49,1.34c-.45.5-.9,1-1.37,1.49ZM70.26,179.16c-.45-.5-.89-1-1.33-1.51l1.52-1.3c.43.5.86.99,1.3,1.48l-1.49,1.34ZM211.13,177.7l-1.52-1.31c.43-.5.85-1,1.27-1.51l1.54,1.27c-.43.52-.86,1.03-1.3,1.54ZM67.63,176.11c-.43-.52-.85-1.04-1.26-1.57l1.57-1.24c.41.52.82,1.03,1.24,1.54l-1.54,1.27ZM213.7,174.59l-1.57-1.24c.41-.52.81-1.04,1.21-1.56l1.6,1.21c-.41.54-.82,1.07-1.23,1.6ZM65.13,172.94c-.4-.54-.8-1.08-1.2-1.62l1.62-1.17c.38.53.78,1.06,1.17,1.59l-1.6,1.2ZM216.13,171.37l-1.62-1.17c.39-.53.77-1.07,1.14-1.62l1.65,1.14c-.38.55-.77,1.1-1.16,1.65ZM62.77,169.67c-.38-.55-.76-1.11-1.13-1.67l1.67-1.1c.36.55.73,1.09,1.1,1.63l-1.65,1.14ZM218.43,168.04l-1.67-1.1c.36-.55.72-1.1,1.07-1.66l1.69,1.06c-.36.57-.72,1.14-1.09,1.7ZM60.56,166.31c-.36-.57-.71-1.14-1.05-1.72l1.72-1.03c.34.56.68,1.12,1.03,1.68l-1.69,1.06ZM220.58,164.62l-1.72-1.03c.34-.57.67-1.13,1-1.71l1.74.99c-.33.59-.67,1.17-1.02,1.75ZM58.49,162.85c-.33-.58-.66-1.17-.98-1.76l1.76-.95c.31.58.63,1.15.96,1.72l-1.74.99ZM222.58,161.11l-1.76-.95c.31-.58.62-1.16.92-1.75l1.78.91c-.31.6-.62,1.2-.94,1.79ZM56.58,159.31c-.31-.6-.61-1.2-.9-1.8l1.8-.88c.29.59.58,1.18.88,1.76l-1.78.91ZM224.43,157.51l-1.8-.88c.29-.59.57-1.19.85-1.79l1.82.84c-.28.61-.57,1.22-.87,1.83ZM54.82,155.69c-.28-.61-.55-1.22-.82-1.84l1.83-.8c.26.6.53,1.2.8,1.8l-1.82.84ZM226.12,153.83l-1.83-.8c.26-.6.52-1.21.77-1.82l1.85.76c-.26.63-.52,1.25-.79,1.87ZM53.21,152.01c-.25-.62-.5-1.25-.74-1.88l1.87-.72c.24.62.48,1.23.73,1.84l-1.85.76ZM227.65,150.09l-1.87-.72c.24-.62.47-1.23.69-1.86l1.88.67c-.23.64-.46,1.27-.7,1.9ZM51.77,148.24c-.23-.63-.45-1.27-.66-1.91l1.9-.64c.21.62.43,1.25.65,1.87l-1.88.68ZM229.01,146.28l-1.9-.63c.21-.63.41-1.26.61-1.89l1.91.59c-.2.65-.41,1.29-.62,1.93ZM50.49,144.41c-.2-.64-.39-1.29-.58-1.93l1.92-.55c.18.63.37,1.26.57,1.89l-1.91.59ZM230.21,142.42l-1.92-.55c.18-.63.36-1.27.52-1.9l1.93.51c-.17.65-.35,1.3-.54,1.95ZM49.37,140.53c-.17-.65-.34-1.3-.49-1.96l1.94-.47c.15.64.32,1.28.48,1.91l-1.93.51ZM231.24,138.51l-1.94-.47c.15-.64.3-1.28.44-1.92l1.95.42c-.14.66-.29,1.31-.45,1.97ZM48.43,136.61c-.14-.66-.28-1.32-.41-1.98l1.96-.38c.13.65.26,1.29.4,1.93l-1.95.43ZM232.1,134.57l-1.96-.38c.13-.64.24-1.29.36-1.94l1.97.34c-.11.66-.24,1.33-.36,1.99ZM47.65,132.65c-.11-.66-.22-1.32-.32-1.99l1.98-.3c.1.65.2,1.3.32,1.95l-1.97.34ZM232.78,130.59l-1.98-.3c.1-.65.19-1.3.27-1.96l1.98.25c-.09.67-.18,1.33-.28,2ZM47.05,128.66c-.09-.67-.16-1.33-.24-2l1.99-.22c.07.66.15,1.31.23,1.96l-1.98.26ZM233.3,126.59l-1.99-.21c.07-.65.13-1.31.19-1.97l1.99.17c-.06.67-.12,1.34-.19,2.01ZM46.62,124.65c-.06-.67-.11-1.34-.15-2.01l2-.13c.04.66.09,1.31.15,1.97l-1.99.17ZM233.64,122.57l-2-.13c.04-.66.08-1.31.1-1.97l2,.09c-.03.67-.06,1.34-.11,2.01ZM46.36,120.62c-.03-.67-.05-1.34-.07-2.01l2-.04c.01.66.04,1.31.06,1.97l-2,.09ZM233.81,118.54l-2-.04c.01-.66.02-1.31.02-1.97v-.14h2v.14c0,.67,0,1.35-.02,2.02ZM46.27,116.59v-.07c0-.65,0-1.3.02-1.94l2,.04c-.01.63-.02,1.27-.02,1.9l-2,.07ZM231.81,114.41c-.02-.66-.04-1.31-.07-1.97l2-.09c.03.67.05,1.34.07,2.01l-2,.05ZM48.35,112.64l-2-.08c.03-.67.06-1.34.1-2.01l2,.12c-.04.66-.08,1.31-.1,1.97ZM231.64,110.47c-.04-.66-.09-1.31-.15-1.97l1.99-.17c.06.67.11,1.34.15,2.01l-2,.13ZM48.6,108.7l-1.99-.17c.06-.67.12-1.34.19-2.01l1.99.21c-.07.65-.13,1.31-.19,1.97ZM231.29,106.53c-.07-.66-.15-1.31-.23-1.96l1.98-.26c.09.67.17,1.33.24,2l-1.99.22ZM49.01,104.78l-1.98-.25c.09-.67.18-1.34.28-2l1.98.3c-.1.65-.19,1.3-.27,1.96ZM230.79,102.62c-.1-.65-.21-1.3-.32-1.95l1.97-.34c.11.66.22,1.32.32,1.99l-1.98.3ZM49.6,100.87l-1.97-.34c.11-.66.23-1.33.36-1.98l1.96.38c-.13.65-.24,1.29-.36,1.94ZM230.11,98.72c-.13-.65-.26-1.29-.4-1.93l1.95-.43c.14.66.28,1.31.41,1.98l-1.96.39ZM50.35,96.99l-1.95-.42c.14-.66.29-1.31.45-1.97l1.95.47c-.15.64-.3,1.28-.44,1.92ZM229.26,94.87c-.15-.64-.32-1.28-.48-1.91l1.93-.51c.17.65.34,1.3.5,1.96l-1.94.47ZM51.27,93.15l-1.93-.51c.17-.65.35-1.3.53-1.95l1.92.55c-.18.63-.35,1.27-.52,1.9ZM228.25,91.05c-.18-.63-.37-1.26-.57-1.89l1.91-.6c.2.64.39,1.29.58,1.93l-1.92.55ZM52.35,89.36l-1.91-.59c.2-.65.41-1.29.62-1.93l1.9.63c-.21.63-.41,1.26-.61,1.89ZM227.08,87.28c-.21-.62-.43-1.25-.65-1.87l1.88-.68c.23.63.45,1.27.66,1.91l-1.9.64ZM53.61,85.6l-1.88-.67c.23-.64.46-1.27.7-1.9l1.87.71c-.24.62-.47,1.24-.69,1.86ZM225.74,83.57c-.24-.62-.48-1.23-.73-1.84l1.85-.76c.25.62.5,1.25.75,1.87l-1.87.72ZM55.02,81.9l-1.85-.75c.25-.63.52-1.25.78-1.87l1.83.8c-.26.61-.52,1.21-.77,1.83ZM224.24,79.92c-.26-.6-.53-1.2-.81-1.8l1.82-.84c.28.61.55,1.22.82,1.83l-1.83.8ZM56.6,78.26l-1.82-.84c.28-.61.57-1.22.86-1.83l1.8.87c-.29.59-.57,1.19-.85,1.79ZM222.59,76.34c-.29-.59-.58-1.18-.88-1.76l1.78-.91c.31.6.61,1.2.9,1.8l-1.8.88ZM58.33,74.7l-1.78-.91c.31-.6.62-1.2.94-1.79l1.76.95c-.31.58-.62,1.16-.92,1.75ZM220.79,72.84c-.31-.58-.63-1.15-.96-1.72l1.74-.99c.33.58.66,1.17.98,1.76l-1.76.95ZM60.21,71.22l-1.74-.99c.33-.59.67-1.17,1.02-1.75l1.72,1.02c-.34.57-.67,1.14-1,1.71ZM218.84,69.42c-.34-.56-.68-1.12-1.03-1.68l1.69-1.06c.36.57.71,1.14,1.05,1.72l-1.71,1.03ZM62.24,67.83l-1.69-1.06c.36-.57.72-1.14,1.09-1.7l1.67,1.1c-.36.55-.72,1.11-1.07,1.66ZM216.74,66.08c-.36-.55-.73-1.09-1.1-1.63l1.65-1.14c.38.55.76,1.11,1.13,1.67l-1.67,1.1ZM64.41,64.52l-1.65-1.13c.38-.55.77-1.11,1.16-1.65l1.62,1.17c-.39.53-.76,1.07-1.14,1.62ZM214.5,62.84c-.38-.53-.78-1.06-1.17-1.59l1.6-1.21c.4.54.8,1.08,1.2,1.62l-1.62,1.17ZM66.72,61.32l-1.6-1.2c.4-.54.82-1.07,1.23-1.6l1.57,1.24c-.41.52-.81,1.04-1.21,1.57ZM212.13,59.69c-.41-.52-.82-1.03-1.24-1.54l1.54-1.27c.43.52.85,1.04,1.27,1.57l-1.57,1.24ZM69.17,58.21l-1.54-1.27c.43-.52.86-1.03,1.3-1.54l1.52,1.3c-.43.5-.85,1-1.27,1.51ZM209.61,56.65c-.43-.5-.86-.99-1.3-1.48l1.49-1.34c.45.5.89,1,1.33,1.51l-1.52,1.31ZM71.74,55.22l-1.49-1.34c.45-.5.9-1,1.36-1.49l1.46,1.37c-.45.48-.9.97-1.34,1.46ZM206.98,53.71c-.45-.48-.91-.95-1.37-1.42l1.43-1.4c.47.48.94.97,1.4,1.46l-1.46,1.37ZM74.45,52.34l-1.43-1.4c.47-.48.95-.96,1.43-1.43l1.4,1.43c-.47.46-.94.93-1.4,1.4ZM204.21,50.89c-.47-.46-.95-.92-1.43-1.36l1.37-1.46c.49.46.98.93,1.46,1.4l-1.4,1.43ZM77.27,49.57l-1.37-1.46c.49-.46.99-.92,1.49-1.36l1.34,1.49c-.49.44-.97.88-1.45,1.33ZM201.33,48.19c-.49-.44-.98-.87-1.48-1.3l1.3-1.52c.51.44,1.02.88,1.52,1.33l-1.34,1.49ZM80.2,46.94l-1.3-1.52c.51-.44,1.02-.87,1.54-1.3l1.27,1.54c-.51.42-1.01.84-1.51,1.27ZM198.33,45.62c-.51-.42-1.02-.83-1.54-1.24l1.24-1.57c.53.42,1.05.84,1.57,1.27l-1.27,1.54ZM83.25,44.43l-1.24-1.57c.53-.42,1.06-.83,1.6-1.23l1.21,1.6c-.52.4-1.05.8-1.56,1.21ZM195.23,43.17c-.53-.4-1.06-.79-1.59-1.17l1.17-1.62c.55.39,1.09.79,1.63,1.2l-1.2,1.6ZM86.39,42.05l-1.17-1.62c.54-.39,1.09-.78,1.65-1.16l1.14,1.65c-.54.37-1.08.75-1.61,1.14ZM192.02,40.86c-.54-.37-1.09-.74-1.64-1.1l1.1-1.67c.56.37,1.12.75,1.68,1.13l-1.13,1.65ZM89.64,39.81l-1.1-1.67c.56-.37,1.12-.73,1.69-1.09l1.06,1.69c-.56.35-1.11.71-1.66,1.07ZM188.72,38.69c-.56-.35-1.12-.69-1.69-1.03l1.03-1.72c.58.35,1.15.7,1.72,1.05l-1.06,1.69ZM92.98,37.71l-1.03-1.72c.58-.34,1.15-.68,1.74-1.02l.99,1.74c-.57.33-1.14.66-1.7.99ZM185.32,36.66c-.57-.33-1.15-.65-1.73-.96l.95-1.76c.59.32,1.18.65,1.77.98l-.99,1.74ZM96.4,35.76l-.95-1.76c.59-.32,1.18-.63,1.78-.94l.91,1.78c-.58.3-1.17.61-1.74.92ZM181.84,34.78c-.59-.3-1.18-.6-1.77-.88l.87-1.8c.61.29,1.21.6,1.81.9l-.91,1.78ZM99.9,33.96l-.88-1.8c.6-.29,1.21-.58,1.82-.86l.84,1.82c-.6.27-1.19.56-1.78.84ZM178.28,33.06c-.6-.28-1.2-.54-1.81-.81l.79-1.84c.62.27,1.24.54,1.85.82l-.83,1.82ZM103.48,32.32l-.8-1.83c.61-.27,1.23-.53,1.85-.78l.76,1.85c-.61.25-1.21.5-1.81.76ZM174.64,31.48c-.61-.25-1.23-.49-1.84-.73l.71-1.87c.63.24,1.26.49,1.88.74l-.75,1.85ZM107.13,30.82l-.72-1.87c.63-.24,1.26-.48,1.89-.7l.68,1.88c-.62.22-1.24.45-1.85.69ZM170.94,30.07c-.62-.22-1.25-.44-1.87-.65l.63-1.9c.64.21,1.28.43,1.91.66l-.67,1.88ZM110.84,29.49l-.64-1.9c.64-.21,1.28-.42,1.92-.62l.59,1.91c-.63.2-1.26.4-1.88.61ZM167.18,28.82c-.63-.19-1.26-.38-1.89-.56l.55-1.92c.65.18,1.29.38,1.93.58l-.59,1.91ZM114.61,28.31l-.55-1.92c.65-.19,1.29-.36,1.94-.54l.51,1.93c-.64.17-1.27.34-1.9.53ZM163.38,27.73c-.64-.17-1.27-.33-1.92-.48l.47-1.95c.65.16,1.31.32,1.96.49l-.51,1.93ZM118.43,27.3l-.47-1.94c.65-.16,1.31-.31,1.97-.45l.43,1.95c-.64.14-1.29.29-1.92.44ZM159.54,26.81c-.64-.14-1.29-.27-1.93-.4l.38-1.96c.66.13,1.32.26,1.98.41l-.42,1.95ZM122.29,26.46l-.38-1.96c.66-.13,1.32-.25,1.98-.37l.34,1.97c-.65.11-1.3.23-1.94.36ZM155.67,26.06c-.65-.11-1.3-.22-1.95-.31l.29-1.98c.67.1,1.33.21,1.99.32l-.34,1.97ZM126.18,25.78l-.3-1.98c.66-.1,1.33-.19,2-.28l.26,1.98c-.65.08-1.31.18-1.96.27ZM151.76,25.48c-.65-.08-1.31-.16-1.96-.23l.21-1.99c.67.07,1.34.15,2,.23l-.25,1.98ZM130.09,25.27l-.21-1.99c.67-.07,1.34-.14,2.01-.19l.17,1.99c-.66.06-1.31.12-1.97.19ZM147.83,25.07c-.65-.06-1.31-.1-1.97-.14l.12-2c.67.04,1.34.09,2.01.15l-.17,1.99ZM134.03,24.93l-.13-2c.67-.04,1.34-.08,2.02-.11l.09,2c-.66.03-1.32.06-1.97.11ZM143.89,24.82c-.66-.03-1.31-.05-1.97-.06l.04-2c.67.01,1.35.03,2.02.06l-.08,2ZM137.97,24.76l-.04-2c.67-.01,1.34-.02,2.02-.02v2c-.66,0-1.32,0-1.97.02Z"/>
      <path class="cls-5" d="M140.05,233.05h-.97s.02-2,.02-2h.96s1.03,0,1.03,0l.02,2h-1.05ZM137.06,233.01c-.67-.02-1.35-.04-2.02-.07l.08-2c.66.03,1.32.05,1.99.07l-.05,2ZM143.12,233.01l-.05-2c.66-.02,1.32-.04,1.98-.07l.09,2c-.67.03-1.34.05-2.02.07ZM133.02,232.84c-.67-.04-1.35-.09-2.02-.14l.15-1.99c.66.05,1.32.1,1.98.14l-.12,2ZM147.16,232.84l-.12-2c.66-.04,1.32-.09,1.98-.14l.15,1.99c-.67.05-1.34.1-2.02.14ZM128.99,232.53c-.67-.06-1.34-.13-2.01-.21l.22-1.99c.66.07,1.32.14,1.98.2l-.19,1.99ZM151.19,232.52l-.19-1.99c.66-.06,1.32-.13,1.98-.2l.22,1.99c-.67.08-1.34.14-2.01.21ZM124.97,232.08c-.67-.09-1.34-.18-2-.28l.29-1.98c.65.1,1.31.19,1.97.27l-.26,1.98ZM155.21,232.07l-.26-1.98c.66-.09,1.31-.18,1.97-.27l.29,1.98c-.67.1-1.33.19-2,.28ZM120.96,231.49c-.67-.11-1.33-.23-1.99-.35l.36-1.97c.65.12,1.3.23,1.96.34l-.33,1.97ZM159.21,231.48l-.33-1.97c.66-.11,1.31-.22,1.96-.34l.36,1.97c-.66.12-1.33.24-1.99.35ZM116.99,230.77c-.66-.13-1.32-.27-1.98-.42l.43-1.95c.65.14,1.29.28,1.95.41l-.39,1.96ZM163.19,230.75l-.39-1.96c.65-.13,1.3-.27,1.94-.41l.43,1.95c-.66.14-1.32.28-1.98.42ZM113.04,229.9c-.66-.16-1.31-.32-1.96-.48l.5-1.94c.64.16,1.28.32,1.93.48l-.46,1.95ZM167.14,229.88l-.46-1.95c.65-.15,1.29-.31,1.93-.48l.5,1.94c-.65.17-1.31.33-1.96.49ZM109.12,228.9c-.65-.18-1.3-.36-1.95-.55l.56-1.92c.63.19,1.27.37,1.91.54l-.53,1.93ZM171.05,228.88l-.53-1.93c.64-.18,1.28-.36,1.91-.54l.56,1.92c-.65.19-1.29.38-1.94.55ZM105.24,227.76c-.65-.2-1.29-.41-1.93-.62l.63-1.9c.63.21,1.26.41,1.9.61l-.6,1.91ZM174.93,227.74l-.6-1.91c.63-.2,1.26-.4,1.89-.61l.63,1.9c-.64.21-1.28.42-1.92.62ZM101.38,226.48c-.64-.22-1.28-.45-1.91-.69l.7-1.87c.62.23,1.25.46,1.88.68l-.66,1.89ZM178.77,226.46l-.66-1.89c.62-.22,1.25-.45,1.87-.68l.7,1.87c-.63.23-1.27.46-1.9.69ZM97.58,225.07c-.63-.25-1.26-.5-1.88-.76l.76-1.85c.61.25,1.23.5,1.85.74l-.73,1.86ZM182.56,225.05l-.73-1.86c.62-.24,1.23-.49,1.84-.74l.76,1.85c-.62.26-1.25.51-1.88.75ZM93.83,223.52c-.62-.27-1.24-.54-1.85-.82l.83-1.82c.6.27,1.21.54,1.82.81l-.79,1.84ZM186.3,223.51l-.79-1.83c.61-.26,1.21-.53,1.81-.8l.83,1.82c-.61.28-1.23.55-1.84.82ZM189.97,221.85l-.86-1.81c.6-.28,1.19-.57,1.78-.86l.89,1.79c-.6.3-1.21.59-1.81.88ZM90.13,221.84c-.61-.29-1.22-.59-1.82-.89l.89-1.79c.6.3,1.19.59,1.79.87l-.86,1.81ZM193.58,220.05l-.92-1.78c.59-.3,1.17-.61,1.75-.93l.95,1.76c-.59.32-1.19.63-1.78.94ZM86.5,220.04c-.6-.31-1.2-.63-1.79-.95l.95-1.76c.58.32,1.17.63,1.76.93l-.92,1.78ZM197.13,218.14l-.98-1.74c.58-.32,1.15-.65,1.72-.99l1.01,1.73c-.58.34-1.16.67-1.75,1ZM82.94,218.11c-.59-.33-1.17-.67-1.76-1.01l1.01-1.73c.57.34,1.15.67,1.73.99l-.98,1.74ZM200.61,216.1l-1.04-1.71c.57-.34,1.13-.69,1.68-1.05l1.07,1.69c-.57.36-1.14.71-1.71,1.07ZM79.44,216.07c-.58-.35-1.15-.71-1.72-1.07l1.07-1.69c.56.36,1.12.71,1.69,1.05l-1.04,1.71ZM204.02,213.94l-1.1-1.67c.55-.36,1.1-.73,1.65-1.1l1.13,1.65c-.56.38-1.11.75-1.68,1.12ZM76.02,213.9c-.56-.37-1.12-.75-1.68-1.13l1.13-1.65c.55.37,1.1.74,1.65,1.11l-1.1,1.67ZM207.35,211.66l-1.16-1.63c.54-.38,1.08-.77,1.61-1.16l1.18,1.61c-.54.4-1.09.79-1.64,1.18ZM72.68,211.61c-.55-.39-1.1-.79-1.64-1.19l1.19-1.61c.53.39,1.07.78,1.61,1.17l-1.16,1.63ZM210.6,209.27l-1.21-1.59c.53-.4,1.05-.81,1.57-1.22l1.24,1.57c-.53.42-1.06.83-1.6,1.24ZM69.42,209.21c-.54-.41-1.07-.82-1.6-1.24l1.24-1.57c.52.41,1.04.82,1.57,1.22l-1.21,1.59ZM213.78,206.77l-1.27-1.55c.51-.42,1.02-.84,1.53-1.27l1.29,1.53c-.51.44-1.03.87-1.55,1.29ZM66.25,206.7c-.52-.43-1.04-.86-1.55-1.3l1.29-1.52c.51.43,1.01.85,1.53,1.27l-1.27,1.55ZM216.86,204.15l-1.32-1.5c.5-.44.99-.88,1.48-1.32l1.34,1.48c-.5.45-1,.9-1.51,1.35ZM63.16,204.08c-.51-.45-1.01-.89-1.51-1.35l1.35-1.48c.49.45.98.89,1.48,1.33l-1.32,1.5ZM219.85,201.44l-1.37-1.46c.48-.45.96-.91,1.44-1.37l1.4,1.43c-.48.47-.97.94-1.46,1.4ZM60.17,201.36c-.49-.46-.98-.93-1.46-1.4l1.4-1.43c.48.46.95.92,1.44,1.38l-1.37,1.46ZM222.75,198.62l-1.42-1.41c.47-.47.93-.94,1.39-1.42l1.44,1.38c-.47.49-.94.97-1.41,1.45ZM57.27,198.54c-.47-.48-.94-.96-1.41-1.45l1.45-1.38c.46.48.92.95,1.39,1.42l-1.42,1.41ZM225.55,195.7l-1.47-1.36c.45-.49.9-.98,1.34-1.47l1.49,1.33c-.45.5-.9,1-1.36,1.5ZM54.48,195.62c-.46-.49-.91-.99-1.36-1.5l1.49-1.33c.44.49.89.98,1.34,1.47l-1.47,1.36ZM228.25,192.68l-1.51-1.31c.43-.5.86-1.01,1.29-1.52l1.54,1.28c-.43.52-.87,1.03-1.31,1.54ZM51.79,192.6c-.44-.51-.87-1.02-1.31-1.54l1.54-1.28c.42.51.85,1.01,1.29,1.52l-1.51,1.31ZM230.84,189.58l-1.56-1.26c.42-.52.83-1.04,1.23-1.56l1.58,1.23c-.41.53-.83,1.06-1.26,1.59ZM49.2,189.5c-.42-.52-.84-1.05-1.25-1.59l1.58-1.23c.41.52.82,1.04,1.23,1.56l-1.56,1.25ZM233.32,186.38l-1.6-1.2c.4-.53.79-1.06,1.18-1.6l1.62,1.17c-.4.55-.8,1.09-1.2,1.63ZM46.72,186.31c-.4-.54-.8-1.08-1.2-1.63l1.62-1.17c.39.54.78,1.07,1.18,1.6l-1.6,1.2ZM235.69,183.1l-1.64-1.14c.38-.54.75-1.09,1.12-1.64l1.66,1.11c-.38.56-.76,1.12-1.14,1.67ZM44.36,183.03c-.38-.55-.76-1.11-1.14-1.67l1.66-1.11c.37.55.74,1.1,1.12,1.64l-1.64,1.14ZM237.95,179.74l-1.68-1.08c.36-.56.72-1.12,1.07-1.68l1.7,1.06c-.36.57-.72,1.14-1.08,1.71ZM42.11,179.68c-.37-.56-.73-1.13-1.08-1.7l1.7-1.06c.35.56.7,1.12,1.06,1.68l-1.68,1.09ZM240.09,176.3l-1.72-1.03c.34-.57.68-1.14,1.01-1.72l1.73,1c-.34.59-.68,1.17-1.03,1.75ZM39.98,176.25c-.35-.58-.69-1.16-1.02-1.74l1.73-1c.33.57.66,1.14,1,1.71l-1.72,1.03ZM242.11,172.79l-1.75-.97c.32-.58.64-1.16.95-1.75l1.77.94c-.32.6-.64,1.19-.96,1.78ZM37.97,172.76c-.32-.59-.64-1.18-.96-1.77l1.77-.94c.31.58.62,1.17.94,1.74l-1.75.97ZM244.01,169.21l-1.78-.91c.3-.59.6-1.19.89-1.78l1.8.87c-.3.61-.6,1.21-.9,1.82ZM36.08,169.19c-.3-.6-.6-1.2-.9-1.81l1.8-.87c.29.59.58,1.19.88,1.77l-1.78.9ZM34.32,165.56c-.28-.61-.56-1.22-.83-1.83l1.83-.81c.27.6.54,1.21.82,1.8l-1.81.84ZM245.79,165.56l-1.81-.84c.28-.6.55-1.21.82-1.82l1.83.81c-.27.62-.55,1.23-.84,1.85ZM32.68,161.88c-.26-.62-.52-1.24-.77-1.86l1.86-.75c.25.61.5,1.22.75,1.83l-1.84.78ZM247.43,161.86l-1.84-.78c.26-.61.51-1.23.76-1.84l1.86.75c-.25.63-.51,1.25-.77,1.88ZM31.18,158.14c-.24-.63-.48-1.26-.71-1.9l1.88-.68c.23.62.46,1.24.69,1.86l-1.87.71ZM248.94,158.09l-1.87-.71c.24-.62.47-1.24.7-1.87l1.88.68c-.23.64-.47,1.27-.71,1.9ZM29.8,154.33c-.22-.64-.43-1.28-.64-1.92l1.9-.61c.2.63.41,1.26.63,1.88l-1.89.65ZM250.33,154.27l-1.89-.65c.21-.63.43-1.26.63-1.89l1.9.61c-.21.64-.42,1.29-.64,1.93ZM28.55,150.49c-.2-.64-.39-1.29-.57-1.94l1.92-.55c.18.64.37,1.27.56,1.91l-1.91.58ZM251.57,150.41l-1.91-.58c.19-.63.38-1.27.56-1.91l1.92.55c-.18.65-.38,1.3-.57,1.94ZM27.44,146.6c-.17-.65-.34-1.3-.5-1.96l1.94-.48c.16.64.32,1.29.5,1.93l-1.93.52ZM252.68,146.52l-1.93-.51c.17-.64.33-1.28.49-1.93l1.94.48c-.16.66-.33,1.31-.5,1.96ZM26.47,142.67c-.15-.66-.29-1.31-.43-1.97l1.96-.41c.14.65.28,1.3.43,1.94l-1.95.45ZM253.65,142.59l-1.95-.45c.15-.65.29-1.29.43-1.94l1.96.41c-.14.66-.28,1.32-.43,1.98ZM25.64,138.71c-.13-.66-.25-1.32-.37-1.99l1.97-.34c.11.65.23,1.3.36,1.95l-1.96.38ZM254.48,138.63l-1.96-.38c.12-.65.24-1.3.36-1.95l1.97.34c-.12.67-.24,1.33-.36,1.99ZM24.94,134.73c-.1-.66-.2-1.33-.3-2l1.98-.28c.09.66.19,1.31.29,1.97l-1.98.31ZM255.17,134.65l-1.98-.31c.1-.65.2-1.31.29-1.97l1.98.27c-.09.67-.19,1.34-.3,2ZM24.38,130.72c-.08-.67-.16-1.34-.23-2.01l1.99-.21c.07.66.14,1.32.22,1.97l-1.99.24ZM255.73,130.64l-1.99-.24c.08-.66.15-1.32.22-1.98l1.99.21c-.07.67-.14,1.34-.23,2.01ZM23.96,126.7c-.06-.67-.11-1.34-.16-2.02l2-.14c.05.66.1,1.32.15,1.98l-1.99.17ZM256.14,126.62l-1.99-.17c.06-.66.11-1.32.15-1.98l2,.14c-.05.67-.1,1.35-.16,2.02ZM23.68,122.67c-.04-.67-.06-1.35-.09-2.02l2-.07c.02.66.05,1.33.09,1.99l-2,.1ZM256.42,122.59l-2-.1c.03-.66.06-1.32.08-1.99l2,.07c-.02.68-.05,1.35-.09,2.02ZM23.54,118.63c-.01-.67-.02-1.35-.02-2.02h2c0,.66,0,1.33.02,1.99l-2,.04ZM256.56,118.54l-2-.03c.01-.66.02-1.32.02-1.99v-.17h2v.17c0,.68,0,1.35-.02,2.02ZM25.54,114.62l-2-.03c.01-.68.03-1.35.05-2.02l2,.07c-.02.66-.04,1.32-.05,1.99ZM254.56,114.37c-.01-.66-.03-1.32-.05-1.98l2-.07c.02.67.04,1.34.05,2.02l-2,.04ZM25.67,110.64l-2-.1c.03-.67.07-1.35.12-2.02l2,.14c-.04.66-.08,1.32-.12,1.98ZM254.42,110.4c-.04-.66-.08-1.32-.12-1.98l2-.14c.05.67.09,1.34.12,2.02l-2,.1ZM25.94,106.68l-1.99-.17c.06-.67.12-1.34.19-2.01l1.99.21c-.07.66-.13,1.32-.19,1.98ZM254.14,106.44c-.06-.66-.12-1.32-.19-1.98l1.99-.21c.07.67.13,1.34.19,2.01l-1.99.17ZM26.35,102.72l-1.99-.24c.08-.67.17-1.34.26-2.01l1.98.27c-.09.66-.18,1.31-.25,1.97ZM253.72,102.48c-.08-.66-.17-1.32-.26-1.97l1.98-.28c.09.67.18,1.33.26,2l-1.99.24ZM26.89,98.79l-1.98-.31c.1-.67.21-1.33.33-1.99l1.97.34c-.11.65-.22,1.31-.32,1.96ZM253.17,98.55c-.1-.66-.21-1.31-.33-1.96l1.97-.35c.12.66.23,1.33.33,1.99l-1.98.31ZM27.57,94.87l-1.96-.38c.13-.66.26-1.32.4-1.98l1.96.41c-.14.65-.27,1.3-.39,1.95ZM252.49,94.63c-.13-.65-.26-1.3-.39-1.95l1.96-.41c.14.66.27,1.32.4,1.98l-1.96.38ZM28.38,90.98l-1.95-.44c.15-.66.31-1.31.47-1.97l1.94.48c-.16.64-.31,1.29-.46,1.93ZM251.66,90.74c-.15-.65-.3-1.29-.46-1.93l1.94-.48c.16.65.32,1.31.47,1.97l-1.95.45ZM29.33,87.12l-1.93-.51c.17-.65.35-1.3.54-1.95l1.92.55c-.18.64-.36,1.28-.53,1.92ZM250.7,86.89c-.17-.64-.35-1.28-.53-1.92l1.92-.55c.18.65.36,1.3.54,1.95l-1.93.52ZM30.42,83.3l-1.91-.58c.2-.65.4-1.29.61-1.94l1.9.61c-.2.63-.4,1.27-.6,1.91ZM249.61,83.06c-.19-.63-.39-1.27-.6-1.9l1.9-.62c.21.64.41,1.28.61,1.93l-1.91.58ZM31.64,79.5l-1.89-.65c.22-.64.44-1.28.67-1.92l1.88.68c-.23.62-.45,1.25-.66,1.88ZM248.39,79.28c-.22-.63-.44-1.25-.66-1.87l1.88-.68c.23.63.45,1.27.67,1.91l-1.89.65ZM33,75.75l-1.87-.71c.24-.63.49-1.26.74-1.89l1.86.75c-.25.62-.49,1.23-.73,1.86ZM247.03,75.55c-.24-.62-.48-1.24-.73-1.85l1.85-.75c.25.62.5,1.25.74,1.88l-1.87.72ZM34.48,72.04l-1.84-.78c.26-.62.53-1.24.8-1.86l1.83.81c-.27.61-.53,1.22-.79,1.83ZM245.54,71.87c-.26-.61-.52-1.21-.79-1.82l1.83-.81c.27.61.54,1.23.8,1.85l-1.84.78ZM36.1,68.4l-1.81-.84c.28-.61.57-1.22.87-1.83l1.8.87c-.29.6-.57,1.2-.85,1.8ZM243.94,68.25c-.28-.6-.56-1.2-.85-1.79l1.8-.88c.29.6.58,1.21.87,1.82l-1.81.84ZM37.83,64.82l-1.78-.9c.31-.6.62-1.2.93-1.8l1.77.94c-.31.59-.62,1.18-.92,1.77ZM242.2,64.69c-.3-.59-.6-1.18-.91-1.76l1.77-.94c.31.59.62,1.19.93,1.79l-1.78.91ZM39.7,61.29l-1.75-.97c.33-.59.66-1.18.99-1.77l1.73,1c-.33.58-.66,1.15-.98,1.74ZM240.34,61.18c-.32-.58-.65-1.15-.97-1.73l1.73-1c.34.58.67,1.17.99,1.76l-1.75.97ZM41.68,57.84l-1.72-1.03c.35-.58.7-1.16,1.05-1.73l1.7,1.06c-.35.56-.7,1.13-1.04,1.7ZM238.37,57.75c-.34-.57-.68-1.13-1.03-1.69l1.7-1.06c.36.57.71,1.15,1.05,1.72l-1.72,1.03ZM43.78,54.46l-1.68-1.09c.37-.57.74-1.13,1.11-1.69l1.66,1.11c-.37.55-.73,1.1-1.09,1.66ZM236.27,54.38c-.36-.56-.72-1.11-1.09-1.66l1.66-1.12c.38.56.75,1.12,1.11,1.69l-1.68,1.09ZM46,51.15l-1.64-1.14c.39-.55.78-1.1,1.17-1.65l1.62,1.17c-.39.54-.77,1.08-1.15,1.62ZM234.05,51.09c-.38-.54-.76-1.08-1.15-1.62l1.62-1.17c.39.55.78,1.09,1.17,1.65l-1.64,1.14ZM48.33,47.93l-1.6-1.2c.4-.54.81-1.08,1.23-1.61l1.58,1.23c-.41.52-.81,1.05-1.21,1.58ZM231.73,47.87c-.4-.53-.8-1.06-1.2-1.58l1.58-1.23c.41.53.82,1.07,1.23,1.61l-1.6,1.2ZM50.77,44.79l-1.56-1.25c.42-.53.85-1.05,1.28-1.56l1.54,1.28c-.42.51-.84,1.02-1.26,1.54ZM229.29,44.74c-.41-.52-.83-1.03-1.26-1.54l1.54-1.28c.43.52.86,1.04,1.28,1.56l-1.56,1.25ZM53.32,41.73l-1.51-1.31c.44-.51.89-1.02,1.33-1.52l1.49,1.33c-.44.49-.88.99-1.31,1.49ZM226.75,41.69c-.43-.5-.87-1-1.31-1.49l1.49-1.33c.45.5.89,1.01,1.33,1.52l-1.51,1.31ZM55.96,38.77l-1.47-1.36c.46-.49.92-.99,1.39-1.47l1.44,1.38c-.46.48-.91.96-1.36,1.45ZM224.1,38.73c-.45-.49-.9-.97-1.36-1.45l1.44-1.38c.47.49.93.98,1.39,1.47l-1.47,1.36ZM58.71,35.9l-1.42-1.41c.47-.48.95-.95,1.44-1.42l1.4,1.43c-.47.46-.94.93-1.41,1.4ZM221.35,35.86c-.47-.47-.94-.94-1.41-1.4l1.39-1.43c.48.47.96.94,1.44,1.42l-1.42,1.41ZM61.56,33.12l-1.37-1.46c.49-.46.98-.92,1.48-1.37l1.35,1.48c-.49.45-.98.9-1.46,1.35ZM218.5,33.09c-.48-.45-.97-.9-1.46-1.35l1.34-1.48c.5.45.99.91,1.48,1.37l-1.37,1.46ZM64.5,30.45l-1.32-1.5c.51-.44,1.02-.89,1.53-1.32l1.29,1.53c-.51.43-1.01.86-1.5,1.3ZM215.56,30.41c-.5-.44-1-.87-1.51-1.3l1.29-1.53c.51.44,1.03.88,1.53,1.32l-1.32,1.5ZM67.53,27.88l-1.27-1.55c.52-.43,1.05-.85,1.57-1.27l1.24,1.57c-.52.41-1.04.83-1.55,1.24ZM212.52,27.84c-.51-.42-1.03-.84-1.55-1.25l1.24-1.57c.53.42,1.06.84,1.58,1.27l-1.27,1.55ZM70.64,25.42l-1.21-1.59c.54-.41,1.07-.81,1.62-1.21l1.19,1.61c-.53.39-1.06.79-1.59,1.19ZM209.4,25.38c-.53-.4-1.06-.8-1.59-1.19l1.18-1.61c.54.4,1.08.8,1.62,1.21l-1.21,1.59ZM73.84,23.06l-1.16-1.63c.55-.39,1.1-.77,1.66-1.15l1.13,1.65c-.55.37-1.09.75-1.63,1.13ZM206.2,23.02c-.54-.38-1.09-.76-1.63-1.14l1.13-1.65c.56.38,1.11.77,1.66,1.16l-1.16,1.63ZM77.12,20.82l-1.1-1.67c.56-.37,1.13-.74,1.7-1.1l1.07,1.69c-.56.35-1.11.71-1.67,1.08ZM202.91,20.77c-.55-.36-1.11-.72-1.67-1.08l1.07-1.69c.57.36,1.14.73,1.7,1.1l-1.1,1.67ZM80.46,18.7l-1.04-1.71c.57-.35,1.15-.7,1.73-1.04l1.01,1.72c-.57.33-1.14.67-1.7,1.02ZM199.55,18.64c-.57-.35-1.14-.69-1.71-1.02l1.01-1.73c.58.34,1.16.69,1.74,1.04l-1.04,1.71ZM83.88,16.69l-.98-1.74c.59-.33,1.17-.66,1.77-.98l.95,1.76c-.58.32-1.16.63-1.74.96ZM196.11,16.63c-.58-.33-1.16-.65-1.74-.96l.95-1.76c.59.32,1.19.65,1.77.98l-.98,1.74ZM87.37,14.8l-.92-1.78c.6-.31,1.2-.61,1.8-.91l.89,1.79c-.59.29-1.18.59-1.77.9ZM192.61,14.74c-.59-.3-1.18-.6-1.78-.9l.89-1.79c.61.3,1.21.61,1.81.92l-.92,1.78ZM90.92,13.04l-.86-1.81c.61-.29,1.22-.57,1.83-.85l.83,1.82c-.6.27-1.2.55-1.8.84ZM189.04,12.97c-.6-.28-1.2-.56-1.81-.84l.83-1.82c.62.28,1.23.56,1.84.85l-.86,1.81ZM94.52,11.4l-.8-1.84c.62-.27,1.23-.53,1.86-.79l.76,1.85c-.61.25-1.22.51-1.82.77ZM185.41,11.33c-.61-.26-1.22-.52-1.84-.77l.76-1.85c.63.26,1.25.52,1.87.79l-.79,1.84ZM98.19,9.89l-.73-1.86c.63-.25,1.26-.49,1.89-.72l.7,1.87c-.62.23-1.24.47-1.86.71ZM181.72,9.81c-.62-.24-1.24-.48-1.86-.71l.69-1.88c.64.24,1.27.48,1.9.72l-.73,1.86ZM101.92,8.5l-.67-1.89c.63-.22,1.27-.44,1.91-.66l.63,1.9c-.63.21-1.26.42-1.88.65ZM177.98,8.43c-.63-.22-1.26-.43-1.89-.64l.63-1.9c.64.21,1.28.43,1.92.66l-.66,1.89ZM105.69,7.24l-.6-1.91c.64-.2,1.29-.4,1.94-.59l.57,1.92c-.64.19-1.27.38-1.9.58ZM174.19,7.17c-.63-.2-1.27-.39-1.9-.58l.56-1.92c.65.19,1.29.38,1.94.59l-.6,1.91ZM109.5,6.12l-.53-1.93c.65-.18,1.3-.35,1.96-.52l.5,1.94c-.64.17-1.28.34-1.92.51ZM170.38,6.05c-.64-.17-1.28-.34-1.92-.51l.5-1.94c.65.17,1.31.34,1.95.52l-.53,1.93ZM113.35,5.13l-.46-1.95c.66-.16,1.31-.31,1.97-.45l.43,1.95c-.65.14-1.29.29-1.94.44ZM166.52,5.07c-.64-.15-1.29-.3-1.94-.44l.43-1.95c.66.14,1.32.29,1.97.45l-.46,1.95ZM117.23,4.27l-.4-1.96c.66-.13,1.32-.26,1.99-.38l.36,1.97c-.65.12-1.3.25-1.95.38ZM162.64,4.22c-.65-.13-1.3-.25-1.95-.37l.36-1.97c.66.12,1.33.25,1.99.38l-.39,1.96ZM121.14,3.55l-.33-1.97c.66-.11,1.33-.21,2-.31l.29,1.98c-.66.1-1.31.2-1.96.31ZM158.73,3.51c-.65-.11-1.31-.21-1.96-.3l.29-1.98c.67.1,1.33.2,2,.31l-.32,1.97ZM125.07,2.97l-.26-1.98c.67-.09,1.34-.17,2.01-.24l.22,1.99c-.66.07-1.32.15-1.97.24ZM154.8,2.94c-.66-.08-1.31-.16-1.97-.24l.22-1.99c.67.07,1.34.15,2.01.24l-.25,1.98ZM129.02,2.52l-.19-1.99c.67-.06,1.34-.12,2.01-.17l.16,1.99c-.66.05-1.32.11-1.98.17ZM150.85,2.5c-.66-.06-1.32-.12-1.98-.17l.15-1.99c.67.05,1.35.11,2.02.17l-.19,1.99ZM132.98,2.21l-.12-2c.67-.04,1.34-.08,2.02-.11l.09,2c-.66.03-1.32.06-1.99.1ZM146.88,2.2c-.66-.04-1.32-.07-1.98-.1l.08-2c.67.03,1.35.06,2.02.1l-.12,2ZM136.95,2.04l-.05-2c.67-.02,1.34-.03,2.02-.04l.02,2c-.66,0-1.33.02-1.99.04ZM142.91,2.03c-.66-.02-1.32-.03-1.99-.03V0c.69,0,1.36.02,2.04.03l-.05,2Z"/>
      <g>
        <rect class="cls-5" x="45.77" y="65.37" width="2" height="11.25"/>
        <rect class="cls-5" x="41.15" y="70" width="11.25" height="2"/>
      </g>
      <g>
        <circle class="cls-3" cx="207.36" cy="179.4" r="10.22"/>
        <path class="cls-5" d="M207.36,190.62c-6.19,0-11.22-5.03-11.22-11.22s5.03-11.22,11.22-11.22,11.22,5.03,11.22,11.22-5.03,11.22-11.22,11.22ZM207.36,170.19c-5.08,0-9.22,4.14-9.22,9.22s4.14,9.22,9.22,9.22,9.22-4.14,9.22-9.22-4.14-9.22-9.22-9.22Z"/>
      </g>
      <path class="cls-5" d="M213.01,179.4c0,3.12-2.53,5.65-5.65,5.65s-5.65-2.53-5.65-5.65,2.53-5.65,5.65-5.65,5.65,2.53,5.65,5.65Z"/>
      <path class="cls-4" d="M258.53,20.67h1.11c3.17,0,5.74,2.57,5.74,5.74v29.08c0,3.17-2.57,5.74-5.74,5.74h-18.25l-10.28,10.28v-10.28h-1.11c-3.17,0-5.74-2.57-5.74-5.74v-29.08c0-3.17,2.57-5.74,5.74-5.74h28.53Z"/>
      <path class="cls-2" d="M58.81,65.87l-10.35-11.18H15c-4.61,0-8.34-3.74-8.34-8.34v-25.54c0-4.61,3.74-8.34,8.34-8.34h35.47c4.61,0,8.34,3.74,8.34,8.34v45.06Z"/>
      <circle class="cls-1" cx="248.6" cy="159.08" r="15.92" transform="translate(36.66 364.48) rotate(-76.72)"/>
      <circle class="cls-4" cx="143.85" cy="206.96" r="15.92" transform="translate(-104.21 162.34) rotate(-45)"/>
      <g>
        <rect class="cls-5" x="260.69" y="111.12" width="3.19" height="2" transform="translate(-22.83 103.55) rotate(-21.42)"/>
        <rect class="cls-5" x="269.82" y="107.54" width="3.19" height="2" transform="translate(-20.89 106.64) rotate(-21.42)"/>
        <rect class="cls-5" x="264.52" y="114.18" width="3.19" height="2" transform="translate(112.53 361.15) rotate(-81.42)"/>
        <rect class="cls-5" x="265.99" y="104.48" width="3.19" height="2" transform="translate(123.36 354.33) rotate(-81.42)"/>
        <rect class="cls-5" x="262.02" y="105.68" width="2" height="3.19" transform="translate(15.16 246.02) rotate(-51.43)"/>
        <rect class="cls-5" x="269.69" y="111.79" width="2" height="3.19" transform="translate(13.26 254.31) rotate(-51.43)"/>
      </g>
      <g>
        <path class="cls-3" d="M56.62,227.09l-1.19.09c-29.26,2.34-50.27-15.77-54.69-37.57l63.03-62.53,26.43-6.76,22.4,33.92-7.22,29.01-17.42-3.71-11.63-7.53-19.71,55.07Z"/>
        <g>
          <g>
            <rect class="cls-3" x="102.49" y="105.98" width="10.31" height="49.64" transform="translate(97.05 -38.27) rotate(35.87)"/>
            <path class="cls-5" d="M97.28,154.93c-.2,0-.41-.06-.58-.19l-8.35-6.04c-.45-.32-.55-.95-.22-1.4l29.08-40.22c.32-.45.95-.55,1.4-.22l8.36,6.04c.21.16.36.39.4.65.04.26-.02.53-.18.74l-29.08,40.22c-.2.27-.5.41-.81.41ZM90.33,147.66l6.73,4.87,27.91-38.6-6.73-4.87-27.91,38.6Z"/>
          </g>
          <path class="cls-5" d="M55.58,226.88c-.11,0-.22-.02-.33-.06-.52-.18-.79-.75-.61-1.28l19.45-55.25c.1-.29.33-.51.61-.61.29-.1.6-.07.86.09l6.23,3.86c.05.03.1.07.15.11,5.25,4.83,12.06,7.55,19.18,7.66l3.39.18,21.05-25.17-20.75-22.2c-.38-.4-.36-1.04.05-1.41.4-.38,1.04-.36,1.41.05l21.35,22.84c.34.37.36.94.04,1.32l-21.94,26.23c-.2.24-.51.38-.82.36l-3.85-.2c-7.54-.11-14.79-3-20.39-8.12l-5.1-3.16-19.04,54.08c-.15.41-.53.67-.94.67Z"/>
          <path class="cls-5" d="M1,190.58c-.25,0-.51-.1-.7-.29-.39-.39-.39-1.02,0-1.41l67.15-67.5,11.81-9.83c6.48-5.39,15.95-5.43,22.52-.12l15.92,12.88c.85.69,1.33,1.76,1.26,2.86-.07,1.11-.64,2.08-1.58,2.67-4.07,2.57-9.19,3.08-13.71,1.39l-10.11-3.8-1.21,3.27c-2.81,7.56-8.28,13.79-15.4,17.54-.49.26-1.09.07-1.35-.42-.26-.49-.07-1.09.42-1.35,6.69-3.52,11.82-9.37,14.46-16.47l1.56-4.21c.09-.25.28-.45.52-.56.24-.11.52-.12.77-.03l11.05,4.15c3.93,1.48,8.39,1.03,11.94-1.21.38-.24.62-.64.65-1.1.03-.46-.16-.89-.52-1.18l-15.92-12.88c-5.83-4.72-14.24-4.68-19.99.1l-11.74,9.76L1.71,190.29c-.2.2-.45.29-.71.29Z"/>
          <path class="cls-5" d="M87.49,113.2h26.1v43.77c0,6.13-4.98,11.1-11.1,11.1h-3.89c-6.13,0-11.1-4.98-11.1-11.1v-43.77h0Z" transform="translate(101.46 -32.24) rotate(35.87)"/>
          <g>
            <ellipse class="cls-5" cx="148.51" cy="65.74" rx="53.05" ry="31.22" transform="translate(12.72 154.84) rotate(-57.15)"/>
            <path class="cls-5" d="M130.83,114.4c-4.27,0-8.22-1.04-11.64-3.25-14.93-9.64-13.92-37.85,2.25-62.89,7.78-12.05,17.88-21.61,28.42-26.91,10.72-5.39,20.65-5.75,27.97-1.02,7.32,4.72,11.07,13.93,10.57,25.91-.49,11.79-5.04,24.92-12.83,36.98-12.47,19.31-30.37,31.18-44.75,31.18ZM166.08,19.04c-4.69,0-9.88,1.37-15.32,4.11-10.23,5.14-20.05,14.45-27.64,26.2-15.57,24.11-16.85,51.08-2.85,60.12,14,9.04,38.06-3.22,53.63-27.34,7.59-11.76,12.03-24.53,12.51-35.97.47-11.25-2.97-19.82-9.66-24.15-3.07-1.99-6.68-2.97-10.66-2.97Z"/>
          </g>
          <g>
            <ellipse class="cls-3" cx="153.9" cy="69.39" rx="53.05" ry="28.94" transform="translate(12.13 161.04) rotate(-57.15)"/>
            <path class="cls-5" d="M134.84,117.66c-3.83,0-7.29-.95-10.26-2.87-6.81-4.4-10.09-13.3-9.22-25.07.86-11.55,5.61-24.54,13.39-36.58,7.78-12.04,17.66-21.72,27.83-27.25,10.36-5.64,19.82-6.32,26.64-1.92,6.81,4.4,10.09,13.3,9.22,25.07-.86,11.55-5.61,24.54-13.39,36.58-7.78,12.04-17.66,21.72-27.83,27.25-5.85,3.18-11.42,4.78-16.38,4.78ZM172.95,23.11c-4.62,0-9.86,1.52-15.41,4.54-9.88,5.37-19.51,14.81-27.11,26.58-7.6,11.77-12.24,24.43-13.07,35.64-.82,11,2.13,19.25,8.31,23.24,6.17,3.98,14.91,3.28,24.6-1.99,9.88-5.37,19.51-14.82,27.11-26.58,7.6-11.77,12.24-24.43,13.07-35.64.82-11-2.13-19.25-8.31-23.24-2.64-1.7-5.74-2.55-9.19-2.55Z"/>
          </g>
          <path class="cls-5" d="M137.83,111.01c-2.95,0-5.65-.71-7.96-2.21-11.32-7.31-9.3-30.65,4.51-52.03,13.81-21.38,34.25-32.83,45.56-25.52,11.32,7.31,9.3,30.65-4.51,52.03h0c-10.98,17-26.15,27.72-37.6,27.72ZM171.81,30.99c-10.67,0-25.14,10.44-35.75,26.87-13.21,20.45-15.5,42.55-5.1,49.26,10.39,6.71,29.59-4.47,42.8-24.92l.84.54-.84-.54c13.21-20.45,15.5-42.55,5.1-49.26-2.05-1.32-4.43-1.95-7.05-1.95Z"/>
          <g>
            <path class="cls-3" d="M61.62,128.68l18.19-16.3c6.16-5.12,15.08-5.18,21.31-.15l15.94,12.87c1.28,1.04,1.17,3.03-.23,3.91h0c-3.84,2.43-8.6,2.92-12.86,1.33l-11.08-4.14-1.58,4.22c-2.74,7.33-8.08,13.4-15.01,17.06h0l-14.7-18.79Z"/>
            <path class="cls-5" d="M76.32,148.48c-.36,0-.71-.19-.89-.53-.26-.49-.07-1.09.42-1.35,6.72-3.54,11.88-9.41,14.54-16.52l1.58-4.22c.09-.25.28-.45.52-.56.24-.11.52-.12.77-.03l11.08,4.14c3.94,1.47,8.42,1.01,11.98-1.23.39-.25.63-.65.65-1.11.03-.46-.16-.89-.52-1.18l-15.94-12.87c-5.84-4.72-14.27-4.66-20.05.14l-18.16,16.28c-.41.37-1.04.33-1.41-.08-.37-.41-.33-1.04.08-1.41l18.19-16.3c6.53-5.43,16.03-5.5,22.61-.18l15.94,12.87c.87.7,1.33,1.74,1.26,2.85-.06,1.11-.64,2.09-1.58,2.68-4.08,2.58-9.22,3.11-13.74,1.42l-10.14-3.79-1.23,3.28c-2.83,7.57-8.33,13.82-15.48,17.59-.15.08-.31.12-.47.12Z"/>
          </g>
          <g>
            <path class="cls-3" d="M118.74,163.72c-1.13-1.57-1.61-3.6-1.14-5.63.74-3.21-1.41-8.75-2.5-10.79-1.81-3.38-.55-7.59,2.83-9.41,3.38-1.82,7.59-.55,9.41,2.83.61,1.14,5.9,11.37,3.8,20.48-.86,3.74-4.59,6.07-8.33,5.21-1.71-.39-3.12-1.38-4.07-2.7Z"/>
            <path class="cls-5" d="M124.39,167.6c-.6,0-1.2-.07-1.8-.21-1.88-.43-3.53-1.53-4.66-3.09h0c-1.34-1.86-1.82-4.21-1.3-6.44.64-2.77-1.25-7.94-2.41-10.09-1-1.87-1.22-4.02-.61-6.05.61-2.03,1.98-3.7,3.85-4.71,1.87-1,4.02-1.22,6.05-.61,2.03.61,3.71,1.98,4.71,3.85.63,1.17,6.07,11.71,3.89,21.18-.48,2.07-1.73,3.83-3.53,4.95-1.28.8-2.73,1.21-4.2,1.21ZM119.55,163.13c.84,1.17,2.08,1.99,3.48,2.31,1.55.36,3.14.09,4.49-.75,1.35-.84,2.29-2.16,2.64-3.71,2.02-8.76-3.11-18.68-3.7-19.79-.75-1.4-2-2.42-3.52-2.88-1.52-.46-3.13-.3-4.53.46-1.4.75-2.42,2-2.88,3.52-.46,1.52-.3,3.13.45,4.53,1.2,2.23,3.4,7.97,2.59,11.49-.39,1.67-.03,3.43.97,4.82h0Z"/>
          </g>
          <g>
            <path class="cls-3" d="M108.43,171.98c-1.13-1.57-1.61-3.6-1.14-5.63.73-3.19-1.37-8.66-2.51-10.81-1.79-3.38-.51-7.59,2.87-9.39,3.38-1.8,7.57-.54,9.38,2.84.61,1.14,5.9,11.36,3.8,20.48-.86,3.74-4.59,6.07-8.33,5.21-1.71-.39-3.12-1.38-4.07-2.7Z"/>
            <path class="cls-5" d="M114.07,175.86c-.6,0-1.2-.07-1.8-.21-1.88-.43-3.53-1.53-4.66-3.09-1.34-1.86-1.82-4.21-1.3-6.44.67-2.88-1.38-8.15-2.42-10.12-2.04-3.87-.57-8.68,3.29-10.74,3.86-2.06,8.67-.6,10.73,3.25.63,1.17,6.07,11.71,3.89,21.18-.48,2.07-1.73,3.83-3.53,4.95-1.28.8-2.72,1.21-4.2,1.21ZM110.91,146.34c-.94,0-1.9.22-2.79.7-2.89,1.54-3.99,5.14-2.46,8.04.95,1.8,3.46,7.76,2.6,11.5-.39,1.67-.03,3.43.97,4.82h0c.84,1.17,2.08,1.99,3.48,2.31,1.55.36,3.14.09,4.49-.75,1.35-.84,2.29-2.16,2.64-3.71,2.02-8.76-3.11-18.68-3.7-19.79-1.07-1.99-3.12-3.12-5.24-3.12Z"/>
          </g>
          <g>
            <path class="cls-3" d="M97.51,174.22c.74-3.21-1.41-8.75-2.5-10.79-1.81-3.38-.55-7.59,2.83-9.41,3.38-1.82,7.59-.55,9.41,2.83.61,1.14,5.9,11.36,3.8,20.48-.86,3.74-4.59,6.07-8.33,5.21l-5.21-8.33Z"/>
            <path class="cls-5" d="M104.29,183.74c-.6,0-1.2-.07-1.8-.21-.54-.12-.87-.66-.75-1.2.12-.54.66-.87,1.2-.75,1.55.36,3.14.09,4.49-.75,1.35-.84,2.29-2.16,2.64-3.71,2.02-8.76-3.11-18.68-3.7-19.79-.75-1.4-2-2.43-3.52-2.88-1.52-.46-3.13-.29-4.53.46-1.4.75-2.42,2-2.88,3.52-.46,1.52-.3,3.13.45,4.53,1.2,2.23,3.4,7.97,2.59,11.49-.12.54-.66.88-1.2.75-.54-.12-.87-.66-.75-1.2.64-2.77-1.25-7.94-2.41-10.09-1-1.87-1.22-4.02-.61-6.05.61-2.03,1.98-3.7,3.85-4.71,1.87-1,4.02-1.22,6.05-.61,2.03.61,3.71,1.98,4.71,3.85.63,1.17,6.07,11.71,3.89,21.18-.48,2.07-1.73,3.83-3.53,4.95-1.28.8-2.73,1.21-4.2,1.21Z"/>
          </g>
        </g>
      </g>
      <g>
        <path class="cls-3" d="M250.6,51.76h-11.75v-2.77c-3.77-2.12-6.09-6.06-6.09-10.42,0-6.6,5.37-11.97,11.97-11.97s11.97,5.37,11.97,11.97c0,4.36-2.32,8.29-6.09,10.42v2.77ZM240.85,49.76h7.75v-1.99l.55-.28c3.42-1.7,5.54-5.12,5.54-8.92,0-5.5-4.47-9.97-9.97-9.97s-9.97,4.47-9.97,9.97c0,3.8,2.12,7.22,5.54,8.92l.55.28v1.99Z"/>
        <rect class="cls-3" x="238.63" y="53.41" width="12.19" height="2"/>
        <rect class="cls-3" x="243.72" y="39.79" width="2" height="9.75"/>
        <rect class="cls-3" x="242.28" y="38.79" width="4.88" height="2"/>
        <path class="cls-3" d="M239.63,38.57h-2c0-3.91,3.18-7.09,7.09-7.09v2c-2.81,0-5.09,2.29-5.09,5.09Z"/>
      </g>
      <g>
        <polygon class="cls-5" points="27.97 34.97 21.06 28.05 40.81 8.31 47.7 15.2 42.67 20.61 41.21 19.24 44.92 15.25 40.81 11.14 23.89 28.05 27.98 32.14 34.85 25.3 36.26 26.72 27.97 34.97"/>
        <path class="cls-5" d="M24.31,36.8l-5.08-5.08,4.16-4.16,5.08,5.08-4.16,4.16ZM22.06,31.72l2.25,2.25,1.34-1.34-2.25-2.25-1.34,1.34Z"/>
        <rect class="cls-5" x="42.56" y="5.99" width="2" height="12.96" transform="translate(3.94 34.45) rotate(-45)"/>
        <path class="cls-5" d="M45.39,15.72l-5.08-5.08,5.08-5.08,5.08,5.08-5.08,5.08ZM43.14,10.64l2.25,2.25,2.25-2.25-2.25-2.25-2.25,2.25Z"/>
        <path class="cls-5" d="M38.81,28.17c-1.42,0-2.84-.54-3.92-1.62-1.05-1.05-1.62-2.44-1.62-3.92s.58-2.87,1.62-3.92c2.16-2.16,5.67-2.16,7.83,0,1.05,1.05,1.62,2.44,1.62,3.92s-.58,2.87-1.62,3.92h0c-1.08,1.08-2.5,1.62-3.92,1.62ZM38.81,19.1c-.94,0-1.83.37-2.5,1.04-.67.67-1.04,1.56-1.04,2.5s.37,1.83,1.04,2.5c1.34,1.34,3.67,1.34,5,0h0c.67-.67,1.04-1.56,1.04-2.5s-.37-1.83-1.04-2.5c-.67-.67-1.56-1.04-2.5-1.04Z"/>
        <path class="cls-5" d="M40.94,50.92h-23v-3c0-1.1.9-2,2-2h19c1.1,0,2,.9,2,2v3ZM19.94,48.92h19v-1h-19v1Z"/>
        <path class="cls-5" d="M28.78,44.86c-2-.87-3.76-2.23-5.1-3.96l1.58-1.23c1.14,1.46,2.63,2.62,4.32,3.35l-.79,1.84Z"/>
        <path class="cls-5" d="M37.82,45.34l-.6-1.91c4.62-1.44,7.72-5.66,7.72-10.5,0-2.94-1.14-5.7-3.22-7.78l1.41-1.41c2.46,2.46,3.81,5.72,3.81,9.19,0,5.72-3.67,10.71-9.12,12.41Z"/>
        <path class="cls-5" d="M38.94,47.42h-2v-2c0-1.93-1.57-3.5-3.5-3.5s-3.5,1.57-3.5,3.5v2h-2v-2c0-3.03,2.47-5.5,5.5-5.5s5.5,2.47,5.5,5.5v2Z"/>
        <rect class="cls-5" x="16.94" y="38.92" width="11" height="2"/>
      </g>
      <polygon class="cls-5" points="282.26 165.96 264.31 161.86 246.36 157.75 253.59 174.68 260.82 191.62 265.88 179.14 276.03 187.62 281.03 181.64 270.88 173.16 282.26 165.96"/>
      <path class="cls-5" d="M67.48,104.63c-.36,0-.7-.19-.88-.51l-3.14-5.34-5.52-2.8c-.33-.17-.55-.51-.56-.88-.01-.37.18-.73.5-.92l5.34-3.14,2.8-5.52c.17-.33.51-.55.88-.56.39-.02.73.18.92.51l3.14,5.34,5.52,2.8c.33.17.55.51.56.88.01.37-.18.73-.51.92l-5.34,3.14-2.8,5.52c-.17.33-.51.55-.88.56-.01,0-.02,0-.03,0ZM65.08,97.49l2.34,3.98,2.09-4.12c.09-.17.23-.32.4-.42l3.98-2.34-4.12-2.09c-.17-.09-.32-.23-.42-.39l-2.34-3.98-2.09,4.12c-.09.17-.23.32-.39.42l-3.98,2.34M64,91.78h0,0Z"/>
      <g>
        <polygon class="cls-3" points="144.85 214.01 142.85 214.01 142.85 205.01 137.85 205.01 137.85 203.01 144.85 203.01 144.85 214.01"/>
        <rect class="cls-3" x="137.85" y="213.01" width="12" height="2"/>
        <path class="cls-3" d="M143.35,201.01c-1.93,0-3.5-1.57-3.5-3.5s1.57-3.5,3.5-3.5,3.5,1.57,3.5,3.5-1.57,3.5-3.5,3.5ZM143.35,196.01c-.83,0-1.5.67-1.5,1.5s.67,1.5,1.5,1.5,1.5-.67,1.5-1.5-.67-1.5-1.5-1.5Z"/>
      </g>
    </g>
  </g>
</svg>